<?xml version="1.0" encoding="UTF-8" standalone="no"?>
<!-- Created with Inkscape (http://www.inkscape.org/) -->

<svg
   xmlns:dc="http://purl.org/dc/elements/1.1/"
   xmlns:cc="http://creativecommons.org/ns#"
   xmlns:rdf="http://www.w3.org/1999/02/22-rdf-syntax-ns#"
   xmlns:svg="http://www.w3.org/2000/svg"
   xmlns="http://www.w3.org/2000/svg"
   xmlns:sodipodi="http://sodipodi.sourceforge.net/DTD/sodipodi-0.dtd"
   xmlns:inkscape="http://www.inkscape.org/namespaces/inkscape"
   width="1920"
   height="1200"
   viewBox="0 0 507.99999 317.50001"
   version="1.1"
   id="svg8"
   inkscape:version="0.92.5 (2060ec1f9f, 2020-04-08)"
   sodipodi:docname="hero_image.svg">
  <defs
     id="defs2">
    <inkscape:perspective
       sodipodi:type="inkscape:persp3d"
       inkscape:vp_x="0 : 158.75 : 1"
       inkscape:vp_y="0 : 1000 : 0"
       inkscape:vp_z="507.99999 : 158.75 : 1"
       inkscape:persp3d-origin="254 : 105.83334 : 1"
       id="perspective1081" />
  </defs>
  <sodipodi:namedview
     id="base"
     pagecolor="#ffffff"
     bordercolor="#666666"
     borderopacity="1.0"
     inkscape:pageopacity="0.0"
     inkscape:pageshadow="2"
     inkscape:zoom="0.5"
     inkscape:cx="300.48542"
     inkscape:cy="460.09315"
     inkscape:document-units="mm"
     inkscape:current-layer="layer1"
     showgrid="false"
     units="px"
     inkscape:window-width="1848"
     inkscape:window-height="1016"
     inkscape:window-x="1752"
     inkscape:window-y="27"
     inkscape:window-maximized="1" />
  <metadata
     id="metadata5">
    <rdf:RDF>
      <cc:Work
         rdf:about="">
        <dc:format>image/svg+xml</dc:format>
        <dc:type
           rdf:resource="http://purl.org/dc/dcmitype/StillImage" />
        <dc:title />
      </cc:Work>
    </rdf:RDF>
  </metadata>
  <g
     inkscape:label="Layer 1"
     inkscape:groupmode="layer"
     id="layer1"
     transform="translate(0,20.500017)">
    <rect
       style="opacity:1;vector-effect:none;fill:#ffffff;fill-opacity:1;stroke:none;stroke-width:0.80000001;stroke-linecap:round;stroke-linejoin:round;stroke-miterlimit:4;stroke-dasharray:none;stroke-dashoffset:0;stroke-opacity:1"
       id="rect885"
       width="508"
       height="29.185829"
       x="0.005190338"
       y="-20.500837" />
    <rect
       style="opacity:1;vector-effect:none;fill:#5b046b;fill-opacity:1;stroke:none;stroke-width:0.73206139;stroke-linecap:round;stroke-linejoin:round;stroke-miterlimit:4;stroke-dasharray:none;stroke-dashoffset:0;stroke-opacity:1"
       id="rect821-8"
       width="508"
       height="265.86353"
       x="0.056067578"
       y="4.7287116" />
    <rect
       style="opacity:1;vector-effect:none;fill:#6a046b;fill-opacity:1;stroke:none;stroke-width:0.67748111;stroke-linecap:round;stroke-linejoin:round;stroke-miterlimit:4;stroke-dasharray:none;stroke-dashoffset:0;stroke-opacity:1"
       id="rect821"
       width="508"
       height="227.69742"
       x="0.056067578"
       y="4.7287116" />
    <rect
       style="opacity:1;vector-effect:none;fill:#6b0458;fill-opacity:1;stroke:none;stroke-width:0.58293194;stroke-linecap:round;stroke-linejoin:round;stroke-miterlimit:4;stroke-dasharray:none;stroke-dashoffset:0;stroke-opacity:1"
       id="rect821-0"
       width="508"
       height="168.57741"
       x="0.056067578"
       y="4.7287116" />
    <rect
       style="opacity:1;vector-effect:none;fill:#6b0447;fill-opacity:1;stroke:none;stroke-width:0.41370088;stroke-linecap:round;stroke-linejoin:round;stroke-miterlimit:4;stroke-dasharray:none;stroke-dashoffset:0;stroke-opacity:1"
       id="rect821-0-9"
       width="508"
       height="84.905655"
       x="0.056067578"
       y="4.7287116" />
    <path
       style="fill:#8e3d92;fill-opacity:1;stroke:none;stroke-width:0.49438283px;stroke-linecap:butt;stroke-linejoin:miter;stroke-opacity:1"
       d="m 316.19892,-11.631823 -20.51674,33.865304 2.89503,129.154729 -29.20965,-14.25908 -10.51699,35.64381 33.37066,119.6405 25.4611,4.20237 22.06041,-13.23656 45.9099,8.17214 18.66264,-19.45076 17.2608,0.0615 9.41653,7.40111 51.54104,7.63783 17.01825,-18.48356 -8.7912,-15.71173 0.36742,-20.18326 -20.55372,1.60606 22.11922,-104.66713 -8.40423,-42.764164 -34.60727,24.224954 -21.93628,55.61712 L 426.69373,61.042615 404.44629,19.761314 380.22178,58.076322 364.82155,183.65299 342.40143,19.267186 Z"
       id="path867"
       inkscape:connector-curvature="0"
       sodipodi:nodetypes="ccccccccccccccccccccccccccc" />
    <path
       style="fill:#681365;fill-opacity:1;stroke:none;stroke-width:0.25948098px;stroke-linecap:butt;stroke-linejoin:miter;stroke-opacity:1"
       d="m 273.3592,141.71681 8.04392,25.29939 20.10978,-12.32533 z"
       id="path947"
       inkscape:connector-curvature="0" />
    <path
       style="fill:#681365;fill-opacity:1;stroke:none;stroke-width:0.25948098px;stroke-linecap:butt;stroke-linejoin:miter;stroke-opacity:1"
       d="M 283.11253,171.82917 319.06881,292.40809 337.60036,281.30748 304.6577,157.93837 Z"
       id="path949"
       inkscape:connector-curvature="0"
       sodipodi:nodetypes="ccccc" />
    <path
       style="fill:#2e0b4c;fill-opacity:1;stroke:none;stroke-width:0.25948098px;stroke-linecap:butt;stroke-linejoin:miter;stroke-opacity:1"
       d="m 261.55283,169.80564 15.6986,-1.16766 -7.13573,-25.16968 z"
       id="path951"
       inkscape:connector-curvature="0"
       sodipodi:nodetypes="cccc" />
    <path
       style="fill:#2e0b4c;fill-opacity:1;stroke:none;stroke-width:0.25948098px;stroke-linecap:butt;stroke-linejoin:miter;stroke-opacity:1"
       d="m 261.96042,175.20974 16.39561,-1.28725 35.48972,119.40721 -19.82072,-3.26005 z"
       id="path953"
       inkscape:connector-curvature="0"
       sodipodi:nodetypes="ccccc" />
    <path
       style="fill:#dd48a3;fill-opacity:1;stroke:none;stroke-width:0.25948098px;stroke-linecap:butt;stroke-linejoin:miter;stroke-opacity:1"
       d="m 278.02986,147.16591 5.05989,14.27146 10.89819,-6.61677 z"
       id="path955"
       inkscape:connector-curvature="0" />
    <path
       style="fill:#9b418a;fill-opacity:1;stroke:none;stroke-width:0.25948098px;stroke-linecap:butt;stroke-linejoin:miter;stroke-opacity:1"
       d="m 287.09728,173.55841 32.84307,108.25365 V 225.85043 L 303.0601,162.73305 Z"
       id="path957"
       inkscape:connector-curvature="0"
       sodipodi:nodetypes="ccccc" />
    <path
       style="fill:#1e0a2e;fill-opacity:1;stroke:none;stroke-width:0.25948098px;stroke-linecap:butt;stroke-linejoin:miter;stroke-opacity:1"
       d="m 284.45188,248.9133 24.24624,36.45932 -20.112,-66.08102 -19.28073,-23.11225 z"
       id="path959"
       inkscape:connector-curvature="0"
       sodipodi:nodetypes="ccccc" />
    <path
       style="fill:#dd48a3;fill-opacity:1;stroke:none;stroke-width:0.25948098px;stroke-linecap:butt;stroke-linejoin:miter;stroke-opacity:1"
       d="m 287.09728,173.55841 8.55306,28.14154 10.98843,-25.41361 -3.57867,-13.55329 z"
       id="path961"
       inkscape:connector-curvature="0"
       sodipodi:nodetypes="ccccc" />
    <path
       style="fill:#2e0b4c;fill-opacity:1;stroke:none;stroke-width:0.25948098px;stroke-linecap:butt;stroke-linejoin:miter;stroke-opacity:1"
       d="m 299.3905,19.342873 15.32064,-2.935692 V -6.2526847 Z"
       id="path963"
       inkscape:connector-curvature="0" />
    <path
       style="fill:#681365;fill-opacity:1;stroke:none;stroke-width:0.25948098px;stroke-linecap:butt;stroke-linejoin:miter;stroke-opacity:1"
       d="m 318.28902,-6.1609467 0.82568,21.8342037 18.89851,1.100885 z"
       id="path965"
       inkscape:connector-curvature="0" />
    <path
       style="fill:#2e0b4c;fill-opacity:1;stroke:none;stroke-width:0.25948098px;stroke-linecap:butt;stroke-linejoin:miter;stroke-opacity:1"
       d="m 297.46981,24.157364 3.54695,127.476746 5.56333,2.94625 21.46092,77.74906 L 315.1541,21.521853 Z"
       id="path967"
       inkscape:connector-curvature="0"
       sodipodi:nodetypes="cccccc" />
    <path
       style="fill:#681365;fill-opacity:1;stroke:none;stroke-width:0.25948098px;stroke-linecap:butt;stroke-linejoin:miter;stroke-opacity:1"
       d="m 319.2694,21.452903 20.3034,0.733923 24.03598,168.251814 -31.01749,39.13513 z"
       id="path969"
       inkscape:connector-curvature="0"
       sodipodi:nodetypes="ccccc" />
    <path
       style="fill:#1e0a2e;fill-opacity:1;stroke:none;stroke-width:0.25948098px;stroke-linecap:butt;stroke-linejoin:miter;stroke-opacity:1"
       d="m 304.06925,114.93631 13.85282,14.58671 5.87136,74.86014 -12.47667,-51.37462 -7.70621,-3.30264 z"
       id="path971"
       inkscape:connector-curvature="0"
       sodipodi:nodetypes="cccccc" />
    <path
       style="fill:#9b418a;fill-opacity:1;stroke:none;stroke-width:0.25948098px;stroke-linecap:butt;stroke-linejoin:miter;stroke-opacity:1"
       d="m 333.16959,189.72081 23.7425,-29.19163 -20.1163,-135.533111 -13.40666,-0.594965 z"
       id="path973"
       inkscape:connector-curvature="0"
       sodipodi:nodetypes="ccccc" />
    <path
       style="fill:#dd48a3;fill-opacity:1;stroke:none;stroke-width:0.25948098px;stroke-linecap:butt;stroke-linejoin:miter;stroke-opacity:1"
       d="m 323.38913,24.401104 5.3621,78.744106 16.51328,-20.763007 -8.46872,-57.386136 z"
       id="path975"
       inkscape:connector-curvature="0"
       sodipodi:nodetypes="ccccc" />
    <path
       style="fill:#dd48a3;fill-opacity:1;stroke:none;stroke-width:0.25948098px;stroke-linecap:butt;stroke-linejoin:miter;stroke-opacity:1"
       d="M 322.0119,12.884559 332.65062,13.663001 321.49294,1.0781775 Z"
       id="path977"
       inkscape:connector-curvature="0"
       sodipodi:nodetypes="cccc" />
    <path
       style="fill:#1e0a2e;fill-opacity:1;stroke:none;stroke-width:0.25948098px;stroke-linecap:butt;stroke-linejoin:miter;stroke-opacity:1"
       d="m 303.68465,108.0335 12.95303,12.68243 -2.01827,-39.081331 -12.43218,-9.874573 z"
       id="path979"
       inkscape:connector-curvature="0"
       sodipodi:nodetypes="ccccc" />
    <path
       style="fill:#2e0b4c;fill-opacity:1;stroke:none;stroke-width:0.25948098px;stroke-linecap:butt;stroke-linejoin:miter;stroke-opacity:1"
       d="M 384.61732,55.305106 401.68103,27.59951 398.37838,54.662924 Z"
       id="path985"
       inkscape:connector-curvature="0" />
    <path
       style="fill:#681365;fill-opacity:1;stroke:none;stroke-width:0.25948098px;stroke-linecap:butt;stroke-linejoin:miter;stroke-opacity:1"
       d="m 405.44238,26.590363 -1.55959,28.439523 18.16461,3.486135 z"
       id="path987"
       inkscape:connector-curvature="0"
       sodipodi:nodetypes="cccc" />
    <path
       style="fill:#2e0b4c;fill-opacity:1;stroke:none;stroke-width:0.25948098px;stroke-linecap:butt;stroke-linejoin:miter;stroke-opacity:1"
       d="m 382.48504,60.59885 -14.77132,124.11817 23.41557,37.85637 7.43369,-161.666717 z"
       id="path989"
       inkscape:connector-curvature="0"
       sodipodi:nodetypes="ccccc" />
    <path
       style="fill:#681365;fill-opacity:1;stroke:none;stroke-width:0.25948098px;stroke-linecap:butt;stroke-linejoin:miter;stroke-opacity:1"
       d="m 403.11629,61.191113 -8.3077,161.660657 30.86659,-25.96905 -1.97915,-132.39547 z"
       id="path991"
       inkscape:connector-curvature="0"
       sodipodi:nodetypes="ccccc" />
    <path
       style="fill:#1e0a2e;fill-opacity:1;stroke:none;stroke-width:0.25948098px;stroke-linecap:butt;stroke-linejoin:miter;stroke-opacity:1"
       d="m 381.43306,94.361518 -10.89821,89.780452 17.6447,28.02394 4.02197,-121.177621 z"
       id="path995"
       inkscape:connector-curvature="0"
       sodipodi:nodetypes="ccccc" />
    <path
       style="fill:#9b418a;fill-opacity:1;stroke:none;stroke-width:0.25948098px;stroke-linecap:butt;stroke-linejoin:miter;stroke-opacity:1"
       d="m 406.54328,64.570886 -5.50442,108.895774 21.65072,-12.01799 -1.19262,-94.584274 z"
       id="path997"
       inkscape:connector-curvature="0"
       sodipodi:nodetypes="ccccc" />
    <path
       style="fill:#9b418a;fill-opacity:1;stroke:none;stroke-width:0.25948098px;stroke-linecap:butt;stroke-linejoin:miter;stroke-opacity:1"
       d="m 400.89413,179.21182 -0.51897,12.06587 22.05589,-14.79042 -0.12975,-8.82235 z"
       id="path999"
       inkscape:connector-curvature="0"
       sodipodi:nodetypes="ccccc" />
    <path
       style="fill:#9b418a;fill-opacity:1;stroke:none;stroke-width:0.25948098px;stroke-linecap:butt;stroke-linejoin:miter;stroke-opacity:1"
       d="m 333.8183,195.55914 0.90817,10.50897 23.87225,-29.58084 -1.16767,-9.34132 z"
       id="path1001"
       inkscape:connector-curvature="0"
       sodipodi:nodetypes="ccccc" />
    <path
       style="fill:#dd48a3;fill-opacity:1;stroke:none;stroke-width:0.25948098px;stroke-linecap:butt;stroke-linejoin:miter;stroke-opacity:1"
       d="m 406.54326,64.570884 -2.79805,54.126776 18.4398,2.38524 -0.68806,-54.218506 z"
       id="path1003"
       inkscape:connector-curvature="0"
       sodipodi:nodetypes="ccccc" />
    <path
       style="fill:#dd48a3;fill-opacity:1;stroke:none;stroke-width:0.25948098px;stroke-linecap:butt;stroke-linejoin:miter;stroke-opacity:1"
       d="m 406.73244,34.421485 -0.51897,18.423152 11.02797,2.010978 z"
       id="path1005"
       inkscape:connector-curvature="0" />
    <path
       style="fill:#681365;fill-opacity:1;stroke:none;stroke-width:0.25948098px;stroke-linecap:butt;stroke-linejoin:miter;stroke-opacity:1"
       d="m 334.98578,253.73952 -0.36697,-19.81594 32.47608,-40.36577 24.40296,35.22829 -24.21945,-26.97165 -27.33865,33.21003 z"
       id="path1007"
       inkscape:connector-curvature="0"
       sodipodi:nodetypes="ccccccc" />
    <path
       style="fill:#1e0a2e;fill-opacity:1;stroke:none;stroke-width:0.25948098px;stroke-linecap:butt;stroke-linejoin:miter;stroke-opacity:1"
       d="m 335.90316,257.95956 5.50443,20.54986 24.40294,4.77048 -21.65073,-8.44013 z"
       id="path1009"
       inkscape:connector-curvature="0" />
    <path
       style="fill:#2e0b4c;fill-opacity:1;stroke:none;stroke-width:0.25948098px;stroke-linecap:butt;stroke-linejoin:miter;stroke-opacity:1"
       d="m 435.47457,231.58787 33.89376,-109.81962 -18.52411,-7.29694 -22.78981,55.97189 0.6867,26.0241 z"
       id="path1011"
       inkscape:connector-curvature="0"
       sodipodi:nodetypes="cccccc" />
    <path
       style="fill:#2e0b4c;fill-opacity:1;stroke:none;stroke-width:0.25948098px;stroke-linecap:butt;stroke-linejoin:miter;stroke-opacity:1"
       d="m 455.07394,110.441 15.04543,5.22922 8.89879,-21.650744 z"
       id="path1013"
       inkscape:connector-curvature="0" />
    <path
       style="fill:#681365;fill-opacity:1;stroke:none;stroke-width:0.25948098px;stroke-linecap:butt;stroke-linejoin:miter;stroke-opacity:1"
       d="m 476.0825,118.05548 13.39408,7.24748 -5.6879,-30.274343 z"
       id="path1015"
       inkscape:connector-curvature="0"
       sodipodi:nodetypes="cccc" />
    <path
       style="fill:#681365;fill-opacity:1;stroke:none;stroke-width:0.25948098px;stroke-linecap:butt;stroke-linejoin:miter;stroke-opacity:1"
       d="m 466.5415,235.02448 -30.73305,10.45836 37.33834,-122.01469 16.88023,8.62359 z"
       id="path1017"
       inkscape:connector-curvature="0"
       sodipodi:nodetypes="ccccc" />
    <path
       style="fill:#dd48a3;fill-opacity:1;stroke:none;stroke-width:0.25948098px;stroke-linecap:butt;stroke-linejoin:miter;stroke-opacity:1"
       d="m 483.32996,103.92741 -4.1283,13.3024 7.064,3.30265 z"
       id="path1019"
       inkscape:connector-curvature="0" />
    <path
       style="fill:#9b418a;fill-opacity:1;stroke:none;stroke-width:0.25948098px;stroke-linecap:butt;stroke-linejoin:miter;stroke-opacity:1"
       d="m 444.72146,229.18417 31.03294,-100.05219 10.37924,5.31937 -12.58484,56.56687 z"
       id="path1021"
       inkscape:connector-curvature="0"
       sodipodi:nodetypes="ccccc" />
    <path
       style="fill:#1e0a2e;fill-opacity:1;stroke:none;stroke-width:0.25948098px;stroke-linecap:butt;stroke-linejoin:miter;stroke-opacity:1"
       d="m 430.39577,170.62272 1.10089,25.41208 5.32095,21.28377 20.73332,-68.43834 -19.83582,3.90439 z"
       id="path1023"
       inkscape:connector-curvature="0"
       sodipodi:nodetypes="cccccc" />
    <path
       style="fill:#dd48a3;fill-opacity:1;stroke:none;stroke-width:0.25948098px;stroke-linecap:butt;stroke-linejoin:miter;stroke-opacity:1"
       d="m 475.7544,129.13198 -9.16292,30.87825 14.70934,-3.76248 4.83282,-21.7964 z"
       id="path1029"
       inkscape:connector-curvature="0"
       sodipodi:nodetypes="ccccc" />
    <path
       style="fill:#681365;fill-opacity:1;stroke:none;stroke-width:0.25948098px;stroke-linecap:butt;stroke-linejoin:miter;stroke-opacity:1"
       d="m 392.86012,228.91585 32.2147,-26.36748 6.05489,32.10913 -8.99057,-23.30206 -25.22589,17.46218 21.73975,12.99563 0.55044,24.03599 -5.68791,-21.1003 -25.66485,-13.37556 9.43532,0.93506 z"
       id="path1031"
       inkscape:connector-curvature="0"
       sodipodi:nodetypes="ccccccccccc" />
    <path
       style="fill:#681365;fill-opacity:1;stroke:none;stroke-width:0.25948098px;stroke-linecap:butt;stroke-linejoin:miter;stroke-opacity:1"
       d="m 436.63764,248.10403 31.5918,-10.44411 20.17465,-2.20558 0.25949,17.19061 -3.82735,-13.16866 -16.02295,0.97305 z"
       id="path1033"
       inkscape:connector-curvature="0"
       sodipodi:nodetypes="ccccccc" />
    <path
       style="fill:#681365;fill-opacity:1;stroke:none;stroke-width:0.25948098px;stroke-linecap:butt;stroke-linejoin:miter;stroke-opacity:1"
       d="m 345.26068,233.00617 21.92597,-9.99969 22.38466,6.42182 -20.82508,-2.20177 z"
       id="path1039"
       inkscape:connector-curvature="0"
       sodipodi:nodetypes="ccccc" />
    <path
       style="fill:#2e0b4c;fill-opacity:1;stroke:none;stroke-width:0.25948098px;stroke-linecap:butt;stroke-linejoin:miter;stroke-opacity:1"
       d="m 349.9061,270.67889 2.98403,5.05986 28.02395,9.08185 2.33533,-23.74253 -7.91416,19.07187 -20.75849,-6.61677 z"
       id="path1041"
       inkscape:connector-curvature="0"
       sodipodi:nodetypes="ccccccc" />
    <path
       style="fill:#2e0b4c;fill-opacity:1;stroke:none;stroke-width:0.25948098px;stroke-linecap:butt;stroke-linejoin:miter;stroke-opacity:1"
       d="m 340.5648,247.97429 -1.81638,7.006 6.48703,13.88221 3.89221,-2.85427 5.4491,4.02195 18.81238,6.87625 7.91416,-18.03393 -32.17563,-11.28743 z"
       id="path1043"
       inkscape:connector-curvature="0"
       sodipodi:nodetypes="ccccccccc" />
    <path
       style="fill:#681365;fill-opacity:1;stroke:none;stroke-width:0.25948098px;stroke-linecap:butt;stroke-linejoin:miter;stroke-opacity:1"
       d="m 340.56479,239.93038 40.21956,11.15769 28.02395,-6.09782 -21.02848,-9.66438 -20.35874,-1.36355 z"
       id="path1051"
       inkscape:connector-curvature="0"
       sodipodi:nodetypes="cccccc" />
    <path
       style="fill:#dd48a3;fill-opacity:1;stroke:none;stroke-width:0.25948098px;stroke-linecap:butt;stroke-linejoin:miter;stroke-opacity:1"
       d="m 344.39214,241.00074 39.76546,13.07135 24.6507,-9.08184 -18.68263,-1.94611 -7.00599,4.41119 z"
       id="path1045"
       inkscape:connector-curvature="0"
       sodipodi:nodetypes="cccccc" />
    <path
       style="fill:#dd48a3;fill-opacity:1;stroke:none;stroke-width:0.25948098px;stroke-linecap:butt;stroke-linejoin:miter;stroke-opacity:1"
       d="m 386.93467,258.54689 -1.85323,26.96625 17.14927,-16.30702 15.03164,0.094 -7.09398,-20.41097 z"
       id="path1047"
       inkscape:connector-curvature="0"
       sodipodi:nodetypes="cccccc" />
    <path
       style="fill:#9b418a;fill-opacity:1;stroke:none;stroke-width:0.25948098px;stroke-linecap:butt;stroke-linejoin:miter;stroke-opacity:1"
       d="m 349.77636,226.5671 18.42316,-7.65469 c 0,0 16.73652,5.77345 16.21755,5.77345 -0.51896,0 -12.00099,-9.92514 -12.00099,-9.92514 l -6.22753,-1.16767 -5.4491,2.65969 z"
       id="path1053"
       inkscape:connector-curvature="0"
       sodipodi:nodetypes="ccscccc" />
    <path
       style="fill:#dd48a3;fill-opacity:1;stroke:none;stroke-width:0.25948098px;stroke-linecap:butt;stroke-linejoin:miter;stroke-opacity:1"
       d="m 354.43473,222.18081 12.84366,-12.10973 11.19232,9.90796 -10.27493,-4.58701 z"
       id="path1049"
       inkscape:connector-curvature="0" />
    <path
       style="fill:#1e0a2e;fill-opacity:1;stroke:none;stroke-width:0.25948098px;stroke-linecap:butt;stroke-linejoin:miter;stroke-opacity:1"
       d="m 422.56078,266.52715 10.37925,10.11976 29.97005,4.80039 -28.02394,-7.39519 -0.25948,-7.26549 4.54092,-7.13573 -7.52496,5.57885 -0.12974,6.22754 z"
       id="path1083"
       inkscape:connector-curvature="0" />
    <path
       style="opacity:1;fill:#681365;fill-opacity:1;stroke:none;stroke-width:0.25948098px;stroke-linecap:butt;stroke-linejoin:miter;stroke-opacity:1"
       d="m 402.13974,228.91739 13.85281,3.39442 11.65101,1.3761 -8.99056,-13.57758 z"
       id="path1087"
       inkscape:connector-curvature="0" />
    <path
       style="fill:#9b418a;fill-opacity:1;stroke:none;stroke-width:0.25948098px;stroke-linecap:butt;stroke-linejoin:miter;stroke-opacity:1"
       d="m 402.13974,228.91739 17.33892,-11.8345 8.1649,16.60502 -9.81622,-11.46756 z"
       id="path1085"
       inkscape:connector-curvature="0" />
    <path
       style="fill:#dd48a3;fill-opacity:1;stroke:none;stroke-width:0.25731492px;stroke-linecap:butt;stroke-linejoin:miter;stroke-opacity:1"
       d="m 420.87332,240.14639 6.56155,-3.47376 0.12865,15.05293 -2.95912,3.3451 -3.08778,7.97675 z"
       id="path877"
       inkscape:connector-curvature="0" />
    <path
       style="fill:#dd48a3;fill-opacity:1;stroke:none;stroke-width:0.25731492px;stroke-linecap:butt;stroke-linejoin:miter;stroke-opacity:1"
       d="m 408.00758,233.58485 10.42126,4.50301 5.91825,-2.57314 z"
       id="path879"
       inkscape:connector-curvature="0" />
    <path
       style="fill:#2e0b4c;fill-opacity:1;stroke:none;stroke-width:0.25731492px;stroke-linecap:butt;stroke-linejoin:miter;stroke-opacity:1"
       d="m 428.85009,267.80774 1.92986,-6.17556 14.15233,-11.70783 -14.28098,2.95912 -3.73107,4.11703 -2.31583,6.81886 z"
       id="path881"
       inkscape:connector-curvature="0" />
    <path
       style="fill:#681365;fill-opacity:1;stroke:none;stroke-width:0.25731492px;stroke-linecap:butt;stroke-linejoin:miter;stroke-opacity:1"
       d="m 448.7166,250.90449 16.9213,-0.90974 12.91837,31.65913 -15.64761,-25.10897 -19.46857,-1.8195 z"
       id="path887"
       inkscape:connector-curvature="0" />
    <path
       style="fill:#dd48a3;fill-opacity:1;stroke:none;stroke-width:0.25731492px;stroke-linecap:butt;stroke-linejoin:miter;stroke-opacity:1"
       d="m 470.00466,250.54059 12.5545,-6.00432 13.75467,23.38883 -13.78966,15.0283 z"
       id="path889"
       inkscape:connector-curvature="0"
       sodipodi:nodetypes="ccccc" />
    <path
       style="fill:#2e0b4c;fill-opacity:1;stroke:none;stroke-width:0.25731492px;stroke-linecap:butt;stroke-linejoin:miter;stroke-opacity:1"
       d="m 443.80399,257.77308 -5.82237,9.50684 0.50038,5.0036 35.98043,9.14294 -14.10106,-21.78841 z"
       id="path891"
       inkscape:connector-curvature="0"
       sodipodi:nodetypes="cccccc" />
    <path
       style="fill:#681365;fill-opacity:1;stroke:none;stroke-width:0.25731492px;stroke-linecap:butt;stroke-linejoin:miter;stroke-opacity:1"
       d="m 448.7166,247.72038 20.8332,-1.00072 11.0989,-5.0036 -12.82742,0.72779 z"
       id="path893"
       inkscape:connector-curvature="0" />
    <g
       aria-label="              has all your design  and production needs."
       transform="matrix(0.22814647,0,0,0.22814647,57.711613,-212.87372)"
       style="font-style:normal;font-variant:normal;font-weight:normal;font-stretch:normal;font-size:40px;line-height:1.25;font-family:Montserrat;-inkscape-font-specification:Montserrat;letter-spacing:0px;word-spacing:0px;opacity:1;fill:#ffffff;fill-opacity:1;stroke:none"
       id="flowRoot895">
      <path
         d="m 396.8596,1404.3326 q 5.38667,0 8.53333,3.1467 3.2,3.0933 3.2,9.12 v 16.2667 h -5.12 v -15.68 q 0,-4.1067 -1.97333,-6.1867 -1.97333,-2.08 -5.65333,-2.08 -4.16,0 -6.56,2.4533 -2.4,2.4 -2.4,6.9334 v 14.56 h -5.12 v -39.5734 h 5.12 v 15.3067 q 1.6,-2.0267 4.16,-3.1467 2.61333,-1.12 5.81333,-1.12 z"
         style="font-size:53.33333588px"
         id="path924" />
      <path
         d="m 428.37959,1404.3326 q 5.86667,0 8.96,2.88 3.14667,2.88 3.14667,8.5867 v 17.0667 h -4.85333 v -3.7334 q -1.28,1.9734 -3.68,3.04 -2.34667,1.0134 -5.6,1.0134 -4.74667,0 -7.62667,-2.2934 -2.82667,-2.2933 -2.82667,-6.0266 0,-3.7334 2.72,-5.9734 2.72,-2.2933 8.64,-2.2933 h 8.10667 v -1.0133 q 0,-3.3067 -1.92,-5.0667 -1.92,-1.76 -5.65333,-1.76 -2.50667,0 -4.90667,0.8533 -2.4,0.8 -4.05333,2.1867 l -2.13334,-3.84 q 2.18667,-1.76 5.22667,-2.6667 3.04,-0.96 6.45333,-0.96 z m -1.17333,24.9067 q 2.93333,0 5.06667,-1.28 2.13333,-1.3333 3.09333,-3.7333 v -3.9467 h -7.89333 q -6.50667,0 -6.50667,4.3733 0,2.1334 1.65333,3.36 1.65334,1.2267 4.58667,1.2267 z"
         style="font-size:53.33333588px"
         id="path926" />
      <path
         d="m 458.08624,1433.186 q -3.46667,0 -6.66667,-0.9067 -3.2,-0.96 -5.01333,-2.4 l 2.13333,-4.0533 q 1.86667,1.3333 4.53333,2.1333 2.66667,0.8 5.38667,0.8 6.72,0 6.72,-3.84 0,-1.28 -0.90667,-2.0267 -0.90666,-0.7466 -2.29333,-1.0666 -1.33333,-0.3734 -3.84,-0.8 -3.41333,-0.5334 -5.6,-1.2267 -2.13333,-0.6933 -3.68,-2.3467 -1.54667,-1.6533 -1.54667,-4.64 0,-3.84 3.2,-6.1333 3.2,-2.3467 8.58667,-2.3467 2.82667,0 5.65333,0.6934 2.82667,0.6933 4.64,1.8666 l -2.18666,4.0534 q -3.46667,-2.24 -8.16,-2.24 -3.25334,0 -4.96,1.0666 -1.70667,1.0667 -1.70667,2.8267 0,1.3867 0.96,2.1867 0.96,0.8 2.34667,1.1733 1.44,0.3733 4,0.8533 3.41333,0.5867 5.49333,1.28 2.13333,0.64 3.62667,2.24 1.49333,1.6 1.49333,4.48 0,3.84 -3.30667,6.1334 -3.25333,2.24 -8.90666,2.24 z"
         style="font-size:53.33333588px"
         id="path928" />
      <path
         d="m 501.33951,1404.3326 q 5.86666,0 8.96,2.88 3.14667,2.88 3.14667,8.5867 v 17.0667 h -4.85334 v -3.7334 q -1.28,1.9734 -3.68,3.04 -2.34667,1.0134 -5.6,1.0134 -4.74667,0 -7.62667,-2.2934 -2.82666,-2.2933 -2.82666,-6.0266 0,-3.7334 2.72,-5.9734 2.72,-2.2933 8.64,-2.2933 h 8.10666 v -1.0133 q 0,-3.3067 -1.92,-5.0667 -1.92,-1.76 -5.65333,-1.76 -2.50667,0 -4.90667,0.8533 -2.4,0.8 -4.05333,2.1867 l -2.13333,-3.84 q 2.18666,-1.76 5.22666,-2.6667 3.04,-0.96 6.45334,-0.96 z m -1.17334,24.9067 q 2.93334,0 5.06667,-1.28 2.13333,-1.3333 3.09333,-3.7333 v -3.9467 h -7.89333 q -6.50667,0 -6.50667,4.3733 0,2.1334 1.65334,3.36 1.65333,1.2267 4.58666,1.2267 z"
         style="font-size:53.33333588px"
         id="path930" />
      <path
         d="m 522.93948,1393.2926 h 5.12 v 39.5734 h -5.12 z"
         style="font-size:53.33333588px"
         id="path932" />
      <path
         d="m 537.81943,1393.2926 h 5.12 v 39.5734 h -5.12 z"
         style="font-size:53.33333588px"
         id="path934" />
      <path
         d="m 592.05936,1404.5993 -13.70667,31.0933 q -1.81333,4.32 -4.26667,6.08 -2.4,1.76 -5.81333,1.76 -2.08,0 -4.05334,-0.6933 -1.92,-0.64 -3.2,-1.92 l 2.18667,-3.84 q 2.18667,2.08 5.06667,2.08 1.86667,0 3.09333,-1.0133 1.28,-0.96 2.29334,-3.36 l 0.90666,-1.9734 -12.48,-28.2133 h 5.33333 l 9.86667,22.6133 9.76,-22.6133 z"
         style="font-size:53.33333588px"
         id="path936" />
      <path
         d="m 608.16584,1433.186 q -4.21333,0 -7.57333,-1.8667 -3.36,-1.8667 -5.28,-5.12 -1.86667,-3.3067 -1.86667,-7.4667 0,-4.16 1.86667,-7.4133 1.92,-3.3067 5.28,-5.12 3.36,-1.8667 7.57333,-1.8667 4.21334,0 7.52,1.8667 3.36,1.8133 5.22667,5.12 1.92,3.2533 1.92,7.4133 0,4.16 -1.92,7.4667 -1.86667,3.2533 -5.22667,5.12 -3.30666,1.8667 -7.52,1.8667 z m 0,-4.48 q 2.72,0 4.85334,-1.2267 2.18666,-1.28 3.41333,-3.52 1.22667,-2.2933 1.22667,-5.2267 0,-2.9333 -1.22667,-5.1733 -1.22667,-2.2933 -3.41333,-3.52 -2.13334,-1.2267 -4.85334,-1.2267 -2.72,0 -4.90667,1.2267 -2.13333,1.2267 -3.41333,3.52 -1.22667,2.24 -1.22667,5.1733 0,2.9334 1.22667,5.2267 1.28,2.24 3.41333,3.52 2.18667,1.2267 4.90667,1.2267 z"
         style="font-size:53.33333588px"
         id="path938" />
      <path
         d="m 656.27242,1404.5993 v 28.2667 h -4.85333 v -4.2667 q -1.54667,2.1867 -4.10667,3.4133 -2.50667,1.1734 -5.49333,1.1734 -5.65334,0 -8.90667,-3.0934 -3.25333,-3.1466 -3.25333,-9.2266 v -16.2667 h 5.12 v 15.68 q 0,4.1067 1.97333,6.24 1.97333,2.08 5.65333,2.08 4.05334,0 6.4,-2.4533 2.34667,-2.4534 2.34667,-6.9334 v -14.6133 z"
         style="font-size:53.33333588px"
         id="path940" />
      <path
         d="m 670.93899,1409.346 q 1.33333,-2.4534 3.94666,-3.7334 2.61334,-1.28 6.34667,-1.28 v 4.96 q -0.42667,-0.053 -1.17333,-0.053 -4.16,0 -6.56,2.5067 -2.34667,2.4533 -2.34667,7.04 v 14.08 h -5.12 v -28.2667 h 4.90667 z"
         style="font-size:53.33333588px"
         id="path942" />
      <path
         d="m 728.91227,1393.2926 v 39.5734 h -4.90666 v -4.48 q -1.70667,2.3466 -4.32,3.5733 -2.61334,1.2267 -5.76,1.2267 -4.10667,0 -7.36,-1.8134 -3.25334,-1.8133 -5.12,-5.0666 -1.81334,-3.3067 -1.81334,-7.5734 0,-4.2666 1.81334,-7.52 1.86666,-3.2533 5.12,-5.0666 3.25333,-1.8134 7.36,-1.8134 3.04,0 5.6,1.1734 2.56,1.12 4.26666,3.36 v -15.5734 z m -14.56,35.4134 q 2.66667,0 4.85334,-1.2267 2.18666,-1.28 3.41333,-3.52 1.22667,-2.2933 1.22667,-5.2267 0,-2.9333 -1.22667,-5.1733 -1.22667,-2.2933 -3.41333,-3.52 -2.18667,-1.2267 -4.85334,-1.2267 -2.72,0 -4.90666,1.2267 -2.13334,1.2267 -3.41334,3.52 -1.22666,2.24 -1.22666,5.1733 0,2.9334 1.22666,5.2267 1.28,2.24 3.41334,3.52 2.18666,1.2267 4.90666,1.2267 z"
         style="font-size:53.33333588px"
         id="path944" />
      <path
         d="m 764.16557,1418.8926 q 0,0.5867 -0.10667,1.5467 h -22.93334 q 0.48,3.7333 3.25334,6.0267 2.82666,2.24 6.98666,2.24 5.06667,0 8.16001,-3.4134 l 2.82666,3.3067 q -1.92,2.24 -4.8,3.4133 -2.82667,1.1734 -6.34667,1.1734 -4.48,0 -7.94666,-1.8134 -3.46667,-1.8666 -5.38667,-5.1733 -1.86667,-3.3067 -1.86667,-7.4667 0,-4.1066 1.81334,-7.4133 1.86666,-3.3067 5.06666,-5.12 3.25334,-1.8667 7.30667,-1.8667 4.05333,0 7.2,1.8667 3.2,1.8133 4.96,5.12 1.81334,3.3067 1.81334,7.5733 z m -13.97334,-10.24 q -3.68,0 -6.18667,2.24 -2.45333,2.24 -2.88,5.8667 h 18.13334 q -0.42667,-3.5733 -2.93333,-5.8133 -2.45334,-2.2934 -6.13334,-2.2934 z"
         style="font-size:53.33333588px"
         id="path946" />
      <path
         d="m 779.36552,1433.186 q -3.46667,0 -6.66667,-0.9067 -3.2,-0.96 -5.01333,-2.4 l 2.13333,-4.0533 q 1.86667,1.3333 4.53333,2.1333 2.66667,0.8 5.38667,0.8 6.72,0 6.72,-3.84 0,-1.28 -0.90666,-2.0267 -0.90667,-0.7466 -2.29334,-1.0666 -1.33333,-0.3734 -3.84,-0.8 -3.41333,-0.5334 -5.6,-1.2267 -2.13333,-0.6933 -3.68,-2.3467 -1.54667,-1.6533 -1.54667,-4.64 0,-3.84 3.2,-6.1333 3.2,-2.3467 8.58667,-2.3467 2.82667,0 5.65334,0.6934 2.82666,0.6933 4.64,1.8666 l -2.18667,4.0534 q -3.46667,-2.24 -8.16,-2.24 -3.25334,0 -4.96,1.0666 -1.70667,1.0667 -1.70667,2.8267 0,1.3867 0.96,2.1867 0.96,0.8 2.34667,1.1733 1.44,0.3733 4,0.8533 3.41333,0.5867 5.49333,1.28 2.13334,0.64 3.62667,2.24 1.49333,1.6 1.49333,4.48 0,3.84 -3.30666,6.1334 -3.25334,2.24 -8.90667,2.24 z"
         style="font-size:53.33333588px"
         id="path948" />
      <path
         d="m 797.97882,1404.5993 h 5.12 v 28.2667 h -5.12 z m 2.56,-5.44 q -1.49333,0 -2.50666,-0.96 -0.96,-0.96 -0.96,-2.3467 0,-1.3866 0.96,-2.3466 1.01333,-1.0134 2.50666,-1.0134 1.49334,0 2.45334,0.96 1.01333,0.9067 1.01333,2.2934 0,1.44 -1.01333,2.4533 -0.96,0.96 -2.45334,0.96 z"
         style="font-size:53.33333588px"
         id="path950" />
      <path
         d="m 839.89883,1404.5993 v 24.4267 q 0,7.4133 -3.68,10.9333 -3.68,3.5733 -10.98667,3.5733 -4,0 -7.62667,-1.12 -3.62666,-1.0666 -5.86666,-3.0933 l 2.45333,-3.9467 q 1.97333,1.7067 4.85333,2.6667 2.93334,1.0133 6.02667,1.0133 4.96,0 7.30667,-2.3466 2.4,-2.3467 2.4,-7.1467 v -2.24 q -1.81334,2.1867 -4.48,3.3067 -2.61334,1.0666 -5.70667,1.0666 -4.05333,0 -7.36,-1.7066 -3.25333,-1.76 -5.12,-4.8534 -1.86667,-3.1466 -1.86667,-7.1466 0,-4 1.86667,-7.0934 1.86667,-3.1466 5.12,-4.8533 3.30667,-1.7067 7.36,-1.7067 3.2,0 5.92,1.1734 2.77333,1.1733 4.53333,3.4666 v -4.3733 z m -14.72,22.6133 q 2.77333,0 4.96,-1.1733 2.24,-1.1733 3.46666,-3.2533 1.28,-2.1334 1.28,-4.8 0,-4.1067 -2.72,-6.6134 -2.72,-2.56 -6.98666,-2.56 -4.32,0 -7.04,2.56 -2.72,2.5067 -2.72,6.6134 0,2.6666 1.22666,4.8 1.28,2.08 3.46667,3.2533 2.24,1.1733 5.06667,1.1733 z"
         style="font-size:53.33333588px"
         id="path952" />
      <path
         d="m 864.75209,1404.3326 q 5.38666,0 8.53333,3.1467 3.2,3.0933 3.2,9.12 v 16.2667 h -5.12 v -15.68 q 0,-4.1067 -1.97333,-6.1867 -1.97334,-2.08 -5.65334,-2.08 -4.16,0 -6.56,2.4533 -2.4,2.4 -2.4,6.9334 v 14.56 h -5.12 v -28.2667 h 4.90667 v 4.2667 q 1.54667,-2.1867 4.16,-3.36 2.66667,-1.1734 6.02667,-1.1734 z"
         style="font-size:53.33333588px"
         id="path954" />
      <path
         d="m 241.4201,1470.9993 q 5.86667,0 8.96001,2.88 3.14666,2.88 3.14666,8.5866 v 17.0667 h -4.85333 v -3.7333 q -1.28,1.9733 -3.68,3.04 -2.34667,1.0133 -5.6,1.0133 -4.74667,0 -7.62667,-2.2933 -2.82667,-2.2934 -2.82667,-6.0267 0,-3.7333 2.72,-5.9733 2.72,-2.2934 8.64,-2.2934 h 8.10667 v -1.0133 q 0,-3.3067 -1.92,-5.0667 -1.92,-1.76 -5.65333,-1.76 -2.50667,0 -4.90667,0.8534 -2.4,0.8 -4.05333,2.1866 l -2.13334,-3.84 q 2.18667,-1.76 5.22667,-2.6666 3.04,-0.96 6.45333,-0.96 z m -1.17333,24.9066 q 2.93333,0 5.06667,-1.28 2.13333,-1.3333 3.09333,-3.7333 v -3.9467 h -7.89333 q -6.50667,0 -6.50667,4.3734 0,2.1333 1.65333,3.36 1.65334,1.2266 4.58667,1.2266 z"
         style="font-size:53.33333588px"
         id="path956" />
      <path
         d="m 278.11342,1470.9993 q 5.38666,0 8.53333,3.1466 3.2,3.0934 3.2,9.12 v 16.2667 h -5.12 v -15.68 q 0,-4.1067 -1.97333,-6.1867 -1.97334,-2.08 -5.65334,-2.08 -4.16,0 -6.56,2.4534 -2.4,2.4 -2.4,6.9333 v 14.56 h -5.12 v -28.2667 h 4.90667 v 4.2667 q 1.54667,-2.1867 4.16,-3.36 2.66667,-1.1733 6.02667,-1.1733 z"
         style="font-size:53.33333588px"
         id="path958" />
      <path
         d="m 326.16665,1459.9593 v 39.5733 h -4.90666 v -4.48 q -1.70667,2.3467 -4.32,3.5733 -2.61334,1.2267 -5.76,1.2267 -4.10667,0 -7.36,-1.8133 -3.25334,-1.8134 -5.12,-5.0667 -1.81334,-3.3067 -1.81334,-7.5733 0,-4.2667 1.81334,-7.52 1.86666,-3.2534 5.12,-5.0667 3.25333,-1.8133 7.36,-1.8133 3.04,0 5.6,1.1733 2.56,1.12 4.26666,3.36 v -15.5733 z m -14.56,35.4133 q 2.66667,0 4.85334,-1.2267 2.18666,-1.28 3.41333,-3.52 1.22667,-2.2933 1.22667,-5.2266 0,-2.9334 -1.22667,-5.1734 -1.22667,-2.2933 -3.41333,-3.52 -2.18667,-1.2266 -4.85334,-1.2266 -2.72,0 -4.90666,1.2266 -2.13334,1.2267 -3.41334,3.52 -1.22666,2.24 -1.22666,5.1734 0,2.9333 1.22666,5.2266 1.28,2.24 3.41334,3.52 2.18666,1.2267 4.90666,1.2267 z"
         style="font-size:53.33333588px"
         id="path960" />
      <path
         d="m 365.20656,1470.9993 q 4.10667,0 7.36,1.8133 3.25334,1.8133 5.06667,5.0667 1.86667,3.2533 1.86667,7.52 0,4.2666 -1.86667,7.5733 -1.81333,3.2533 -5.06667,5.0667 -3.25333,1.8133 -7.36,1.8133 -3.04,0 -5.6,-1.1733 -2.50666,-1.1734 -4.26666,-3.4134 v 14.6134 h -5.12 v -38.6134 h 4.90666 v 4.48 q 1.70667,-2.3466 4.32,-3.52 2.61334,-1.2266 5.76,-1.2266 z m -0.42666,24.3733 q 2.72,0 4.85333,-1.2267 2.18667,-1.28 3.41333,-3.52 1.28,-2.2933 1.28,-5.2266 0,-2.9334 -1.28,-5.1734 -1.22666,-2.2933 -3.41333,-3.52 -2.13333,-1.2266 -4.85333,-1.2266 -2.66667,0 -4.85334,1.28 -2.13333,1.2266 -3.41333,3.4666 -1.22667,2.24 -1.22667,5.1734 0,2.9333 1.22667,5.2266 1.22667,2.24 3.41333,3.52 2.18667,1.2267 4.85334,1.2267 z"
         style="font-size:53.33333588px"
         id="path962" />
      <path
         d="m 391.49985,1476.0126 q 1.33334,-2.4533 3.94667,-3.7333 2.61333,-1.28 6.34667,-1.28 v 4.96 q -0.42667,-0.053 -1.17334,-0.053 -4.16,0 -6.56,2.5067 -2.34666,2.4533 -2.34666,7.04 v 14.08 h -5.12 v -28.2667 h 4.90666 z"
         style="font-size:53.33333588px"
         id="path964" />
      <path
         d="m 419.92646,1499.8526 q -4.21333,0 -7.57333,-1.8667 -3.36,-1.8666 -5.28,-5.12 -1.86667,-3.3066 -1.86667,-7.4666 0,-4.16 1.86667,-7.4134 1.92,-3.3066 5.28,-5.12 3.36,-1.8666 7.57333,-1.8666 4.21334,0 7.52,1.8666 3.36,1.8134 5.22667,5.12 1.92,3.2534 1.92,7.4134 0,4.16 -1.92,7.4666 -1.86667,3.2534 -5.22667,5.12 -3.30666,1.8667 -7.52,1.8667 z m 0,-4.48 q 2.72,0 4.85334,-1.2267 2.18666,-1.28 3.41333,-3.52 1.22667,-2.2933 1.22667,-5.2266 0,-2.9334 -1.22667,-5.1734 -1.22667,-2.2933 -3.41333,-3.52 -2.13334,-1.2266 -4.85334,-1.2266 -2.72,0 -4.90666,1.2266 -2.13334,1.2267 -3.41334,3.52 -1.22667,2.24 -1.22667,5.1734 0,2.9333 1.22667,5.2266 1.28,2.24 3.41334,3.52 2.18666,1.2267 4.90666,1.2267 z"
         style="font-size:53.33333588px"
         id="path966" />
      <path
         d="m 468.35304,1459.9593 v 39.5733 h -4.90667 v -4.48 q -1.70666,2.3467 -4.32,3.5733 -2.61333,1.2267 -5.76,1.2267 -4.10666,0 -7.36,-1.8133 -3.25333,-1.8134 -5.12,-5.0667 -1.81333,-3.3067 -1.81333,-7.5733 0,-4.2667 1.81333,-7.52 1.86667,-3.2534 5.12,-5.0667 3.25334,-1.8133 7.36,-1.8133 3.04,0 5.6,1.1733 2.56,1.12 4.26667,3.36 v -15.5733 z m -14.56,35.4133 q 2.66667,0 4.85333,-1.2267 2.18667,-1.28 3.41334,-3.52 1.22666,-2.2933 1.22666,-5.2266 0,-2.9334 -1.22666,-5.1734 -1.22667,-2.2933 -3.41334,-3.52 -2.18666,-1.2266 -4.85333,-1.2266 -2.72,0 -4.90667,1.2266 -2.13333,1.2267 -3.41333,3.52 -1.22667,2.24 -1.22667,5.1734 0,2.9333 1.22667,5.2266 1.28,2.24 3.41333,3.52 2.18667,1.2267 4.90667,1.2267 z"
         style="font-size:53.33333588px"
         id="path968" />
      <path
         d="m 504.40633,1471.2659 v 28.2667 H 499.553 v -4.2667 q -1.54667,2.1867 -4.10667,3.4134 -2.50667,1.1733 -5.49333,1.1733 -5.65334,0 -8.90667,-3.0933 -3.25333,-3.1467 -3.25333,-9.2267 v -16.2667 h 5.12 v 15.68 q 0,4.1067 1.97333,6.24 1.97333,2.08 5.65333,2.08 4.05334,0 6.4,-2.4533 2.34667,-2.4533 2.34667,-6.9333 v -14.6134 z"
         style="font-size:53.33333588px"
         id="path970" />
      <path
         d="m 526.48623,1499.8526 q -4.32,0 -7.73333,-1.8667 -3.36,-1.8666 -5.28,-5.12 -1.92,-3.3066 -1.92,-7.4666 0,-4.16 1.92,-7.4134 1.92,-3.3066 5.28,-5.12 3.41333,-1.8666 7.73333,-1.8666 3.84,0 6.82667,1.5466 3.04,1.5467 4.69333,4.48 l -3.89333,2.5067 q -1.33334,-2.0267 -3.30667,-3.04 -1.97333,-1.0133 -4.37333,-1.0133 -2.77334,0 -5.01334,1.2266 -2.18666,1.2267 -3.46666,3.52 -1.22667,2.24 -1.22667,5.1734 0,2.9866 1.22667,5.28 1.28,2.24 3.46666,3.4666 2.24,1.2267 5.01334,1.2267 2.4,0 4.37333,-1.0133 1.97333,-1.0134 3.30667,-3.04 l 3.89333,2.4533 q -1.65333,2.9333 -4.69333,4.5333 -2.98667,1.5467 -6.82667,1.5467 z"
         style="font-size:53.33333588px"
         id="path972" />
      <path
         d="m 560.88619,1497.8793 q -1.12,0.96 -2.77333,1.4933 -1.65333,0.48 -3.41333,0.48 -4.26667,0 -6.61334,-2.2933 -2.34666,-2.2934 -2.34666,-6.56 v -15.52 h -4.8 v -4.2134 h 4.8 v -6.1866 h 5.12 v 6.1866 h 8.10666 v 4.2134 h -8.10666 v 15.3066 q 0,2.2934 1.12,3.52 1.17333,1.2267 3.30666,1.2267 2.34667,0 4,-1.3333 z"
         style="font-size:53.33333588px"
         id="path974" />
      <path
         d="m 567.07282,1471.2659 h 5.12 v 28.2667 h -5.12 z m 2.56,-5.44 q -1.49334,0 -2.50667,-0.96 -0.96,-0.96 -0.96,-2.3466 0,-1.3867 0.96,-2.3467 1.01333,-1.0133 2.50667,-1.0133 1.49333,0 2.45333,0.96 1.01333,0.9066 1.01333,2.2933 0,1.44 -1.01333,2.4533 -0.96,0.96 -2.45333,0.96 z"
         style="font-size:53.33333588px"
         id="path976" />
      <path
         d="m 594.05946,1499.8526 q -4.21334,0 -7.57334,-1.8667 -3.36,-1.8666 -5.28,-5.12 -1.86666,-3.3066 -1.86666,-7.4666 0,-4.16 1.86666,-7.4134 1.92,-3.3066 5.28,-5.12 3.36,-1.8666 7.57334,-1.8666 4.21333,0 7.52,1.8666 3.36,1.8134 5.22666,5.12 1.92,3.2534 1.92,7.4134 0,4.16 -1.92,7.4666 -1.86666,3.2534 -5.22666,5.12 -3.30667,1.8667 -7.52,1.8667 z m 0,-4.48 q 2.72,0 4.85333,-1.2267 2.18667,-1.28 3.41333,-3.52 1.22667,-2.2933 1.22667,-5.2266 0,-2.9334 -1.22667,-5.1734 -1.22666,-2.2933 -3.41333,-3.52 -2.13333,-1.2266 -4.85333,-1.2266 -2.72,0 -4.90667,1.2266 -2.13333,1.2267 -3.41333,3.52 -1.22667,2.24 -1.22667,5.1734 0,2.9333 1.22667,5.2266 1.28,2.24 3.41333,3.52 2.18667,1.2267 4.90667,1.2267 z"
         style="font-size:53.33333588px"
         id="path978" />
      <path
         d="m 630.9127,1470.9993 q 5.38667,0 8.53334,3.1466 3.2,3.0934 3.2,9.12 v 16.2667 h -5.12 v -15.68 q 0,-4.1067 -1.97334,-6.1867 -1.97333,-2.08 -5.65333,-2.08 -4.16,0 -6.56,2.4534 -2.4,2.4 -2.4,6.9333 v 14.56 h -5.12 v -28.2667 h 4.90666 v 4.2667 q 1.54667,-2.1867 4.16,-3.36 2.66667,-1.1733 6.02667,-1.1733 z"
         style="font-size:53.33333588px"
         id="path980" />
      <path
         d="m 681.5793,1470.9993 q 5.38666,0 8.53333,3.1466 3.2,3.0934 3.2,9.12 v 16.2667 h -5.12 v -15.68 q 0,-4.1067 -1.97333,-6.1867 -1.97334,-2.08 -5.65334,-2.08 -4.16,0 -6.56,2.4534 -2.4,2.4 -2.4,6.9333 v 14.56 h -5.12 v -28.2667 h 4.90667 v 4.2667 q 1.54667,-2.1867 4.16,-3.36 2.66667,-1.1733 6.02667,-1.1733 z"
         style="font-size:53.33333588px"
         id="path982" />
      <path
         d="m 728.51255,1485.5593 q 0,0.5866 -0.10667,1.5466 h -22.93333 q 0.48,3.7334 3.25333,6.0267 2.82667,2.24 6.98667,2.24 5.06667,0 8.16,-3.4133 l 2.82667,3.3066 q -1.92,2.24 -4.8,3.4134 -2.82667,1.1733 -6.34667,1.1733 -4.48,0 -7.94667,-1.8133 -3.46666,-1.8667 -5.38666,-5.1734 -1.86667,-3.3066 -1.86667,-7.4666 0,-4.1067 1.81333,-7.4134 1.86667,-3.3066 5.06667,-5.12 3.25333,-1.8666 7.30667,-1.8666 4.05333,0 7.2,1.8666 3.2,1.8134 4.96,5.12 1.81333,3.3067 1.81333,7.5734 z m -13.97333,-10.24 q -3.68,0 -6.18667,2.24 -2.45333,2.24 -2.88,5.8666 h 18.13333 q -0.42666,-3.5733 -2.93333,-5.8133 -2.45333,-2.2933 -6.13333,-2.2933 z"
         style="font-size:53.33333588px"
         id="path984" />
      <path
         d="m 761.1525,1485.5593 q 0,0.5866 -0.10666,1.5466 H 738.1125 q 0.48,3.7334 3.25334,6.0267 2.82666,2.24 6.98666,2.24 5.06667,0 8.16,-3.4133 l 2.82667,3.3066 q -1.92,2.24 -4.8,3.4134 -2.82667,1.1733 -6.34667,1.1733 -4.48,0 -7.94666,-1.8133 -3.46667,-1.8667 -5.38667,-5.1734 -1.86667,-3.3066 -1.86667,-7.4666 0,-4.1067 1.81334,-7.4134 1.86666,-3.3066 5.06666,-5.12 3.25334,-1.8666 7.30667,-1.8666 4.05333,0 7.2,1.8666 3.2,1.8134 4.96,5.12 1.81333,3.3067 1.81333,7.5734 z m -13.97333,-10.24 q -3.68,0 -6.18667,2.24 -2.45333,2.24 -2.88,5.8666 h 18.13334 q -0.42667,-3.5733 -2.93334,-5.8133 -2.45333,-2.2933 -6.13333,-2.2933 z"
         style="font-size:53.33333588px"
         id="path986" />
      <path
         d="m 794.91252,1459.9593 v 39.5733 h -4.90667 v -4.48 q -1.70667,2.3467 -4.32,3.5733 -2.61333,1.2267 -5.76,1.2267 -4.10667,0 -7.36,-1.8133 -3.25333,-1.8134 -5.12,-5.0667 -1.81333,-3.3067 -1.81333,-7.5733 0,-4.2667 1.81333,-7.52 1.86667,-3.2534 5.12,-5.0667 3.25333,-1.8133 7.36,-1.8133 3.04,0 5.6,1.1733 2.56,1.12 4.26667,3.36 v -15.5733 z m -14.56,35.4133 q 2.66666,0 4.85333,-1.2267 2.18667,-1.28 3.41333,-3.52 1.22667,-2.2933 1.22667,-5.2266 0,-2.9334 -1.22667,-5.1734 -1.22666,-2.2933 -3.41333,-3.52 -2.18667,-1.2266 -4.85333,-1.2266 -2.72,0 -4.90667,1.2266 -2.13333,1.2267 -3.41333,3.52 -1.22667,2.24 -1.22667,5.1734 0,2.9333 1.22667,5.2266 1.28,2.24 3.41333,3.52 2.18667,1.2267 4.90667,1.2267 z"
         style="font-size:53.33333588px"
         id="path988" />
      <path
         d="m 812.72581,1499.8526 q -3.46667,0 -6.66667,-0.9067 -3.2,-0.96 -5.01333,-2.4 l 2.13333,-4.0533 q 1.86667,1.3333 4.53334,2.1333 2.66666,0.8 5.38666,0.8 6.72,0 6.72,-3.84 0,-1.28 -0.90666,-2.0266 -0.90667,-0.7467 -2.29334,-1.0667 -1.33333,-0.3733 -3.84,-0.8 -3.41333,-0.5333 -5.6,-1.2267 -2.13333,-0.6933 -3.68,-2.3466 -1.54667,-1.6534 -1.54667,-4.64 0,-3.84 3.20001,-6.1334 3.2,-2.3466 8.58666,-2.3466 2.82667,0 5.65334,0.6933 2.82666,0.6933 4.64,1.8667 l -2.18667,4.0533 q -3.46667,-2.24 -8.16,-2.24 -3.25333,0 -4.96,1.0667 -1.70667,1.0666 -1.70667,2.8266 0,1.3867 0.96,2.1867 0.96,0.8 2.34667,1.1733 1.44,0.3734 4,0.8534 3.41333,0.5866 5.49333,1.28 2.13334,0.64 3.62667,2.24 1.49333,1.6 1.49333,4.48 0,3.84 -3.30666,6.1333 -3.25334,2.24 -8.90667,2.24 z"
         style="font-size:53.33333588px"
         id="path990" />
      <path
         d="m 832.56578,1499.8526 q -1.49333,0 -2.56,-1.0133 -1.06667,-1.0667 -1.06667,-2.6667 0,-1.5467 1.06667,-2.56 1.06667,-1.0667 2.56,-1.0667 1.49333,0 2.50667,1.0134 1.01333,1.0133 1.01333,2.6133 0,1.6 -1.06667,2.6667 -1.01333,1.0133 -2.45333,1.0133 z"
         style="font-size:53.33333588px"
         id="path992" />
    </g>
    <g
       aria-label="Wendy Moo"
       transform="matrix(0.44373656,0,0,0.44373656,-16.942202,-244.4127)"
       style="font-style:normal;font-variant:normal;font-weight:normal;font-stretch:normal;font-size:40px;line-height:1.25;font-family:Montserrat;-inkscape-font-specification:Montserrat;letter-spacing:0px;word-spacing:0px;fill:#ffffff;fill-opacity:1;stroke:none"
       id="flowRoot909">
      <path
         d="m 151.76,780.76374 -9.36,28 h -4.2 l -7.64,-22.36 -7.64,22.36 h -4.28 l -9.36,-28 h 4.12 l 7.56,22.76 7.88,-22.76 h 3.68 l 7.72,22.88 7.72,-22.88 z"
         style=""
         id="path996" />
      <path
         d="m 173.63997,798.28374 q 0,0.44 -0.08,1.16 h -17.2 q 0.36,2.8 2.44,4.52 2.12,1.68 5.24,1.68 3.8,0 6.12,-2.56 l 2.12,2.48 q -1.44,1.68 -3.6,2.56 -2.12,0.88 -4.76,0.88 -3.36,0 -5.96,-1.36 -2.6,-1.4 -4.04,-3.88 -1.4,-2.48 -1.4,-5.6 0,-3.08 1.36,-5.56 1.4,-2.48 3.8,-3.84 2.44,-1.4 5.48,-1.4 3.04,0 5.4,1.4 2.4,1.36 3.72,3.84 1.36,2.48 1.36,5.68 z m -10.48,-7.68 q -2.76,0 -4.64,1.68 -1.84,1.68 -2.16,4.4 h 13.6 q -0.32,-2.68 -2.2,-4.36 -1.84,-1.72 -4.6,-1.72 z"
         style=""
         id="path998" />
      <path
         d="m 190.27995,787.36374 q 4.04,0 6.4,2.36 2.4,2.32 2.4,6.84 v 12.2 h -3.84 v -11.76 q 0,-3.08 -1.48,-4.64 -1.48,-1.56 -4.24,-1.56 -3.12,0 -4.92,1.84 -1.8,1.8 -1.8,5.2 v 10.92 h -3.84 v -21.2 h 3.68 v 3.2 q 1.16,-1.64 3.12,-2.52 2,-0.88 4.52,-0.88 z"
         style=""
         id="path1000" />
      <path
         d="m 226.31987,779.08374 v 29.68 h -3.68 v -3.36 q -1.28,1.76 -3.24,2.68 -1.96,0.92 -4.32,0.92 -3.08,0 -5.52,-1.36 -2.44,-1.36 -3.84,-3.8 -1.36,-2.48 -1.36,-5.68 0,-3.2 1.36,-5.64 1.4,-2.44 3.84,-3.8 2.44,-1.36 5.52,-1.36 2.28,0 4.2,0.88 1.92,0.84 3.2,2.52 v -11.68 z m -10.92,26.56 q 2,0 3.64,-0.92 1.64,-0.96 2.56,-2.64 0.92,-1.72 0.92,-3.92 0,-2.2 -0.92,-3.88 -0.92,-1.72 -2.56,-2.64 -1.64,-0.92 -3.64,-0.92 -2.04,0 -3.68,0.92 -1.6,0.92 -2.56,2.64 -0.92,1.68 -0.92,3.88 0,2.2 0.92,3.92 0.96,1.68 2.56,2.64 1.64,0.92 3.68,0.92 z"
         style=""
         id="path1002" />
      <path
         d="m 252.35984,787.56374 -10.28,23.32 q -1.36,3.24 -3.2,4.56 -1.8,1.32 -4.36,1.32 -1.56,0 -3.04,-0.52 -1.44,-0.48 -2.4,-1.44 l 1.64,-2.88 q 1.64,1.56 3.8,1.56 1.4,0 2.32,-0.76 0.96,-0.72 1.72,-2.52 l 0.68,-1.48 -9.36,-21.16 h 4 l 7.4,16.96 7.32,-16.96 z"
         style=""
         id="path1004" />
      <path
         d="m 293.23973,808.76374 -0.04,-20.4 -10.12,17 h -1.84 l -10.12,-16.88 v 20.28 h -3.84 v -28 h 3.28 l 11.68,19.68 11.52,-19.68 h 3.28 l 0.04,28 z"
         style=""
         id="path1006" />
      <path
         d="m 313.99972,809.00374 q -3.16,0 -5.68,-1.4 -2.52,-1.4 -3.96,-3.84 -1.4,-2.48 -1.4,-5.6 0,-3.12 1.4,-5.56 1.44,-2.48 3.96,-3.84 2.52,-1.4 5.68,-1.4 3.16,0 5.64,1.4 2.52,1.36 3.92,3.84 1.44,2.44 1.44,5.56 0,3.12 -1.44,5.6 -1.4,2.44 -3.92,3.84 -2.48,1.4 -5.64,1.4 z m 0,-3.36 q 2.04,0 3.64,-0.92 1.64,-0.96 2.56,-2.64 0.92,-1.72 0.92,-3.92 0,-2.2 -0.92,-3.88 -0.92,-1.72 -2.56,-2.64 -1.6,-0.92 -3.64,-0.92 -2.04,0 -3.68,0.92 -1.6,0.92 -2.56,2.64 -0.92,1.68 -0.92,3.88 0,2.2 0.92,3.92 0.96,1.68 2.56,2.64 1.64,0.92 3.68,0.92 z"
         style=""
         id="path1008" />
      <path
         d="m 339.39966,809.00374 q -3.16,0 -5.68,-1.4 -2.52,-1.4 -3.96,-3.84 -1.4,-2.48 -1.4,-5.6 0,-3.12 1.4,-5.56 1.44,-2.48 3.96,-3.84 2.52,-1.4 5.68,-1.4 3.16,0 5.64,1.4 2.52,1.36 3.92,3.84 1.44,2.44 1.44,5.56 0,3.12 -1.44,5.6 -1.4,2.44 -3.92,3.84 -2.48,1.4 -5.64,1.4 z m 0,-3.36 q 2.04,0 3.64,-0.92 1.64,-0.96 2.56,-2.64 0.92,-1.72 0.92,-3.92 0,-2.2 -0.92,-3.88 -0.92,-1.72 -2.56,-2.64 -1.6,-0.92 -3.64,-0.92 -2.04,0 -3.68,0.92 -1.6,0.92 -2.56,2.64 -0.92,1.68 -0.92,3.88 0,2.2 0.92,3.92 0.96,1.68 2.56,2.64 1.64,0.92 3.68,0.92 z"
         style=""
         id="path1010" />
    </g>
  </g>
</svg>
