<?xml version="1.0" encoding="UTF-8" standalone="no"?>
<!-- Created with Inkscape (http://www.inkscape.org/) -->

<svg
   xmlns:dc="http://purl.org/dc/elements/1.1/"
   xmlns:cc="http://creativecommons.org/ns#"
   xmlns:rdf="http://www.w3.org/1999/02/22-rdf-syntax-ns#"
   xmlns:svg="http://www.w3.org/2000/svg"
   xmlns="http://www.w3.org/2000/svg"
   xmlns:sodipodi="http://sodipodi.sourceforge.net/DTD/sodipodi-0.dtd"
   xmlns:inkscape="http://www.inkscape.org/namespaces/inkscape"
   version="1.1"
   id="svg1420"
   width="5in"
   height="3.5in"
   viewBox="0 0 480 336"
   sodipodi:docname="wendy_moo_logo.svg"
   inkscape:version="0.92.5 (2060ec1f9f, 2020-04-08)">
  <metadata
     id="metadata1426">
    <rdf:RDF>
      <cc:Work
         rdf:about="">
        <dc:format>image/svg+xml</dc:format>
        <dc:type
           rdf:resource="http://purl.org/dc/dcmitype/StillImage" />
        <dc:title></dc:title>
      </cc:Work>
    </rdf:RDF>
  </metadata>
  <defs
     id="defs1424" />
  <sodipodi:namedview
     pagecolor="#ffffff"
     bordercolor="#666666"
     borderopacity="1"
     objecttolerance="10"
     gridtolerance="10"
     guidetolerance="10"
     inkscape:pageopacity="0"
     inkscape:pageshadow="2"
     inkscape:window-width="1848"
     inkscape:window-height="1016"
     id="namedview1422"
     showgrid="false"
     inkscape:zoom="0.7083257"
     inkscape:cx="33.124105"
     inkscape:cy="199.25336"
     inkscape:window-x="1752"
     inkscape:window-y="27"
     inkscape:window-maximized="1"
     inkscape:current-layer="svg1420"
     showguides="true"
     inkscape:guide-bbox="true"
     units="in" />
  <g
     id="g819"
     transform="translate(9.0589,-149.41256)">
    <path
       sodipodi:nodetypes="cscsccccssccccsscccsccscccsccsscscccccccccccccccccscccccccccccsccccccccccccccscscccccsccccccsccccccc"
       inkscape:connector-curvature="0"
       id="path839-3"
       d="m 61.067348,167.73433 c -7.095688,0.0957 -11.011038,3.53317 -13.609371,6.30161 -2.598333,2.76844 -4.21409,5.67711 -5.422011,8.87843 -2.415815,6.40265 -3.019637,14.42429 0.272545,22.53645 1.097744,2.70489 2.58289,5.16172 4.300444,7.32582 -1.827829,2.66203 -3.780877,5.57966 -5.786851,8.7102 -8.474291,13.2249 -18.059054,29.61521 -22.062863,46.50567 -1.824477,7.69666 -4.31409,18.95262 -3.109388,31.25635 0.602367,6.15189 2.184694,12.81461 6.258239,19.06087 4.07354,6.24626 10.998823,11.56044 19.04777,13.86964 11.044428,3.1686 22.179801,0.91044 30.562269,-3.49592 3.498595,-1.83906 6.617683,-3.99654 9.45409,-6.31354 1.54898,3.13561 3.86275,6.32346 6.79939,9.09396 l -37.815504,99.11326 c -2.048937,5.37016 -2.214897,12.49538 0.816754,18.16842 3.031645,5.67308 8.264725,8.98409 13.181653,10.29284 9.83386,2.61746 22.141327,-1.99313 26.567447,-13.26735 l 20.537239,-52.31363 1.51283,3.99899 c 1.8391,4.86156 6.09561,9.63458 12.22528,11.35987 1.9302,0.54329 3.94681,0.69351 5.93119,0.53337 l -10.8526,27.81803 c -2.16121,5.53979 -1.55991,14.36526 2.97366,19.71437 4.53353,5.3491 10.23022,6.83309 15.01122,7.00157 6.08925,0.21455 12.40987,-1.99278 17.22154,-6.39838 2.24078,-0.16195 4.41846,-0.81526 6.37836,-1.91358 0,0 26.23722,-14.885 67.8188,-20.32116 13.2861,-1.73695 51.13564,1.6691 51.13564,1.6691 4.92874,0.52958 9.80871,-1.36089 13.09435,-5.07267 8.71677,5.67341 19.22167,8.24786 29.09337,7.54997 21.40926,-1.51359 37.23533,-15.43093 49.0113,-29.95935 11.77594,-14.52848 20.47575,-30.91099 26.99653,-42.28921 8.22933,-14.35949 19.15843,-41.46822 28.99907,-66.46365 9.84064,-24.99544 17.9596,-46.97788 17.9596,-46.97788 0.3723,-1.0081 0.63742,-2.05264 0.79089,-3.11631 0,0 0.49626,-15.0687 -10.95135,-20.86733 -5.49731,-2.78459 -12.64607,-2.62938 -17.00263,-0.85656 -4.35659,1.77287 -7.3862,5.23071 -7.3862,5.23071 -0.49242,0.57029 -0.94033,1.17565 -1.34209,1.80954 l -12.40884,5.57135 c -0.008,-0.0113 -0.0139,-0.0231 -0.0208,-0.0339 -5.85464,-9.16085 -12.76262,-9.01748 -18.30306,-8.86204 -2.7794,0.078 -5.69814,0.53746 -8.57809,1.65189 7.88638,-19.1479 15.83998,-36.42614 15.83998,-36.42614 3.36063,-7.10027 0.79986,-15.59187 -5.9259,-19.65041 0,0 -5.34594,-3.01139 -11.3432,-2.94807 -2.34642,0.0248 -4.98052,0.43243 -7.59918,1.36099 -0.29239,0.10363 -0.58154,0.21611 -0.86712,0.33732 -6.77404,2.87665 -8.22858,6.03446 -10.32339,8.88426 -2.09478,2.84981 -3.84378,5.80762 -5.52714,8.8637 -3.36666,6.11213 -6.3582,12.60437 -8.31694,16.83081 -2.05263,4.42908 -4.71388,10.47637 -7.14672,16.06132 -10.20485,-1.18363 -23.158,2.92218 -34.43196,13.87048 -1.03696,1.00704 -2.01631,2.03288 -2.9692,3.06629 -0.88276,-2.10342 -2.05277,-4.2221 -3.59103,-6.33944 -4.09913,-5.64223 -12.06331,-10.8376 -20.92433,-11.13152 -4.95374,-0.16437 -9.04024,0.69349 -12.55486,1.95968 -0.43108,-0.28248 -0.86282,-0.54522 -1.28563,-0.75391 -2.83722,-1.40028 -6.31032,-2.20747 -9.91988,-2.25114 -3.84263,-0.0466 -7.43674,0.89361 -10.11763,2.21056 -2.68085,1.31692 -5.47512,4.01233 -5.47512,4.01233 -0.61967,0.67583 -1.17734,1.40598 -1.66631,2.18164 -3.05156,-2.7803 -6.54113,-4.45802 -9.58286,-5.47288 -5.07084,-1.69189 -9.6931,-2.0207 -14.34183,-1.53505 -0.0203,0.003 -0.0396,0.005 -0.0598,0.009 2.8783,-2.46345 5.22028,-5.29992 6.89198,-8.2313 2.32243,-4.07235 3.72862,-8.32319 3.91282,-13.1975 0.18418,-4.87431 -0.75798,-11.73 -7.32752,-16.87865 -3.48452,-2.73088 -12.21049,-4.02964 -16.68454,-1.94721 -2.11445,0.98414 -3.45362,1.9507 -4.38636,2.81791 -0.63684,-0.74923 -1.41612,-1.56798 -2.40355,-2.46447 -4.09729,-3.7198 -14.20974,-5.48754 -19.55723,-3.33321 -7.80397,3.14393 -12.41275,9.43936 -15.22788,15.11302 -2.81517,5.67362 -4.39024,11.46919 -5.77213,17.51824 -2.76376,12.0981 -4.53496,25.37544 -7.49741,36.92869 -3.29399,12.84596 -9.62871,27.7053 -15.70677,36.65943 -0.50797,1.18553 -0.0844,-2.15396 -0.0701,-2.34903 0.38448,-5.21398 0.97456,-10.84721 0.4252,-17.14367 -0.27468,-3.14824 -0.78539,-6.57055 -2.57542,-10.47332 -1.79004,-3.90275 -5.52151,-8.46332 -10.64685,-10.77476 -6.958569,-3.13817 -15.372839,-0.84041 -19.594489,1.93139 -4.22166,2.7718 -6.65173,5.73938 -9.019147,8.75966 -4.734917,6.04061 -8.724679,12.79548 -12.798454,18.75355 -2.229186,3.2603 -4.494982,6.13595 -6.45651,8.37176 0.189817,-1.28764 0.42042,-2.64224 0.737791,-4.09272 2.132851,-9.74757 7.027721,-22.42285 12.090696,-31.73578 5.252995,-9.66251 12.799744,-19.82812 19.157064,-28.78249 3.17865,-4.47717 6.05954,-8.59204 8.43069,-12.99672 2.371169,-4.40469 6.547899,-9.35993 2.881909,-19.72466 -0.66673,-1.8847 -1.696239,-3.62054 -3.030389,-5.10939 -4.10483,-4.58083 -13.07575,-7.36098 -18.33974,-6.39815 -0.950074,0.17381 -1.770251,0.3773 -2.534578,0.59015 -0.293856,-0.86724 -0.696427,-1.84646 -1.362925,-3.03321 -1.534215,-2.73172 -5.484142,-6.73078 -10.372638,-7.92536 -1.464688,-0.35789 -2.94034,-0.5096 -4.332412,-0.49087 z M 370.58823,247.1794 c 0.009,0.0139 -0.0248,0.11446 -0.12069,0.28421 -0.0153,0.0268 -0.0589,0.10024 -0.0759,0.12987 0.10395,-0.26661 0.18568,-0.43077 0.19661,-0.41408 z"
       style="color:#000000;font-style:normal;font-variant:normal;font-weight:normal;font-stretch:normal;font-size:medium;line-height:normal;font-family:sans-serif;font-variant-ligatures:normal;font-variant-position:normal;font-variant-caps:normal;font-variant-numeric:normal;font-variant-alternates:normal;font-feature-settings:normal;text-indent:0;text-align:start;text-decoration:none;text-decoration-line:none;text-decoration-style:solid;text-decoration-color:#000000;letter-spacing:normal;word-spacing:normal;text-transform:none;writing-mode:lr-tb;direction:ltr;text-orientation:mixed;dominant-baseline:auto;baseline-shift:baseline;text-anchor:start;white-space:normal;shape-padding:0;clip-rule:nonzero;display:inline;overflow:visible;visibility:visible;opacity:1;isolation:auto;mix-blend-mode:normal;color-interpolation:sRGB;color-interpolation-filters:linearRGB;solid-color:#000000;solid-opacity:1;vector-effect:none;fill:#854279;fill-opacity:1;fill-rule:nonzero;stroke:none;stroke-width:30.60490227;stroke-linecap:round;stroke-linejoin:round;stroke-miterlimit:4;stroke-dasharray:none;stroke-dashoffset:0;stroke-opacity:1;color-rendering:auto;image-rendering:auto;shape-rendering:auto;text-rendering:auto;enable-background:accumulate" />
    <path
       sodipodi:nodetypes="ccscscc"
       inkscape:connector-curvature="0"
       id="path992"
       d="m 223.18537,411.52121 c 21.06685,-3.24274 55.43036,0.32606 55.43036,0.32606 0,0 1.88602,2.45626 1.95632,3.91274 0.073,1.5121 -1.63028,4.23879 -1.63028,4.23879 0,0 -36.66489,-3.99835 -54.77823,-1.63027 -44.39973,5.80459 -73.36368,22.17212 -73.36368,22.17212 20.52603,-19.22419 48.27222,-25.54483 72.38551,-29.01944 z"
       style="fill:#f67ee0;fill-opacity:1;stroke:none;stroke-width:0.14238414px;stroke-linecap:butt;stroke-linejoin:miter;stroke-opacity:1" />
    <path
       inkscape:connector-curvature="0"
       id="path839-35"
       d="m 108.37087,314.33633 c -0.8406,0.0115 -1.65674,0.48907 -1.96807,1.3051 l -2.6964,7.06664 c -0.0534,-0.009 -0.10723,-0.0187 -0.16074,-0.0274 L 60.971421,434.26671 c -0.876813,2.29806 -0.740301,4.20298 0.02407,5.63361 0.764531,1.43065 2.146727,2.37736 3.72146,2.79653 3.149494,0.8383 7.108214,-0.42582 8.577275,-4.16781 l 34.894954,-88.88497 15.41392,40.74579 c 0.41679,1.10176 1.21268,1.87391 2.16468,2.14188 0.95202,0.26796 2.04952,0.0224 3.03511,-0.85318 l 32.56011,-28.92711 -30.51222,78.21119 c -0.72813,1.86634 -0.46267,3.38051 0.41852,4.42029 0.88126,1.03976 2.34934,1.6012 3.99261,1.65909 3.28658,0.1158 7.31819,-1.78915 8.90459,-6.11915 l 41.71104,-113.85031 c 0.19854,-0.5419 -0.0425,-1.22578 -0.56732,-1.59265 -0.52479,-0.3669 -1.34406,-0.36921 -2.22366,0.40515 l -51.47129,45.31628 -18.37008,-48.52991 c -0.0533,0.01 -0.10647,0.02 -0.15989,0.0292 l -2.60074,-6.87059 c -0.40837,-1.04986 -1.27317,-1.50496 -2.11379,-1.49363 z m 110.84883,10.50694 c -13.45338,0.17516 -27.39903,11.38839 -34.50533,27.85556 -4.50873,10.44782 -5.5343,21.2287 -3.54071,30.22269 1.99359,8.99401 7.01375,16.20826 14.59436,19.47967 7.58065,3.27145 16.27371,1.97519 24.1853,-2.74424 7.91159,-4.71941 15.05183,-12.86144 19.56056,-23.30927 4.50873,-10.44787 5.53433,-21.2287 3.5407,-30.22271 -1.99362,-8.99399 -7.01395,-16.20831 -14.59464,-19.47965 -2.48211,-1.07118 -5.15367,-1.67141 -7.94016,-1.78424 -0.43271,-0.0176 -0.86608,-0.0234 -1.30008,-0.0179 z m 68.06325,0.003 c -13.45341,0.1752 -27.39906,11.3884 -34.50536,27.8556 -4.5087,10.4478 -5.53427,21.2287 -3.54072,30.22271 1.99359,8.99399 7.01379,16.20821 14.5944,19.47963 7.22002,3.1158 15.44844,2.08543 23.05036,-2.09683 -0.15724,-0.70236 -0.29032,-1.41962 -0.39487,-2.15327 -0.491,-3.44576 -0.53436,-7.15653 -0.11432,-10.86235 -2.46134,2.24004 -5.01886,3.97121 -7.54661,5.13278 -5.54603,2.54852 -10.92366,2.37363 -14.8822,-1.09904 -3.95852,-3.4727 -5.75762,-9.62066 -5.43118,-16.76739 0.3264,-7.14675 2.77648,-15.28083 7.27384,-22.69278 6.12651,-10.09694 14.79343,-16.63529 22.36404,-16.95398 0.19827,-0.009 0.39518,-0.0121 0.59066,-0.0121 2.93236,0.003 5.54407,0.96466 7.66232,2.82293 3.95852,3.47273 5.75758,9.62069 5.43118,16.76742 -0.12033,2.63413 -0.53012,5.40257 -1.22363,8.21935 3.43884,-1.46906 7.74492,-1.79994 10.96387,-0.37767 0.82276,-5.70842 0.64563,-11.22942 -0.4569,-16.20342 -1.99362,-8.99401 -7.01398,-16.20829 -14.59467,-19.47967 -2.4821,-1.07108 -5.15366,-1.6712 -7.94013,-1.78396 -0.4327,-0.0176 -0.86611,-0.0234 -1.30008,-0.0179 z m -66.6027,10.05284 c 2.93237,0.003 5.54407,0.96469 7.66233,2.82293 3.95858,3.4727 5.7576,9.62059 5.43117,16.76742 -0.32639,7.14678 -2.77642,15.28104 -7.27383,22.69302 -4.49737,7.41191 -10.18879,12.69384 -15.73483,15.24233 -5.54603,2.54849 -10.9237,2.37343 -14.88221,-1.09931 -3.95858,-3.47263 -5.7578,-9.62038 -5.43144,-16.76711 0.32635,-7.14676 2.77651,-15.28105 7.27383,-22.69306 6.12658,-10.09707 14.79364,-16.63545 22.36432,-16.95398 0.1983,-0.009 0.39518,-0.0121 0.59066,-0.0121 z m 85.55564,35.56989 c -0.84702,-0.0129 -1.72496,0.1946 -2.62216,0.77145 -6.70021,4.3077 -9.6815,14.51177 -7.96822,22.55622 4.77526,-4.57893 8.9351,-10.5024 11.93162,-17.44626 0.7158,-1.65867 1.34311,-3.32562 1.88518,-4.99261 -1.00134,-0.45324 -2.08483,-0.87146 -3.22642,-0.8888 z"
       style="opacity:1;vector-effect:none;fill:#f67ee0;fill-opacity:1;stroke:none;stroke-width:0.26287451;stroke-linecap:square;stroke-linejoin:miter;stroke-miterlimit:4;stroke-dasharray:none;stroke-dashoffset:0;stroke-opacity:1" />
    <path
       inkscape:connector-curvature="0"
       id="path816"
       d="m 58.13933,181.17191 c -0.918517,0.0122 -1.882838,0.57756 -2.768707,1.52142 -0.885875,0.9439 -1.696754,2.27455 -2.294845,3.85967 -1.196183,3.17029 -1.540084,7.36317 0.136,11.49308 2.097422,5.16816 5.279054,7.26596 7.934023,8.05054 1.97337,0.5832 3.652575,0.44543 4.388602,0.33651 -0.655167,0.83871 -7.419237,9.5451 -15.091063,21.51781 -8.061774,12.58122 -16.915298,28.48673 -20.077552,41.82699 -1.690983,7.13359 -3.658346,17.24264 -2.772878,26.28628 0.442748,4.52183 1.599193,8.77979 3.870523,12.26256 2.271291,3.48275 5.661237,6.18519 10.53755,7.58419 6.997931,2.00767 13.51667,0.71574 19.336975,-2.34378 5.820313,-3.0595 10.948979,-7.88288 15.2045,-12.95166 7.342103,-8.74524 11.863893,-17.78611 13.028993,-20.22662 -0.46586,2.51548 -1.74666,10.29683 -1.35932,18.8036 0.23332,5.12405 1.09102,10.3896 3.15387,14.66084 2.06284,4.27123 5.34573,7.55004 10.391519,8.64788 0.64625,0.14062 1.28747,0.25905 1.92469,0.35985 a 0.15492945,0.15492945 0 0 0 0.16908,-0.0979 l 2.69613,-7.06665 c 0.28639,-0.75054 1.04243,-1.19495 1.82569,-1.20554 0.78327,-0.0109 1.58017,0.39982 1.96723,1.39492 l 2.60017,6.8695 a 0.15492945,0.15492945 0 0 0 0.17132,0.0979 c 12.82037,-2.2019 23.73692,-13.65665 33.17828,-34.53762 1.39561,0.65195 3.05873,1.23013 5.03017,1.5971 7.16176,1.3331 11.37354,0.46135 11.97417,0.32286 -0.0743,0.31717 -0.55588,2.39064 -0.9836,5.25986 -0.46158,3.09625 -0.81607,6.89124 -0.36986,9.72246 1.37887,8.74907 9.18996,13.39837 15.5599,14.42527 10.76008,1.73466 18.40913,-0.69602 27.77188,-6.69705 4.25064,-2.72447 8.01987,-6.57059 10.72997,-9.73607 1.35503,-1.58273 2.44487,-2.99541 3.1964,-4.01291 0.26115,-0.35357 0.42435,-0.58642 0.60067,-0.8351 -0.27302,0.89225 -0.72873,2.35612 -1.43551,4.42837 -1.61151,4.72494 -5.81159,15.25845 -5.81159,15.25845 a 0.15492945,0.15492945 0 0 0 0.004,0.12572 c 0,0 0.0621,0.12354 0.20496,0.29087 0.14292,0.16735 0.3719,0.38882 0.71943,0.61569 0.69507,0.45382 1.86336,0.92792 3.76513,1.04814 1.958,0.12379 3.20579,-0.35221 3.96062,-0.86957 0.75478,-0.51738 1.02282,-1.08849 1.02282,-1.08849 a 0.15492945,0.15492945 0 0 0 0.007,-0.016 c 0,0 4.86159,-14.57234 9.01359,-28.48934 3.37633,-11.31711 7.97592,-25.50102 14.66724,-31.89072 2.78076,-2.65541 5.89547,-5.0339 8.92987,-6.03184 3.0344,-0.99796 5.96791,-0.64363 8.51358,2.18164 1.19473,1.32594 1.97184,2.82327 1.89018,4.85025 -0.0817,2.02696 -1.03464,4.59712 -3.35575,8.02635 -8.72607,12.89192 -10.95291,26.40554 -9.91322,36.04571 1.12584,10.43921 5.89452,14.7801 10.8376,15.55074 8.45719,1.3185 13.73442,-1.72865 16.87113,-5.1072 2.36084,-2.54284 3.51769,-5.26886 3.94673,-6.46484 0.0582,0.34407 0.14116,0.78903 0.28005,1.34429 0.29806,1.19191 0.81434,2.77753 1.69108,4.35746 1.75342,3.15984 4.97437,6.29953 10.71548,6.14782 14.74134,-0.38954 23.83734,-11.62766 24.97871,-13.11409 0.11344,0.82017 0.54787,3.42102 1.87409,6.13503 1.58688,3.2475 4.45391,6.51138 9.46213,6.4565 13.95585,-0.15283 20.03317,-12.36789 21.48692,-15.84856 -0.0756,1.13411 -0.10187,3.06941 0.4191,5.33273 0.79782,3.46622 2.87427,7.50682 7.93569,9.73413 8.16517,3.5931 15.59272,0.85157 20.95216,-2.77648 4.0226,-2.72306 6.89531,-5.94871 8.07895,-7.38923 -0.89691,2.50937 -9.32569,25.90767 -16.49074,38.21593 -4.15749,7.14188 -10.73585,21.29912 -19.61227,34.44223 -8.87646,13.14311 -20.04733,25.25277 -33.33322,28.31608 -4.47775,1.03246 -9.91034,0.36047 -14.66362,-1.63435 -4.75323,-1.99481 -8.82121,-5.30915 -10.60425,-9.53 -1.73659,-4.11082 -1.9149,-9.31055 -0.70359,-14.08768 1.21132,-4.77712 3.80983,-9.12616 7.59335,-11.5587 1.7455,-1.12221 3.38966,-0.80871 4.91838,-0.20692 1.52869,0.60182 2.90027,1.51596 4.10107,1.50396 2.21173,-0.0221 3.54925,-1.46376 3.74534,-3.32965 0.19613,-1.86588 -0.70976,-4.1508 -2.8649,-5.94813 -2.04881,-1.70864 -4.96254,-2.30486 -7.8837,-2.08322 -2.92117,0.22165 -5.85607,1.26069 -7.96796,2.86162 -9.55432,7.24266 -13.09865,22.17352 -11.41243,34.00755 1.18831,8.33951 5.86151,14.68313 11.90632,18.81582 6.04483,4.13272 13.46074,6.06188 20.16295,5.58803 15.15893,-1.07167 27.79485,-11.41245 38.3119,-24.38773 10.51702,-12.97528 18.92504,-28.59748 25.62162,-40.28249 6.81005,-11.88296 18.27462,-39.65996 28.04663,-64.48108 9.77203,-24.82113 17.84501,-46.67724 17.84501,-46.67724 a 0.15492945,0.15492945 0 0 0 0.008,-0.0316 c 0,0 0.49093,-3.52147 -2.80428,-5.19063 -1.86915,-0.94678 -3.39936,-0.76606 -4.4481,-0.33929 -1.04879,0.42684 -1.63076,1.10047 -1.63076,1.10047 a 0.15492945,0.15492945 0 0 0 -0.0285,0.0483 c 0,0 -6.44935,17.78355 -15.92338,34.80598 -4.73703,8.51121 -10.23111,16.83094 -16.04158,22.63492 -5.81047,5.80396 -11.91506,9.0765 -17.89977,7.58361 -1.27318,-0.31757 -2.20994,-0.99775 -2.88523,-1.98334 -0.67533,-0.98564 -1.08499,-2.28209 -1.26979,-3.81963 -0.36959,-3.07508 0.16302,-7.10563 1.19191,-11.48362 2.05775,-8.75602 6.09106,-18.90522 8.76136,-25.72705 2.1795,-5.56806 4.26519,-8.74215 5.53517,-10.99027 0.63498,-1.12404 1.07041,-2.01901 1.20054,-2.87855 0.13012,-0.85953 -0.0592,-1.6755 -0.6413,-2.58628 -0.81892,-1.28138 -2.86131,-1.94062 -5.1144,-1.87741 -2.25315,0.0632 -4.73638,0.86402 -6.44708,2.6191 -0.70261,0.72086 -1.52933,2.2645 -2.50977,4.43057 -0.98048,2.16608 -2.10259,4.94832 -3.34383,8.11173 -2.48249,6.32686 -5.44031,14.17741 -8.67738,21.64906 -3.23704,7.4717 -6.75558,14.56533 -10.34563,19.36674 -1.79506,2.40075 -3.6086,4.22664 -5.39893,5.24265 -1.7903,1.01601 -3.54217,1.23114 -5.28572,0.43186 -0.85132,-0.39019 -1.47666,-1.07463 -1.92137,-2.01894 -0.44469,-0.94431 -0.70325,-2.14735 -0.80508,-3.54793 -0.20366,-2.80118 0.21761,-6.38787 0.95863,-10.27335 1.48195,-7.77095 4.23813,-16.73824 5.78016,-23.11906 6.66271,-27.57007 31.14238,-79.28992 31.14238,-79.28992 a 0.15492945,0.15492945 0 0 0 -0.0601,-0.19881 c 0,0 -1.3178,-0.79296 -3.35825,-0.77145 -0.79843,0.009 -1.70972,0.14069 -2.69725,0.49083 a 0.15492945,0.15492945 0 0 0 -0.009,0.003 c -1.23236,0.52331 -2.59321,1.94575 -4.03931,3.91304 -1.44608,1.96733 -2.96754,4.48362 -4.46396,7.20044 -2.99286,5.43362 -5.88427,11.66899 -7.84142,15.89197 -4.52653,9.76697 -12.83854,29.25634 -12.99923,29.63313 -0.42015,-0.4741 -3.29935,-3.56415 -8.41122,-4.70815 -5.52571,-1.23659 -13.5187,-0.052 -23.35908,9.50414 -18.46963,17.93625 -20.33717,42.35935 -20.34368,42.44523 -0.004,0.0173 -1.23157,5.70341 -3.9445,10.38123 -1.35851,2.34248 -3.08817,4.4228 -5.19673,5.41702 -2.10856,0.99419 -4.5994,0.93019 -7.57723,-1.05425 -1.73953,-1.15926 -2.75452,-3.06873 -3.25007,-5.4006 -0.49558,-2.33186 -0.46619,-5.07892 -0.1207,-7.87311 0.69093,-5.58845 2.64571,-11.36838 4.12275,-14.42113 2.33162,-4.81907 5.04112,-8.58743 7.07692,-12.50393 2.03581,-3.91654 3.39307,-7.98703 2.9948,-13.37273 -0.20655,-2.79308 -1.16387,-6.14888 -3.12941,-8.85423 -1.9655,-2.70533 -4.95184,-4.75559 -9.17153,-4.89555 -4.61401,-0.15307 -9.96514,2.30699 -14.1753,4.7946 -3.8585,2.27988 -6.47733,4.38036 -6.93481,4.75069 l 2.05847,-9.0795 a 0.15492945,0.15492945 0 0 0 -0.0298,-0.13041 c 0,0 -0.28293,-0.35079 -0.9611,-0.68553 -0.67817,-0.33471 -1.76271,-0.66816 -3.39917,-0.68798 -1.48726,-0.0179 -2.55691,0.31679 -3.25533,0.65992 -0.69848,0.34308 -1.03592,0.70439 -1.03592,0.70439 a 0.15492945,0.15492945 0 0 0 -0.0375,0.0718 c 0,0 -5.19722,23.40699 -12.89609,38.5797 -2.62102,5.16548 -7.27016,11.88022 -13.06343,17.65757 -5.79329,5.77735 -12.73117,10.61495 -19.91767,12.05707 -6.00343,1.2047 -11.89372,0.35361 -15.54795,-4.51265 -1.98351,-2.64144 -2.35867,-6.49635 -2.22335,-9.69379 0.13097,-3.09535 0.71309,-5.46419 0.7514,-5.61862 0.66803,-0.0336 19.61685,-1.15132 35.89361,-21.1207 2.36457,-2.90101 4.5905,-6.6821 5.83632,-10.59649 1.24583,-3.9144 1.51311,-7.96893 -0.0723,-11.39767 -1.0542,-2.27994 -3.30097,-3.7745 -5.8842,-4.63641 -2.58327,-0.86188 -5.51105,-1.09572 -7.9738,-0.83844 -8.36879,0.8742 -14.59103,5.90393 -21.04811,13.85855 -8.35807,10.29649 -14.20434,26.3476 -14.28483,26.56908 -0.19176,0.0635 -6.28711,2.05993 -12.27563,1.18081 -1.05814,-0.15534 -2.4282,-0.66795 -3.77015,-1.27032 1.43167,-3.60412 2.82964,-7.43366 4.19312,-11.50588 7.70409,-23.00928 12.23385,-54.99382 12.43582,-56.4339 0.29128,0.57542 0.91872,1.60052 2.19109,2.62548 1.87163,1.50764 5.07541,2.94427 10.37876,2.70837 7.09156,-0.31547 11.84296,-4.25131 14.28012,-8.52471 1.21857,-2.13669 1.86204,-4.35773 1.93414,-6.26544 0.0721,-1.90777 -0.42629,-3.51589 -1.53452,-4.38446 -0.30603,-0.23983 -0.64784,-0.27692 -0.94885,-0.13682 -0.30105,0.14011 -0.56983,0.42256 -0.85849,0.79314 -0.57733,0.74111 -1.22685,1.85454 -2.11962,2.98978 -1.78554,2.27051 -4.50725,4.62073 -9.49555,4.18059 -2.41621,-0.21319 -4.11623,-1.12631 -5.42449,-2.34292 -1.30826,-1.21664 -2.22086,-2.74173 -3.03012,-4.17364 -0.80921,-1.43191 -1.51025,-2.77102 -2.43553,-3.61108 -0.92526,-0.84003 -2.10091,-1.14834 -3.71504,-0.49806 -3.08747,1.24382 -5.43298,3.99434 -7.3189,7.79527 -1.88593,3.80093 -3.31773,8.6598 -4.57408,14.15942 -2.51275,10.99926 -4.32135,24.56358 -7.5917,37.31745 -3.70773,14.45964 -10.31744,30.31191 -17.84696,41.40429 -3.76475,5.5462 -7.76086,9.90071 -11.72137,12.29788 -3.96058,2.39723 -7.86049,2.84855 -11.53035,0.62073 -2.92523,-1.77582 -4.24218,-5.33603 -4.723709,-9.79979 -0.48153,-4.46373 -0.12318,-9.80967 0.266129,-15.08936 0.38934,-5.27971 0.8098,-10.49266 0.44164,-14.71283 -0.18412,-2.11011 -0.56515,-3.97309 -1.253949,-5.47484 -0.68879,-1.50177 -1.69226,-2.64408 -3.10575,-3.28152 -1.61276,-0.72734 -3.31539,-0.35592 -5.05324,0.78505 -1.73785,1.14101 -3.53497,3.04875 -5.41115,5.4423 -3.75238,4.78711 -7.815909,11.52295 -12.216117,17.95849 -4.400241,6.43553 -9.138855,12.56826 -14.207836,16.13946 -5.069015,3.57122 -10.431675,4.59973 -16.215371,0.86294 -2.463724,-1.59177 -3.756411,-4.79733 -4.108018,-9.07979 -0.351606,-4.28245 0.240374,-9.62429 1.510905,-15.43086 2.541054,-11.61316 7.792626,-25.08721 13.580157,-35.73288 5.991565,-11.02104 13.946185,-21.62968 20.113691,-30.31669 3.083769,-4.34351 5.720719,-8.20596 7.444309,-11.40771 1.72359,-3.20175 2.55748,-5.74532 1.93916,-7.49351 a 0.15492945,0.15492945 0 0 0 -0.0309,-0.0517 c -1.37751,-1.53724 -2.8382,-1.88026 -4.33326,-1.6068 -1.49509,0.27346 -3.031339,1.13331 -4.668098,1.96305 -1.636761,0.82978 -3.370465,1.63086 -5.236779,1.8165 -1.865668,0.18573 -3.868185,-0.23439 -6.07966,-1.87596 -2.256326,-1.67487 -2.819808,-4.58809 -3.091539,-7.1865 -0.135862,-1.2992 -0.198026,-2.51343 -0.373488,-3.45393 -0.08775,-0.47027 -0.202919,-0.87325 -0.380184,-1.18886 -0.177226,-0.3156 -0.42836,-0.54719 -0.761134,-0.62849 -0.17417,-0.0426 -0.352689,-0.0617 -0.533384,-0.0592 z m 145.19373,67.51843 c 1.95681,-0.01 3.48194,0.72412 4.43448,2.18304 0.56508,0.86548 0.5756,2.01904 0.14045,3.38414 -0.43518,1.36509 -1.31558,2.92636 -2.49284,4.56213 -2.35453,3.27152 -5.89259,6.84347 -9.39901,9.82894 -10.40297,8.85732 -19.22392,10.53524 -20.01834,10.67355 0.17722,-0.40234 1.81141,-4.09852 4.33716,-8.82366 2.66612,-4.98779 6.20157,-10.84478 9.64068,-14.29987 5.03009,-5.05357 9.86922,-7.49103 13.35742,-7.50827 z m 116.9555,3.63219 c 5.95084,0.101 9.61556,4.78754 9.74831,4.95955 -0.0322,0.10821 -3.06059,10.2556 -4.53183,15.40334 -1.9714,6.89786 -5.74315,20.69977 -5.75459,20.74164 -0.0303,0.0491 -3.32275,5.40636 -7.90762,9.83477 -2.30295,2.2244 -4.9285,4.20669 -7.60806,5.15813 -2.67961,0.9514 -5.39962,0.88488 -7.96993,-0.98282 -2.61337,-1.89903 -4.02302,-4.72325 -4.54934,-8.09754 -0.52628,-3.3743 -0.1623,-7.29359 0.77783,-11.34123 1.8803,-8.09524 6.06241,-16.70258 9.95493,-22.52256 6.96583,-10.41511 13.12624,-13.23333 17.8403,-13.15328 z M 220.23587,297.47 c 0,0 -0.007,0.0214 -0.007,0.0224 l -0.007,-0.003 c 0,0 0.0132,-0.019 0.0132,-0.019 z"
       style="fill:#ffffff;fill-opacity:1;stroke:none;stroke-width:0.30989227;stroke-linecap:butt;stroke-linejoin:miter;stroke-miterlimit:4;stroke-dasharray:none;stroke-opacity:1" />
  </g>
</svg>
