<?xml version="1.0" encoding="UTF-8" standalone="no"?>
<!-- Created with Inkscape (http://www.inkscape.org/) -->

<svg
   xmlns:dc="http://purl.org/dc/elements/1.1/"
   xmlns:cc="http://creativecommons.org/ns#"
   xmlns:rdf="http://www.w3.org/1999/02/22-rdf-syntax-ns#"
   xmlns:svg="http://www.w3.org/2000/svg"
   xmlns="http://www.w3.org/2000/svg"
   xmlns:sodipodi="http://sodipodi.sourceforge.net/DTD/sodipodi-0.dtd"
   xmlns:inkscape="http://www.inkscape.org/namespaces/inkscape"
   width="497.70078"
   height="480.51968"
   viewBox="0 0 131.68416 127.1383"
   version="1.1"
   id="svg8"
   inkscape:version="0.92.5 (2060ec1f9f, 2020-04-08)"
   sodipodi:docname="technical_page_thumb.svg">
  <defs
     id="defs2">
    <filter
       inkscape:collect="always"
       style="color-interpolation-filters:sRGB"
       id="filter915"
       x="-0.0118125"
       width="1.023625"
       y="-0.012193548"
       height="1.0243871">
      <feGaussianBlur
         inkscape:collect="always"
         stdDeviation="0.62507813"
         id="feGaussianBlur917" />
    </filter>
  </defs>
  <sodipodi:namedview
     id="base"
     pagecolor="#ffffff"
     bordercolor="#666666"
     borderopacity="1.0"
     inkscape:pageopacity="0.0"
     inkscape:pageshadow="2"
     inkscape:zoom="0.49497475"
     inkscape:cx="-181.6669"
     inkscape:cy="412.1229"
     inkscape:document-units="mm"
     inkscape:current-layer="g927"
     showgrid="false"
     inkscape:window-width="1848"
     inkscape:window-height="1016"
     inkscape:window-x="1752"
     inkscape:window-y="27"
     inkscape:window-maximized="1"
     units="px" />
  <metadata
     id="metadata5">
    <rdf:RDF>
      <cc:Work
         rdf:about="">
        <dc:format>image/svg+xml</dc:format>
        <dc:type
           rdf:resource="http://purl.org/dc/dcmitype/StillImage" />
        <dc:title />
      </cc:Work>
    </rdf:RDF>
  </metadata>
  <g
     inkscape:label="Layer 1"
     inkscape:groupmode="layer"
     id="layer1"
     transform="translate(0,-169.86277)">
    <g
       id="g927"
       transform="translate(-152.70334,43.996706)">
      <rect
         ry="2.6458333"
         rx="2.6458333"
         y="128.41998"
         x="156.20529"
         height="123.03125"
         width="127"
         id="rect817-6"
         style="opacity:1;vector-effect:none;fill:#888266;fill-opacity:1;stroke:none;stroke-width:0.80000007;stroke-linecap:round;stroke-linejoin:round;stroke-miterlimit:4;stroke-dasharray:none;stroke-dashoffset:0;stroke-opacity:1;filter:url(#filter915)" />
      <rect
         ry="2.6458333"
         rx="2.6458333"
         y="127.36164"
         x="155.14694"
         height="123.03125"
         width="127"
         id="rect817"
         style="opacity:1;vector-effect:none;fill:#fecccb;fill-opacity:1;stroke:none;stroke-width:0.80000001;stroke-linecap:round;stroke-linejoin:round;stroke-miterlimit:4;stroke-dasharray:none;stroke-dashoffset:0;stroke-opacity:1" />
      <g
         aria-label="Technical
Page"
         transform="matrix(0.51018408,0,0,0.51018408,346.90073,132.88162)"
         style="font-style:normal;font-variant:normal;font-weight:normal;font-stretch:normal;font-size:40px;line-height:1.25;font-family:Montserrat;-inkscape-font-specification:Montserrat;text-align:center;letter-spacing:0px;word-spacing:0px;text-anchor:middle;fill:#f94e58;fill-opacity:1;stroke:none"
         id="flowRoot814-8">
        <path
           d="m -339.16717,71.075772 h -9.6 v -3.48 h 23.16 v 3.48 h -9.6 v 24.52 h -3.96 z"
           style=""
           id="path825" />
        <path
           d="m -304.84719,85.115772 q 0,0.44 -0.08,1.16 h -17.2 q 0.36,2.8 2.44,4.52 2.12,1.68 5.24,1.68 3.8,0 6.12,-2.56 l 2.12,2.48 q -1.44,1.68 -3.6,2.56 -2.12,0.88 -4.76,0.88 -3.36,0 -5.96,-1.36 -2.6,-1.4 -4.04,-3.88 -1.4,-2.48 -1.4,-5.6 0,-3.08 1.36,-5.56 1.4,-2.48 3.8,-3.84 2.44,-1.4 5.48,-1.4 3.04,0 5.4,1.4 2.4,1.36 3.72,3.84 1.36,2.48 1.36,5.68 z m -10.48,-7.68 q -2.76,0 -4.64,1.68 -1.84,1.68 -2.16,4.4 h 13.6 q -0.32,-2.68 -2.2,-4.36 -1.84,-1.72 -4.6,-1.72 z"
           style=""
           id="path827" />
        <path
           d="m -290.28721,95.835772 q -3.24,0 -5.8,-1.4 -2.52,-1.4 -3.96,-3.84 -1.44,-2.48 -1.44,-5.6 0,-3.12 1.44,-5.56 1.44,-2.48 3.96,-3.84 2.56,-1.4 5.8,-1.4 2.88,0 5.12,1.16 2.28,1.16 3.52,3.36 l -2.92,1.88 q -1,-1.52 -2.48,-2.28 -1.48,-0.76 -3.28,-0.76 -2.08,0 -3.76,0.92 -1.64,0.92 -2.6,2.64 -0.92,1.68 -0.92,3.88 0,2.24 0.92,3.96 0.96,1.68 2.6,2.6 1.68,0.92 3.76,0.92 1.8,0 3.28,-0.76 1.48,-0.76 2.48,-2.28 l 2.92,1.84 q -1.24,2.2 -3.52,3.4 -2.24,1.16 -5.12,1.16 z"
           style=""
           id="path829" />
        <path
           d="m -265.64732,74.195772 q 4.04,0 6.4,2.36 2.4,2.32 2.4,6.84 v 12.2 h -3.84 v -11.76 q 0,-3.08 -1.48,-4.64 -1.48,-1.56 -4.24,-1.56 -3.12,0 -4.92,1.84 -1.8,1.8 -1.8,5.2 v 10.92 h -3.84 v -29.68 h 3.84 v 11.48 q 1.2,-1.52 3.12,-2.36 1.96,-0.84 4.36,-0.84 z"
           style=""
           id="path831" />
        <path
           d="m -238.40732,74.195772 q 4.04,0 6.4,2.36 2.4,2.32 2.4,6.84 v 12.2 h -3.84 v -11.76 q 0,-3.08 -1.48,-4.64 -1.48,-1.56 -4.24,-1.56 -3.12,0 -4.92,1.84 -1.8,1.8 -1.8,5.2 v 10.92 h -3.84 v -21.2 h 3.68 v 3.2 q 1.16,-1.64 3.12,-2.52 2,-0.88 4.52,-0.88 z"
           style=""
           id="path833" />
        <path
           d="m -222.48733,74.395772 h 3.84 v 21.2 h -3.84 z m 1.92,-4.08 q -1.12,0 -1.88,-0.72 -0.72,-0.72 -0.72,-1.76 0,-1.04 0.72,-1.76 0.76,-0.76 1.88,-0.76 1.12,0 1.84,0.72 0.76,0.68 0.76,1.72 0,1.08 -0.76,1.84 -0.72,0.72 -1.84,0.72 z"
           style=""
           id="path835" />
        <path
           d="m -202.08736,95.835772 q -3.24,0 -5.8,-1.4 -2.52,-1.4 -3.96,-3.84 -1.44,-2.48 -1.44,-5.6 0,-3.12 1.44,-5.56 1.44,-2.48 3.96,-3.84 2.56,-1.4 5.8,-1.4 2.88,0 5.12,1.16 2.28,1.16 3.52,3.36 l -2.92,1.88 q -1,-1.52 -2.48,-2.28 -1.48,-0.76 -3.28,-0.76 -2.08,0 -3.76,0.92 -1.64,0.92 -2.6,2.64 -0.92,1.68 -0.92,3.88 0,2.24 0.92,3.96 0.96,1.68 2.6,2.6 1.68,0.92 3.76,0.92 1.8,0 3.28,-0.76 1.48,-0.76 2.48,-2.28 l 2.92,1.84 q -1.24,2.2 -3.52,3.4 -2.24,1.16 -5.12,1.16 z"
           style=""
           id="path837" />
        <path
           d="m -180.7674,74.195772 q 4.4,0 6.72,2.16 2.36,2.16 2.36,6.44 v 12.8 h -3.64 v -2.8 q -0.96,1.48 -2.76,2.28 -1.76,0.76 -4.2,0.76 -3.56,0 -5.72,-1.72 -2.12,-1.72 -2.12,-4.52 0,-2.8 2.04,-4.48 2.04,-1.72 6.48,-1.72 h 6.08 v -0.76 q 0,-2.48 -1.44,-3.8 -1.44,-1.32 -4.24,-1.32 -1.88,0 -3.68,0.64 -1.8,0.6 -3.04,1.64 l -1.6,-2.88 q 1.64,-1.32 3.92,-2 2.28,-0.72 4.84,-0.72 z m -0.88,18.68 q 2.2,0 3.8,-0.96 1.6,-1 2.32,-2.8 v -2.96 h -5.92 q -4.88,0 -4.88,3.28 0,1.6 1.24,2.52 1.24,0.92 3.44,0.92 z"
           style=""
           id="path839" />
        <path
           d="m -164.56741,65.915772 h 3.84 v 29.68 h -3.84 z"
           style=""
           id="path841" />
        <path
           d="m -290.06716,117.59577 q 5.44,0 8.56,2.6 3.12,2.6 3.12,7.16 0,4.56 -3.12,7.16 -3.12,2.6 -8.56,2.6 h -6.92 v 8.48 h -4 v -28 z m -0.12,16.04 q 3.8,0 5.8,-1.6 2,-1.64 2,-4.68 0,-3.04 -2,-4.64 -2,-1.64 -5.8,-1.64 h -6.8 v 12.56 z"
           style=""
           id="path843" />
        <path
           d="m -265.54729,124.19577 q 4.4,0 6.72,2.16 2.36,2.16 2.36,6.44 v 12.8 h -3.64 v -2.8 q -0.96,1.48 -2.76,2.28 -1.76,0.76 -4.2,0.76 -3.56,0 -5.72,-1.72 -2.12,-1.72 -2.12,-4.52 0,-2.8 2.04,-4.48 2.04,-1.72 6.48,-1.72 h 6.08 v -0.76 q 0,-2.48 -1.44,-3.8 -1.44,-1.32 -4.24,-1.32 -1.88,0 -3.68,0.64 -1.8,0.6 -3.04,1.64 l -1.6,-2.88 q 1.64,-1.32 3.92,-2 2.28,-0.72 4.84,-0.72 z m -0.88,18.68 q 2.2,0 3.8,-0.96 1.6,-1 2.32,-2.8 v -2.96 h -5.92 q -4.88,0 -4.88,3.28 0,1.6 1.24,2.52 1.24,0.92 3.44,0.92 z"
           style=""
           id="path845" />
        <path
           d="m -228.94737,124.39577 v 18.32 q 0,5.56 -2.76,8.2 -2.76,2.68 -8.24,2.68 -3,0 -5.72,-0.84 -2.72,-0.8 -4.4,-2.32 l 1.84,-2.96 q 1.48,1.28 3.64,2 2.2,0.76 4.52,0.76 3.72,0 5.48,-1.76 1.8,-1.76 1.8,-5.36 v -1.68 q -1.36,1.64 -3.36,2.48 -1.96,0.8 -4.28,0.8 -3.04,0 -5.52,-1.28 -2.44,-1.32 -3.84,-3.64 -1.4,-2.36 -1.4,-5.36 0,-3 1.4,-5.32 1.4,-2.36 3.84,-3.64 2.48,-1.28 5.52,-1.28 2.4,0 4.44,0.88 2.08,0.88 3.4,2.6 v -3.28 z m -11.04,16.96 q 2.08,0 3.72,-0.88 1.68,-0.88 2.6,-2.44 0.96,-1.6 0.96,-3.6 0,-3.08 -2.04,-4.96 -2.04,-1.92 -5.24,-1.92 -3.24,0 -5.28,1.92 -2.04,1.88 -2.04,4.96 0,2 0.92,3.6 0.96,1.56 2.6,2.44 1.68,0.88 3.8,0.88 z"
           style=""
           id="path847" />
        <path
           d="m -202.46743,135.11577 q 0,0.44 -0.08,1.16 h -17.2 q 0.36,2.8 2.44,4.52 2.12,1.68 5.24,1.68 3.8,0 6.12,-2.56 l 2.12,2.48 q -1.44,1.68 -3.6,2.56 -2.12,0.88 -4.76,0.88 -3.36,0 -5.96,-1.36 -2.6,-1.4 -4.04,-3.88 -1.4,-2.48 -1.4,-5.6 0,-3.08 1.36,-5.56 1.4,-2.48 3.8,-3.84 2.44,-1.4 5.48,-1.4 3.04,0 5.4,1.4 2.4,1.36 3.72,3.84 1.36,2.48 1.36,5.68 z m -10.48,-7.68 q -2.76,0 -4.64,1.68 -1.84,1.68 -2.16,4.4 h 13.6 q -0.32,-2.68 -2.2,-4.36 -1.84,-1.72 -4.6,-1.72 z"
           style=""
           id="path849" />
      </g>
    </g>
  </g>
</svg>
