<?xml version="1.0" encoding="UTF-8" standalone="no"?>
<!-- Created with Inkscape (http://www.inkscape.org/) -->

<svg
   xmlns:dc="http://purl.org/dc/elements/1.1/"
   xmlns:cc="http://creativecommons.org/ns#"
   xmlns:rdf="http://www.w3.org/1999/02/22-rdf-syntax-ns#"
   xmlns:svg="http://www.w3.org/2000/svg"
   xmlns="http://www.w3.org/2000/svg"
   xmlns:sodipodi="http://sodipodi.sourceforge.net/DTD/sodipodi-0.dtd"
   xmlns:inkscape="http://www.inkscape.org/namespaces/inkscape"
   width="3.9000001in"
   height="3in"
   viewBox="0 0 99.060002 76.2"
   version="1.1"
   id="svg8"
   inkscape:version="0.92.5 (2060ec1f9f, 2020-04-08)"
   sodipodi:docname="craft_mafia_logo.svg">
  <defs
     id="defs2">
    <inkscape:perspective
       sodipodi:type="inkscape:persp3d"
       inkscape:vp_x="0 : 139.70001 : 1"
       inkscape:vp_y="0 : 999.99995 : 0"
       inkscape:vp_z="215.89999 : 139.70001 : 1"
       inkscape:persp3d-origin="107.95 : 93.133334 : 1"
       id="perspective865" />
    <filter
       inkscape:collect="always"
       style="color-interpolation-filters:sRGB"
       id="filter905"
       x="-0.010643754"
       width="1.0212875"
       y="-0.013752348"
       height="1.0275047">
      <feGaussianBlur
         inkscape:collect="always"
         stdDeviation="0.43566218"
         id="feGaussianBlur907" />
    </filter>
  </defs>
  <sodipodi:namedview
     id="base"
     pagecolor="#ffffff"
     bordercolor="#666666"
     borderopacity="1.0"
     inkscape:pageopacity="0.0"
     inkscape:pageshadow="2"
     inkscape:zoom="1.6998112"
     inkscape:cx="231.03396"
     inkscape:cy="214.20544"
     inkscape:document-units="in"
     inkscape:current-layer="layer1"
     showgrid="false"
     units="in"
     inkscape:window-width="1848"
     inkscape:window-height="1016"
     inkscape:window-x="1752"
     inkscape:window-y="27"
     inkscape:window-maximized="1"
     showguides="true"
     inkscape:guide-bbox="true" />
  <metadata
     id="metadata5">
    <rdf:RDF>
      <cc:Work
         rdf:about="">
        <dc:format>image/svg+xml</dc:format>
        <dc:type
           rdf:resource="http://purl.org/dc/dcmitype/StillImage" />
        <dc:title />
      </cc:Work>
    </rdf:RDF>
  </metadata>
  <g
     inkscape:label="Layer 1"
     inkscape:groupmode="layer"
     id="layer1"
     transform="translate(0,-220.79999)">
    <g
       id="g827">
      <path
         transform="matrix(0.9760931,0,0,0.9760931,1.6063544,5.2797417)"
         sodipodi:nodetypes="cccssscssccccccsscccssscccccscsccccccscccccscccscsccscccsccccscccsccccccccccscccsccccc"
         inkscape:connector-curvature="0"
         id="path817-0"
         d="m 12.437275,252.98696 -2.146255,-0.33018 -1.4308371,1.43084 c 0,0 -3.8820596,0.065 -5.998509,2.75161 -2.29070755,2.90776 -3.44548395,6.95393 -2.4214164,10.51115 0.9331135,3.24127 3.7448207,5.79296 7.04412,6.49379 2.5053758,0.53219 4.8428335,-0.055 4.8428335,-0.055 0,0 -0.748538,7.87719 4.072382,13.75805 3.626723,4.4241 11.162394,7.72188 17.115011,7.70451 5.980964,-0.0174 7.979669,-3.52207 7.979669,-3.52207 l -0.110064,-3.57709 3.577093,2.64155 h 2.256319 l 4.237479,-2.64155 1.045612,0.1651 c 0,0 0.353698,4.91045 2.476445,5.94347 2.31331,1.12576 5.624755,0.22506 7.649477,-1.48586 0.958532,-0.80998 2.366383,-2.53148 2.366383,-2.53148 l -0.275159,1.32076 1.981157,-0.44026 c 0,0 -0.189476,3.19938 0.770451,4.34755 1.315329,1.57328 2.247067,2.70018 5.448186,2.58651 2.425788,-0.0861 5.243878,-2.6533 5.448189,-5.55826 0.151712,-2.15709 -1.485868,-5.94347 -1.485868,-5.94347 l -0.275161,-2.64154 0.605353,-0.60535 7.154185,1.54089 0.330192,-15.62914 c 0,0 5.921886,-6.18033 8.254831,-9.52056 2.226619,-3.18801 5.173019,-10.45612 5.173019,-10.45612 0,0 -4.500123,2.12693 -6.548824,3.52206 -1.807429,1.23084 -5.007932,4.23749 -5.007932,4.23749 l -2.751609,-0.27518 6.438768,-6.38372 v -2.09122 l 3.081803,-2.64155 3.026773,-1.43084 c 0,0 1.442754,-2.47669 1.761021,-3.85225 0.318517,-1.3766 0.11007,-4.23748 0.11007,-4.23748 l -2.97174,0.11007 -3.852251,3.74218 -1.100646,2.14626 -0.880512,0.82548 c 0,0 -0.268737,-2.29491 -0.550325,-3.412 -0.232553,-0.92255 -0.935546,-2.69657 -0.935546,-2.69657 l 2.146255,-2.64155 1.375805,1.10065 c 0,0 2.674471,-1.17072 3.467028,-2.31135 0.957184,-1.37756 1.155674,-4.89787 1.155674,-4.89787 0,0 -2.147409,-1.84605 -3.467026,-1.92613 -1.264875,-0.0768 -3.522059,1.43084 -3.522059,1.43084 l -6.713929,6.87902 c 0,0 -11.391146,-3.9502 -18.160624,-5.00793 -11.891251,-1.858 -27.90132,-0.44025 -27.90132,-0.44025 l 1.045612,1.87109 -3.356964,-1.32077 c 0,0 -3.861176,0.58618 -5.731706,1.12704 -1.980832,0.57275 -5.770022,2.22992 -5.770022,2.22992 l -1.100644,-3.0818 0.825483,-1.48587 -1.485869,-4.56767 c 0,0 -1.213415,-1.95885 -3.852253,-1.706 -2.040724,0.19554 -3.467028,2.09123 -3.467028,2.09123 l 0.165096,2.53148 -1.650965,-1.92613 c 0,0 -2.3749237,0.44824 -3.3019321,1.15568 -1.0274344,0.78408 -2.2012878,3.19186 -2.2012878,3.19186 l 3.0818032,4.89787 2.8066417,0.55032 2.036191,2.47645 -0.825483,3.74219 -1.981159,-0.93555 -0.220128,-1.59593 -1.6509667,-0.1651 -0.4952897,-1.32077 -0.3301927,-1.59594 c 0,0 -1.4707634,-1.67529 -3.2468995,-1.04561 -2.1966253,0.77875 -1.5409013,4.01735 -1.5409013,4.01735 l 1.8710943,1.706 0.7154187,1.32077 c 0,0 -1.4873984,1.91427 -1.9261265,3.02678 -0.5134515,1.30198 -0.770451,4.12741 -0.770451,4.12741 l 1.4858692,1.81605 1.430837,-0.66038 5.1179942,2.03619 z"
         style="fill:#888266;fill-opacity:1;stroke:none;stroke-width:0.26458332px;stroke-linecap:butt;stroke-linejoin:miter;stroke-opacity:1;filter:url(#filter905)" />
      <path
         sodipodi:nodetypes="cccssscssccccccsscccssscccccscsccccccscccccscccscsccscccsccccscccsccccccccccscccsccccc"
         inkscape:connector-curvature="0"
         id="path817"
         d="m 13.746293,251.18553 -2.094945,-0.3223 -1.39663,1.39664 c 0,0 -3.7892517,0.0634 -5.8551034,2.68582 -2.2359439,2.83826 -3.3631132,6.7877 -2.3635279,10.25986 0.9108057,3.16379 3.6552938,5.65447 6.8757173,6.33856 2.44548,0.51947 4.727056,-0.0537 4.727056,-0.0537 0,0 -0.730643,7.68888 3.975024,13.42914 3.540019,4.31833 10.895536,7.53727 16.705844,7.52032 5.837978,-0.017 7.7889,-3.43786 7.7889,-3.43786 l -0.107433,-3.49157 3.491575,2.57839 h 2.202377 l 4.136175,-2.57839 1.020615,0.16114 c 0,0 0.345242,4.79307 2.417242,5.80139 2.258004,1.09884 5.490284,0.21967 7.4666,-1.45035 0.935617,-0.7906 2.309812,-2.47096 2.309812,-2.47096 l -0.268582,1.2892 1.933796,-0.42974 c 0,0 -0.184948,3.12289 0.752031,4.24362 1.283882,1.53566 2.193346,2.63562 5.317936,2.52467 2.367794,-0.084 5.118513,-2.58987 5.31794,-5.42538 0.148086,-2.10552 -1.450346,-5.80138 -1.450346,-5.80138 l -0.268583,-2.57839 0.590881,-0.59088 6.98315,1.50406 0.3223,-15.2555 c 0,0 5.780311,-6.03259 8.057482,-9.29296 2.173388,-3.11179 5.049353,-10.20614 5.049353,-10.20614 0,0 -4.392544,2.07608 -6.392267,3.43786 -1.764219,1.20141 -4.888208,4.13618 -4.888208,4.13618 l -2.685826,-0.2686 6.284837,-6.23111 v -2.04123 l 3.008126,-2.57839 2.95441,-1.39664 c 0,0 1.408269,-2.41748 1.718928,-3.76015 0.310895,-1.34369 0.107433,-4.13618 0.107433,-4.13618 l -2.900694,0.10744 -3.760156,3.65272 -1.074332,2.09495 -0.859462,0.80574 c 0,0 -0.262311,-2.24004 -0.537167,-3.33043 -0.226993,-0.90049 -0.913181,-2.6321 -0.913181,-2.6321 l 2.094945,-2.5784 1.342913,1.07434 c 0,0 2.610533,-1.14273 3.384142,-2.2561 0.934298,-1.34462 1.128047,-4.78077 1.128047,-4.78077 0,0 -2.096071,-1.80192 -3.384142,-1.88008 -1.234636,-0.075 -3.437858,1.39663 -3.437858,1.39663 l -6.553418,6.71456 c 0,0 -11.11882,-3.85576 -17.72646,-4.8882 -11.606969,-1.81358 -27.234287,-0.42973 -27.234287,-0.42973 l 1.020615,1.82636 -3.276711,-1.2892 c 0,0 -3.768866,0.57217 -5.594676,1.1001 -1.933478,0.55906 -5.63208,2.17661 -5.63208,2.17661 l -1.074331,-3.00812 0.805748,-1.45035 -1.450346,-4.45847 c 0,0 -1.184406,-1.91202 -3.760158,-1.66522 -1.991936,0.19087 -3.384142,2.04124 -3.384142,2.04124 l 0.161149,2.47096 -1.611495,-1.88008 c 0,0 -2.318147,0.43752 -3.222993,1.12805 -1.0028718,0.76533 -2.1486622,3.11555 -2.1486622,3.11555 l 3.0081262,4.78078 2.739544,0.53716 1.987512,2.41725 -0.805748,3.65272 -1.933796,-0.91318 -0.214865,-1.55778 -1.611498,-0.16115 -0.483448,-1.2892 -0.322299,-1.55778 c 0,0 -1.435602,-1.63524 -3.1692763,-1.02061 -2.1441109,0.76013 -1.5040631,3.9213 -1.5040631,3.9213 l 1.8263623,1.66522 0.6983151,1.28919 c 0,0 -1.4518393,1.86851 -1.8800788,2.95442 -0.5011763,1.27086 -0.7520318,4.02874 -0.7520318,4.02874 l 1.4503467,1.77264 1.3966302,-0.6446 4.9956387,1.98752 z"
         style="fill:#ffffff;fill-opacity:1;stroke:#988787;stroke-width:0.25825796px;stroke-linecap:butt;stroke-linejoin:miter;stroke-opacity:1" />
      <g
         transform="matrix(0.50191492,0,0,0.50191492,-4.3724715,212.09142)"
         id="g846">
        <path
           style="fill:#ed1c21;fill-opacity:1;stroke:none;stroke-width:0.16805284px;stroke-linecap:butt;stroke-linejoin:miter;stroke-opacity:1"
           d="m 45.630292,21.337211 c -0.524828,0.0098 -1.058522,0.08157 -1.54771,0.256832 -1.853663,0.664108 -3.338814,2.901632 -3.338814,2.901632 l 2.505789,7.985559 c 0,0 1.102199,0.494866 2.497006,0.607198 l 3.379639,10.811227 -1.953887,0.654225 -7.369575,-8.903333 c 0.524648,-1.193422 0.608232,-2.355413 0.608232,-2.355413 L 34.90743,26.933252 c 0,0 -0.705329,0.04953 -1.599385,0.276987 -0.894054,0.227457 -1.977277,0.63296 -2.733683,1.345653 -1.433116,1.350293 -1.899108,3.995105 -1.899108,3.995105 l 5.491655,6.315895 c 0,0 1.207865,0.01275 2.53111,-0.442351 l 7.066754,8.144722 -2.600876,13.064836 -8.412406,-4.478279 -0.779283,-0.883666 c 0.06169,-0.813493 -0.08082,-1.33554 -0.412892,-1.514636 -0.06423,-0.03408 -0.135345,-0.0553 -0.212908,-0.06356 -0.52102,-0.05243 -1.31713,0.477877 -2.261878,1.505852 l -1.998845,-5.003313 c 0,0 0.318833,-1.215006 0.09715,-1.758548 -0.430755,-1.056179 -1.372413,-2.608577 -2.427242,-2.696993 -0.15069,-0.01262 -0.303715,0.0045 -0.457853,0.05736 -1.222558,0.41924 -1.071914,2.599946 -0.652673,3.822504 0.253714,0.739862 1.73116,1.583367 1.73116,1.583367 l 2.603459,5.336106 C 27.145336,56.654094 26.300397,58 25.539525,59.427912 c -2.262178,4.249486 -3.234429,8.152969 -2.171961,8.718333 0.298603,0.157901 0.740261,0.03636 1.290878,-0.355018 l 2.266012,0.132292 11.382251,6.059577 -0.0062,0.03101 5.922637,8.840793 -1.559594,0.764294 c -1.564315,-1.079084 -3.103259,-1.766618 -4.510321,-2.193653 -1.602949,-0.486468 -3.034556,-0.637484 -4.138247,-0.653706 -1.419032,-0.02085 -2.295986,0.181383 -2.295986,0.181383 l -0.07648,1.990572 -2.874759,0.678504 c -6.389523,1.192054 -11.418548,6.139077 -12.714988,12.508211 -0.490702,2.430565 -0.400445,4.844316 0.17415,7.096186 0.04616,0.1798 0.09497,0.35863 0.146761,0.53641 1.612758,5.50892 6.15088,9.95937 12.16825,11.17398 3.500252,0.69789 6.986466,0.19029 10.006108,-1.2547 l 0.997355,1.79058 -0.05788,1.00408 c 0,0 -0.366003,6.53747 1.761133,13.73818 0.141346,0.48019 0.29519,0.96323 0.45992,1.44746 1.205574,3.54183 3.28604,7.08685 5.818767,10.14925 l 0.0078,0.0419 0.01447,-0.016 c 1.141177,1.37717 2.373302,2.65696 3.658692,3.79356 2.4505,2.16683 6.092355,4.39852 10.03453,6.23838 5.418968,2.52913 11.404801,4.31729 15.64349,4.17494 11.782579,-0.39567 13.059151,-6.81457 13.059151,-6.81457 0,0 -1.89778,-3.43409 -4.570264,-7.88996 l 3.704685,-1.70894 c 2.001496,1.2204 4.837147,2.99652 7.254338,4.52117 2.514198,1.58583 4.521177,2.86133 4.521177,2.86133 l 2.58227,0.0863 c 0,0 6.29161,-3.44441 10.05468,-5.5082 l 3.69073,0.5116 c -0.0978,0.34013 -0.18503,0.67718 -0.2496,1.00562 h -5.1e-4 c -0.0278,0.13817 -0.0513,0.27512 -0.0713,0.41083 -0.43869,2.83002 -0.49375,7.14989 2.85668,9.85935 2.65649,2.14824 6.14761,1.90412 9.5374,0.0718 h 5.2e-4 c 1.77558,-0.95986 3.52306,-2.35537 5.10873,-4.07107 2.10847,-2.28142 3.40211,-4.01498 4.76353,-5.78518 0.9526,-0.17634 1.93079,-0.36215 2.83239,-0.53588 l -1.0232,5.31235 8.21656,-6.15881 c -0.21345,0.44744 -0.43154,0.89775 -0.66559,1.36374 -1.65186,3.28882 -4.04082,6.62426 -3.95325,11.03551 0.0843,4.2445 3.3473,7.94511 7.62744,7.93233 1.23792,-0.004 2.47597,-0.31821 3.61735,-0.89296 0.88779,-0.44697 1.71653,-1.05115 2.44171,-1.79007 1.65746,-1.689 2.77157,-4.07984 2.79673,-6.89261 0.036,-4.06598 -2.97002,-7.71295 -3.19309,-11.77292 -0.0888,-1.61628 0.051,-3.61727 0.31058,-5.71542 l 1.2547,-0.94051 1.27124,-0.7152 13.10359,2.65049 0.50902,-29.67261 c 0.18818,-0.20066 0.36446,-0.38815 0.55655,-0.59325 4.63029,-4.94954 10.16512,-11.007 13.78262,-15.439826 5.13297,-6.289684 11.14713,-16.48009 11.14713,-16.48009 0,0 -9.98891,6.584511 -16.51941,12.792991 -0.45663,0.434117 -0.97647,0.935044 -1.47846,1.416961 l -8.40155,-1.285701 h -0.002 c -0.001,-1.5e-4 -1.41344,-0.20605 -3.14503,-0.456297 l 14.90917,-14.855922 -0.36845,-3.660241 6.7417,-6.717937 c 0,0 2.00386,-0.43443 4.42092,-2.155939 1.45061,-1.033151 2.16813,-2.540127 2.51819,-3.649909 0.29795,0.03624 0.59605,-0.06624 0.80874,-0.278019 0.38264,-0.381616 0.38346,-1.001135 0.002,-1.383895 -0.38154,-0.383122 -1.00145,-0.384151 -1.38441,-0.0026 -0.38264,0.381616 -0.38346,1.001135 -0.002,1.383895 0.008,0.0077 0.0161,0.0153 0.0243,0.02274 -1.2417,1.589661 -3.55187,4.077922 -5.18677,3.032889 -0.94859,-0.606337 0.54998,-2.8888 2.90629,-5.022432 1.2329,-1.116375 2.17239,-1.475676 3.33623,-3.225125 0.65867,-0.990097 1.22783,-1.959571 1.22783,-1.959571 0,0 -4.76165,3.025297 -6.72,5.021398 -3.80024,3.873598 -3.87832,6.973218 -3.87832,6.973218 l -5.39244,5.291151 -3.59564,-16.605705 -2.19729,-1.115177 -0.01,-0.0057 c -0.004,-0.0019 -0.35744,-0.182755 -0.83613,-0.420129 l 7.28689,-8.133353 c 0,0 3.61829,-5.940494 4.83382,-5.737116 1.74681,0.43824 -0.78012,4.012496 0.23254,5.243605 0.68521,0.83303 2.92285,-0.666065 4.00958,-2.86339 1.33176,-2.692783 0.62146,-4.973907 -0.74001,-6.271453 -0.49953,-0.476073 -1.06276,-0.676738 -1.63763,-0.700215 -2.05307,-0.08385 -4.2571,2.096514 -4.2571,2.096514 l -13.83843,14.454931 c -1.65192,-0.719532 -3.52697,-1.475131 -5.31699,-2.058273 -5.83237,-1.875737 -10.8948,-3.681884 -16.60157,-4.998143 h -0.004 c -0.006,-0.0016 -9.29084,-2.1618 -15.98042,-3.128492 -5.05681,-0.730732 -12.97285,-1.685684 -12.97285,-1.685684 l -0.10542,-0.01395 -9.42164,-0.353468 h -0.0295 c 0,0 -1.45433,-0.02405 -3.26543,-0.03307 h -0.002 c -0.90452,-0.0045 -1.89833,-0.0043 -2.85978,0.0021 l -1.04283,0.0057 -0.0119,0.01188 c -0.55851,0.0081 -1.14724,0.01233 -1.62884,0.02946 -1.59979,0.05686 -3.76685,0.209237 -5.560382,0.347265 -1.793531,0.138031 -3.204972,0.264068 -3.204972,0.264068 l 0.0036,-0.0021 -8.179345,0.711068 2.431375,4.212662 C 86.118757,37.786686 83.168719,36.943576 80.00762,35.961151 l -0.512114,-0.158128 -1.097609,0.125055 h -0.0036 c -6.860178,0.978586 -11.72522,2.13999 -16.593821,3.726389 l -8.975162,3.006019 -3.124356,-10.87169 c 0.958316,-0.883819 1.499653,-1.915644 1.499648,-1.915644 l -2.498037,-8.032585 c 0,0 -0.666266,-0.236767 -1.57665,-0.386023 -0.455189,-0.07463 -0.971203,-0.12709 -1.49603,-0.117306 z m 61.255698,14.446148 c 0.94755,-0.0062 1.93189,-0.0045 2.83083,0 1.79812,0.0089 3.24011,0.03152 3.24011,0.03152 l 9.29091,0.349332 c 0,0 7.91958,0.956143 12.91446,1.677935 6.48678,0.937387 15.77319,3.089733 15.77319,3.089733 4.85062,1.24143 11.10963,3.417112 16.38867,4.937683 4.4886,1.46227 9.90069,4.240051 9.90069,4.240051 l 1.13068,0.574128 3.08198,14.238406 -12.47263,-4.757848 -5.48441,27.179703 -1.46865,0.841807 c 0.76936,0.0943 1.21092,0.14852 1.81643,0.222727 2.76371,0.33869 9.14828,1.316194 9.14828,1.316194 l 4.61522,0.705377 -5.69733,6.980408 -0.61701,35.970405 -11.03706,-2.23242 -2.23862,1.2578 -13.3258,9.98854 0.49196,-2.55282 c -0.007,0.002 -6.15382,1.23793 -9.4294,1.77147 -3.73409,0.6082 -10.74043,1.29863 -10.74043,1.29863 l -2.25981,0.22686 -0.7798,-2.93832 -8.95088,-1.23972 c -3.59498,1.97268 -10.789,5.91075 -10.789,5.91075 4e-5,0 -8.040408,-5.11858 -12.111406,-7.5923 l -0.923976,-0.49351 -9.985954,4.60695 -1.705838,0.76326 -11.846822,-9.24956 -2.181778,-14.49214 -3.119192,8.5819 -3.191018,-5.34386 0.970482,4.9475 -9.019604,9.79889 c -0.0021,-0.003 -0.0041,-0.007 -0.0062,-0.01 l -8.733833,-46.73456 11.956892,2.111488 1.081588,0.22376 L 40.998016,73.476484 46.154293,47.574188 62.607551,42.06238 c 1.521351,-0.509503 2.980854,-0.876065 4.644162,-1.323952 0,0 7.803738,-1.860486 11.439613,-2.287198 l 0.562755,-0.0646 c 5.215944,1.621036 15.800587,4.678268 15.800587,4.678268 l -3.617352,-6.267834 4.205431,-0.365353 c 0,-5.3e-5 5.597033,-0.49363 8.632543,-0.601514 0.75236,-0.02674 1.66314,-0.04082 2.6107,-0.04702 z m 0.0119,2.667537 c -0.93395,0.0061 -1.82159,0.01984 -2.52853,0.04496 -2.85476,0.10146 -8.496119,0.59273 -8.496119,0.59273 l 2.937287,5.008478 -4.437454,43.231438 7.822776,-6.497243 1.79886,-19.208131 4.41523,-0.205671 4.51704,18.350299 8.55245,7.261539 -10.61847,-43.473799 2.05672,-5.074108 c 0,0 -1.4301,-0.02159 -3.21376,-0.03049 -0.89183,-0.0044 -1.87208,-0.0061 -2.80603,0 z m 15.03112,0.362251 3.78789,5.726267 -3.56929,42.737411 7.12049,-4.955223 1.85984,-17.706412 9.37565,1.327569 4.12792,-6.357753 -13.07259,-1.809708 0.98443,-10.539407 12.54963,1.859833 2.90473,5.353161 2.33887,-10.917679 c 0,0 -9.28969,-2.143366 -15.55615,-3.048908 -4.92915,-0.712311 -12.85142,-1.669151 -12.85142,-1.669151 z m -42.926574,2.288234 c -3.117652,0.365892 -11.145058,2.235522 -11.145058,2.235522 l 5.743835,45.122273 5.858558,-5.941204 -1.814895,-16.388661 14.149007,20.854514 1.029393,-9.845884 -9.726536,-14.705045 5.684922,-18.291908 z m 25.522474,3.239079 h 1.05833 l 1.70067,10.553878 -3.24579,0.200504 z m 48.85593,0.115755 -3.85764,6.791318 11.58172,3.364134 -7.22695,35.163183 7.22746,-4.142876 5.86787,-29.082959 10.81639,4.126881 -1.77199,-8.187613 c 0,0 -5.39474,-2.738591 -9.51983,-4.082439 -4.12509,-1.34384 -13.11703,-3.949629 -13.11703,-3.949629 z m -89.926295,0.13539 -14.985648,5.020885 -4.639509,23.29987 11.991515,17.896534 c 0,0 3.977,-0.758447 6.76393,-1.100704 2.859072,-0.351117 8.586039,-0.977714 8.586039,-0.977714 L 69.944589,77.396323 65.165553,83.152036 59.06515,84.15507 50.209876,71.350181 53.76935,55.022494 l 7.052281,-2.371947 5.851324,3.17655 z m -38.486539,1.672252 c 0.426066,0.03939 0.783477,0.739804 0.957564,1.180806 0.181046,0.458637 0.407029,1.277239 -0.04289,1.478979 -0.473433,0.212285 -0.985619,-0.525823 -1.191659,-1.002007 -0.216342,-0.499991 -0.418894,-1.438071 0.09043,-1.631423 0.06332,-0.02405 0.125684,-0.03199 0.186552,-0.02636 z m 52.952842,0.953947 3.115572,0.624766 -4.276225,12.33465 -1.547709,-12.51345 z m 92.940582,16.388147 8.90023,3.394625 -11.99772,11.954825 z m -57.95254,23.569594 c -5.08166,0.002 -14.895213,0.186027 -14.895213,0.186027 l 5.346443,5.997537 v 47.853371 l 6.98097,-3.83077 v -22.96449 l 7.51686,0.12195 2.86339,-7.55199 H 110.34109 V 94.689773 l 13.02195,0.0501 2.6727,4.187846 0.79892,-3.875716 8.55503,0.592214 -4.58215,36.912973 -7.90236,0.81441 1.8278,6.88796 c 0,0 7.05784,-0.70542 10.5761,-1.27848 3.15105,-0.51325 9.33948,-1.75441 9.33948,-1.75441 l 1.92288,-6.91276 -8.75037,1.33067 4.5868,-35.422626 6.79338,0.420647 4.14755,-6.867768 c 0,0 -8.94203,-0.967394 -13.42243,-1.351334 -3.20439,-0.274597 -8.37398,-0.557317 -11.57552,-0.722424 l 0.003,-0.0155 c 0,0 -1.1276,-0.0516 -2.62103,-0.1173 -0.0222,-0.001 -0.21704,-0.0109 -0.21705,-0.0109 v 0.002 c -3.457,-0.15132 -9.26652,-0.384737 -12.60698,-0.383437 z m -19.181256,0.312637 c 0,1e-5 -6.358094,0.32706 -9.254731,0.514177 -3.604239,0.23284 -10.231936,0.815967 -10.231936,0.815967 l 3.077332,4.459653 2.691826,44.803421 6.400126,-2.9533 -1.462958,-23.97735 3.458702,-0.18965 4.136181,24.70857 7.695144,4.91132 -8.150413,-48.472965 z m -24.300326,1.608681 -6.6151,2.928485 -4.371308,13.999092 -7.722011,-11.832317 -7.025412,-1.240741 7.050217,37.726858 4.501534,-4.89118 -3.657659,-18.66036 8.167461,13.68134 4.783172,-13.16405 3.586345,23.81508 7.867735,6.14278 z m 84.450662,0.778757 2.67219,5.11129 -7.94474,41.12976 6.99027,-5.23948 4.15841,-20.06234 4.40645,0.0656 -1.11518,18.11466 5.62033,1.13688 0.57877,-33.691469 3.329,-4.079826 c 0,0 -6.43473,-0.982874 -9.07025,-1.305854 -3.20838,-0.393187 -9.62525,-1.179251 -9.62525,-1.179251 z m -67.22484,3.787346 1.579751,11.015304 -3.796152,0.24237 -0.948262,-10.972424 z m -55.693242,0.894507 c 2.449827,1.4e-4 4.435768,1.986068 4.435906,4.435883 1.46e-4,2.450024 -1.985881,4.436274 -4.435906,4.436414 -2.45023,1.5e-4 -4.436568,-1.98619 -4.436423,-4.436414 1.38e-4,-2.450015 1.986394,-4.436023 4.436423,-4.435883 z m 131.050402,2.388995 2.81327,0.36742 -0.42375,7.339062 -3.6344,-0.20773 z m -103.119808,32.569052 2.013832,3.37344 1.14205,-3.14245 0.468188,0.44184 c 0.06025,0.061 0.119314,0.12321 0.179316,0.18448 l 0.589113,3.91242 6.570658,5.13044 v 5.2e-4 c 0.4778,0.69124 0.947724,1.38155 1.400947,2.06137 l 1.386996,2.11615 c 2.754781,4.27073 4.702041,7.6879 4.702041,7.6879 0,0 -11.840933,2.21054 -23.421312,-9.10384 -1.284946,-1.25543 -2.375191,-2.48021 -3.307292,-3.67057 z m 61.077928,13.08706 0.86972,3.28042 4.41006,-0.44339 c 0,0 6.55993,-0.64029 10.53838,-1.264 -0.47398,0.55976 -0.96216,1.11279 -1.46193,1.65054 -1.69209,1.8207 -3.49317,3.47659 -5.14697,4.70618 -0.36141,0.26876 -0.72146,0.50086 -1.07901,0.69763 -2.50274,1.37746 -4.87869,1.02938 -6.68951,-0.52659 -1.8048,-1.55079 -2.12568,-4.34761 -1.6831,-6.96753 0.0648,-0.38332 0.14717,-0.76196 0.24236,-1.13326 z m 32.99179,3.79511 c 0.38763,-0.004 0.78591,0.0542 1.19217,0.18449 3.58379,1.14948 5.75603,6.08671 3.08302,10.74715 -0.33503,0.58415 -0.70138,1.08687 -1.09503,1.50533 -0.42638,0.45341 -0.88497,0.80804 -1.36942,1.06247 -1.45315,0.76371 -3.14248,0.62115 -4.9165,-0.48938 -2.62368,-1.64243 -3.14714,-4.54609 -2.66288,-6.95565 0.16197,-0.80305 0.43496,-1.55204 0.77979,-2.18022 1.10875,-2.01959 2.89561,-3.85187 4.98885,-3.87419 z"
           id="path1108"
           inkscape:connector-curvature="0" />
        <path
           style="color:#000000;font-style:normal;font-variant:normal;font-weight:normal;font-stretch:normal;font-size:medium;line-height:normal;font-family:sans-serif;font-variant-ligatures:normal;font-variant-position:normal;font-variant-caps:normal;font-variant-numeric:normal;font-variant-alternates:normal;font-feature-settings:normal;text-indent:0;text-align:start;text-decoration:none;text-decoration-line:none;text-decoration-style:solid;text-decoration-color:#000000;letter-spacing:normal;word-spacing:normal;text-transform:none;writing-mode:lr-tb;direction:ltr;text-orientation:mixed;dominant-baseline:auto;baseline-shift:baseline;text-anchor:start;white-space:normal;shape-padding:0;clip-rule:nonzero;display:inline;overflow:visible;visibility:visible;opacity:1;isolation:auto;mix-blend-mode:normal;color-interpolation:sRGB;color-interpolation-filters:linearRGB;solid-color:#000000;solid-opacity:1;vector-effect:none;fill:#ffffff;fill-opacity:1;fill-rule:nonzero;stroke:none;stroke-width:5.33400011;stroke-linecap:butt;stroke-linejoin:miter;stroke-miterlimit:4;stroke-dasharray:none;stroke-dashoffset:0;stroke-opacity:1;color-rendering:auto;image-rendering:auto;shape-rendering:auto;text-rendering:auto;enable-background:accumulate"
           d="m 106.8859,35.783565 c -0.94756,0.0062 -1.85834,0.02029 -2.6107,0.04703 -3.03551,0.107884 -8.632545,0.601465 -8.632545,0.601515 l -4.205428,0.36535 3.617349,6.267836 c 0,0 -10.584643,-3.057229 -15.800586,-4.678267 l -0.562756,0.06459 c -3.635875,0.42671 -11.439613,2.287199 -11.439613,2.287199 -1.663308,0.447873 -3.122797,0.814427 -4.644146,1.323933 l -16.453261,5.51181 -5.156274,25.902294 12.403895,18.513023 -1.081588,-0.22376 -11.956894,-2.111488 8.736417,46.748 9.023223,-9.80251 -0.970483,-4.9475 3.19102,5.34386 3.119189,-8.5819 2.181778,14.49214 11.846822,9.24956 1.705841,-0.76326 9.985954,-4.60695 0.923973,0.4935 c 4.070996,2.47373 12.111443,7.59231 12.111403,7.59231 0,0 7.19402,-3.93807 10.78901,-5.91075 l 8.95088,1.23971 0.77979,2.93833 2.25981,-0.22686 c 0,0 7.00634,-0.69042 10.74043,-1.29863 3.27558,-0.53354 9.42202,-1.76998 9.4294,-1.77147 l -0.49196,2.55282 13.3258,-9.98854 2.23863,-1.25781 11.03705,2.23243 0.61702,-35.970405 5.69732,-6.980408 -4.61522,-0.705387 c 0,0 -6.38457,-0.977494 -9.14828,-1.316184 -0.60551,-0.0742 -1.04707,-0.128467 -1.81642,-0.222727 l 1.46864,-0.841807 5.48442,-27.179702 12.47262,4.757848 -3.08198,-14.238407 -1.13068,-0.574124 c 0,0 -5.41209,-2.777784 -9.90069,-4.240051 -5.27904,-1.520572 -11.53804,-3.696254 -16.38866,-4.937684 0,0 -9.28643,-2.152351 -15.7732,-3.089735 -4.99489,-0.721792 -12.91446,-1.677932 -12.91446,-1.677932 l -9.2909,-0.349335 c 0,0 -1.44199,-0.02257 -3.24012,-0.03152 -0.89893,-0.0045 -1.88327,-0.0062 -2.83083,0 z m 0.0119,2.667538 c 0.93394,-0.0061 1.9142,-0.0044 2.80603,0 1.78366,0.0089 3.21375,0.03049 3.21375,0.03049 l -2.05671,5.074108 10.61847,43.473804 -8.55245,-7.261542 -4.51703,-18.350302 -4.41524,0.205672 -1.79886,19.208131 -7.822776,6.497238 4.437457,-43.231431 -2.93729,-5.00848 c 0,0 5.641359,-0.491268 8.496119,-0.592728 0.70695,-0.02513 1.59458,-0.03889 2.52853,-0.04496 z m 15.03112,0.362254 c 0,3e-6 7.92226,0.956852 12.85141,1.669148 6.26646,0.905544 15.55616,3.04891 15.55616,3.04891 l -2.33888,10.91768 -2.90473,-5.353162 -12.54962,-1.859835 -0.98444,10.539407 13.07259,1.80971 -4.12791,6.35775 -9.37566,-1.327565 -1.85983,17.706402 -7.1205,4.955233 3.56929,-42.737415 z m -42.926579,2.28823 9.779248,3.039608 -5.684924,18.291908 9.726538,14.705045 -1.029396,9.845877 L 77.6448,66.129518 79.459678,82.518172 73.60112,88.459376 67.857283,43.33711 c 0,0 8.027406,-1.86963 11.145058,-2.235523 z m 25.522479,3.23908 -0.48679,10.754381 3.2458,-0.200504 -1.70068,-10.553877 z m 48.85593,0.115755 c 0,0 8.99194,2.605786 13.11703,3.949629 4.12509,1.343848 9.51984,4.082439 9.51984,4.082439 l 1.77198,8.187613 -10.81639,-4.126878 -5.86786,29.082959 -7.22747,4.142876 7.22695,-35.163186 -11.58172,-3.364135 z m -89.926292,0.135393 3.218407,11.235489 -5.851321,-3.176551 -7.052284,2.37195 -3.559471,16.327684 8.855273,12.804883 6.100403,-1.003034 4.779037,-5.755704 1.22628,11.334154 c 0,0 -5.726964,0.626587 -8.586039,0.977704 -2.786928,0.342257 -6.763927,1.100704 -6.763927,1.100704 L 43.829278,72.912567 48.468789,49.612696 Z m 14.4663,2.626196 -2.708362,0.445968 1.547709,12.513448 4.276225,-12.334648 z M 112.9088,87.175745 c 3.34047,-0.001 9.14998,0.232117 12.60699,0.383437 v -0.002 c 0,0 0.19484,0.01 0.21704,0.0108 1.49343,0.0658 2.62103,0.11731 2.62103,0.11731 l -0.003,0.0155 c 3.20155,0.165117 8.37113,0.447837 11.57552,0.722434 4.48039,0.38394 13.42244,1.351334 13.42244,1.351334 l -4.14755,6.867751 -6.79338,-0.420637 -4.58681,35.422616 8.75038,-1.33067 -1.92288,6.91276 c 0,0 -6.18844,1.24117 -9.33949,1.75442 -3.51826,0.57306 -10.57609,1.27847 -10.57609,1.27847 l -1.8278,-6.88795 7.90236,-0.81442 4.58215,-36.912963 -8.55504,-0.592217 -0.79891,3.875719 -2.67271,-4.187839 -13.02194,-0.0501 v 12.29741 h 10.38024 l -2.86339,7.552 -7.51685,-0.12196 v 22.96449 l -6.98097,3.83078 V 93.358879 l -5.346445,-5.997527 c 0,0 9.813565,-0.183937 14.895215,-0.186037 z m -19.181254,0.312637 -1.640726,4.619853 8.15041,48.472965 -7.695141,-4.91133 -4.136181,-24.70857 -3.458705,0.18965 1.46296,23.97735 -6.400128,2.95331 -2.691823,-44.803431 -3.077332,-4.459643 c 0,0 6.627694,-0.583137 10.231933,-0.815977 2.896637,-0.187117 9.254733,-0.514177 9.254733,-0.514177 z m -24.300326,1.608681 6.564974,48.504987 -7.867737,-6.14278 -3.586345,-23.81508 -4.78317,13.16406 -8.16746,-13.68134 3.657658,18.66036 -4.501536,4.89117 -7.050214,-37.726848 7.02541,1.240741 7.72201,11.832317 4.371308,-13.999102 z m 84.45066,0.778757 c 0,0 6.41687,0.786064 9.62525,1.179251 2.63552,0.32298 9.07025,1.305854 9.07025,1.305854 l -3.32899,4.079836 -0.57878,33.691459 -5.62033,-1.13688 1.11518,-18.11466 -4.40645,-0.0656 -4.1584,20.06234 -6.99027,5.23947 7.94473,-41.12976 z m -67.224837,3.787346 -3.164665,0.28525 0.948261,10.972424 3.796152,-0.24236 z m 75.357157,3.283502 -1.24488,7.498752 3.6344,0.20774 0.42375,-7.339072 z"
           id="path4543-0"
           inkscape:connector-curvature="0"
           sodipodi:nodetypes="cccccccccccccccccccccccccccccccccccccccccccccccccccscscccccccccccccsccccccccccccccccccccccccccccccccccccccccccccccscccccccccccccccscccccccccccccccccccccccccccccccccccccccccccccccccccccccccccccccccccccccccc" />
        <path
           style="fill:#000000;fill-opacity:1;stroke:none;stroke-width:0.26458335px;stroke-linecap:butt;stroke-linejoin:miter;stroke-opacity:1"
           d="m 109.70374,38.450904 c -1.78366,-0.0089 -3.92067,-0.0053 -5.33456,0.04496 -2.85476,0.10146 -8.496123,0.59273 -8.496123,0.59273 l 2.937288,5.008481 -4.437454,43.231437 7.822779,-6.497244 1.79885,-19.208132 4.41524,-0.205671 4.51704,18.350302 8.55244,7.261538 -10.61847,-43.4738 2.05672,-5.074108 c 0,0 -1.43009,-0.02162 -3.21375,-0.03049 z m 12.2251,0.362252 3.78788,5.726266 -3.56929,42.737413 7.12049,-4.955233 1.85983,-17.706403 9.37566,1.327568 4.12791,-6.357752 -13.07258,-1.809708 0.98444,-10.539408 12.54961,1.859833 2.90473,5.353164 2.33888,-10.917682 c 0,0 -9.2897,-2.143363 -15.55616,-3.048908 -4.92915,-0.712295 -12.85141,-1.669147 -12.8514,-1.66915 z m -42.926587,2.288233 c -3.117652,0.365892 -11.145058,2.235523 -11.145058,2.235523 L 73.601032,88.459176 79.45959,82.517982 77.644713,66.129319 91.793719,86.983825 92.823115,77.13795 83.096577,62.432905 88.781502,44.140997 Z m 25.522477,3.23908 h 1.05833 l 1.70067,10.553877 -3.24579,0.200504 z m 48.85593,0.115755 -3.85764,6.791317 11.58171,3.364135 -7.22694,35.163184 7.22747,-4.142876 5.86786,-29.082957 10.81639,4.126878 -1.77198,-8.187614 c 0,0 -5.39474,-2.738593 -9.51983,-4.082439 -4.12509,-1.343845 -13.11704,-3.949628 -13.11704,-3.949628 z m -89.926295,0.135392 -14.985649,5.020882 -4.639511,23.29987 11.991515,17.896526 c 0,0 3.977002,-0.758447 6.76393,-1.100704 2.859074,-0.351117 8.586039,-0.977704 8.586039,-0.977704 l -1.226283,-11.334155 -4.779037,5.755715 -6.100402,1.003034 -8.855274,-12.804891 3.559474,-16.327687 7.052284,-2.371947 5.851321,3.176551 z m 14.4663,2.626196 3.115572,0.624769 -4.276225,12.334648 -1.547709,-12.513451 z m 34.988045,39.957733 c -5.08165,0.002 -14.895213,0.186037 -14.895213,0.186037 l 5.346443,5.997537 v 47.853361 l 6.98097,-3.83077 v -22.96449 l 7.51686,0.12195 2.86339,-7.55199 H 110.34091 V 94.689773 l 13.02194,0.0501 2.67271,4.187836 0.79891,-3.875716 8.55504,0.592214 -4.58215,36.912973 -7.90235,0.81441 1.82778,6.88796 c 0,0 7.05784,-0.70542 10.5761,-1.27848 3.15105,-0.51325 9.33948,-1.75441 9.33948,-1.75441 l 1.92288,-6.91276 -8.75037,1.33067 4.5868,-35.422626 6.79339,0.420647 4.14755,-6.867758 c 0,0 -8.94205,-0.967394 -13.42244,-1.351334 -3.20439,-0.274587 -8.37397,-0.557307 -11.57552,-0.722434 l 0.003,-0.0155 c 0,0 -1.1276,-0.0516 -2.62103,-0.1173 -0.0222,-10e-4 -0.21704,-0.0108 -0.21704,-0.0108 v 0.002 c -3.457,-0.15132 -9.26652,-0.384637 -12.60698,-0.383437 z m -19.181257,0.312637 c 0,0 -6.358096,0.32707 -9.254733,0.514177 -3.604239,0.23285 -10.231933,0.815977 -10.231933,0.815977 l 3.077329,4.459643 2.691826,44.803421 6.400128,-2.9533 -1.46296,-23.97735 3.458704,-0.18965 4.136181,24.70857 7.695135,4.91133 -8.150406,-48.472975 z m -24.300326,1.608681 -6.615102,2.928495 -4.371308,13.999102 -7.722011,-11.832327 -7.02541,-1.240741 7.050215,37.726858 4.501534,-4.89117 -3.657659,-18.66037 8.167463,13.68134 4.78317,-13.16405 3.586345,23.81508 7.867737,6.14278 z m 84.450663,0.778767 2.67219,5.11128 -7.94473,41.12976 6.99027,-5.23948 4.1584,-20.06234 4.40645,0.0656 -1.11518,18.11466 5.62033,1.13688 0.57878,-33.691459 3.32899,-4.079836 c 0,0 -6.43472,-0.982874 -9.07024,-1.305854 -3.20838,-0.393187 -9.62526,-1.179241 -9.62526,-1.179241 z m -67.22484,3.787336 1.579748,11.015314 -3.796152,0.24237 -0.948262,-10.972424 z m 75.35716,3.283502 2.81327,0.36742 -0.42375,7.339062 -3.6344,-0.20773 z"
           id="path4543"
           inkscape:connector-curvature="0" />
      </g>
    </g>
  </g>
</svg>
