<?xml version="1.0" encoding="UTF-8" standalone="no"?>
<!-- Created with Inkscape (http://www.inkscape.org/) -->

<svg
   xmlns:dc="http://purl.org/dc/elements/1.1/"
   xmlns:cc="http://creativecommons.org/ns#"
   xmlns:rdf="http://www.w3.org/1999/02/22-rdf-syntax-ns#"
   xmlns:svg="http://www.w3.org/2000/svg"
   xmlns="http://www.w3.org/2000/svg"
   xmlns:sodipodi="http://sodipodi.sourceforge.net/DTD/sodipodi-0.dtd"
   xmlns:inkscape="http://www.inkscape.org/namespaces/inkscape"
   width="2.5in"
   height="2.5in"
   viewBox="0 0 63.5 63.5"
   version="1.1"
   id="svg8"
   inkscape:version="0.92.5 (2060ec1f9f, 2020-04-08)"
   sodipodi:docname="rootaccess_circle_logo.svg">
  <defs
     id="defs2">
    <path
       style="fill:none;fill-opacity:1;stroke:#000000;stroke-width:0.89999998;stroke-linecap:round;stroke-linejoin:round;stroke-miterlimit:4;stroke-dasharray:none;stroke-opacity:1"
       d="m 52.806213,124.32752 a 35.038391,35.038391 0 0 1 49.431047,-3.45656 35.038391,35.038391 0 0 1 3.45656,49.43107 35.038391,35.038391 0 0 1 -49.431049,3.45654 35.038391,35.038391 0 0 1 -3.456558,-49.43105 z"
       id="path4533-2"
       inkscape:connector-curvature="0" />
    <path
       style="fill:none;fill-opacity:1;stroke:#000000;stroke-width:0.89999998;stroke-linecap:round;stroke-linejoin:round;stroke-miterlimit:4;stroke-dasharray:none;stroke-opacity:1"
       d="m 52.806213,124.32752 a 35.038391,35.038391 0 0 1 49.431047,-3.45656 35.038391,35.038391 0 0 1 3.45656,49.43107 35.038391,35.038391 0 0 1 -49.431049,3.45654 35.038391,35.038391 0 0 1 -3.456558,-49.43105 z"
       id="path4533-0"
       inkscape:connector-curvature="0" />
    <circle
       style="fill:none;fill-opacity:1;stroke:none;stroke-width:0.99999994;stroke-linecap:round;stroke-linejoin:round;stroke-miterlimit:4;stroke-dasharray:none;stroke-opacity:1"
       id="path4597-1-9"
       cx="55.996037"
       cy="133.44534"
       r="32.127975"
       transform="matrix(-0.65243699,0.75784298,0.75784298,0.65243699,0,0)" />
    <circle
       style="fill:none;fill-opacity:1;stroke:none;stroke-width:1;stroke-linecap:round;stroke-linejoin:round;stroke-miterlimit:4;stroke-dasharray:none;stroke-opacity:1"
       id="path4597-19"
       cx="-127.93149"
       cy="-67.793648"
       r="32.127975"
       transform="rotate(-144.43404)" />
    <filter
       inkscape:collect="always"
       style="color-interpolation-filters:sRGB"
       id="filter901"
       x="-0.012317405"
       width="1.0246348"
       y="-0.011698542"
       height="1.0233971">
      <feGaussianBlur
         inkscape:collect="always"
         stdDeviation="0.29734833"
         id="feGaussianBlur903" />
    </filter>
  </defs>
  <sodipodi:namedview
     id="base"
     pagecolor="#ffffff"
     bordercolor="#666666"
     borderopacity="1.0"
     inkscape:pageopacity="0.0"
     inkscape:pageshadow="2"
     inkscape:zoom="2"
     inkscape:cx="96.149722"
     inkscape:cy="132.63459"
     inkscape:document-units="mm"
     inkscape:current-layer="layer1"
     showgrid="false"
     inkscape:window-width="1680"
     inkscape:window-height="1013"
     inkscape:window-x="0"
     inkscape:window-y="30"
     inkscape:window-maximized="1"
     showguides="true"
     inkscape:guide-bbox="true"
     units="in" />
  <metadata
     id="metadata5">
    <rdf:RDF>
      <cc:Work
         rdf:about="">
        <dc:format>image/svg+xml</dc:format>
        <dc:type
           rdf:resource="http://purl.org/dc/dcmitype/StillImage" />
        <dc:title />
      </cc:Work>
    </rdf:RDF>
  </metadata>
  <g
     inkscape:label="Layer 1"
     inkscape:groupmode="layer"
     id="layer1"
     transform="translate(0,-233.5)">
    <g
       id="g935"
       transform="translate(-103.77685,58.099961)">
      <path
         sodipodi:nodetypes="ssccsccss"
         inkscape:connector-curvature="0"
         id="path846-9"
         d="m 135.82637,238.18997 c 15.22627,-0.30917 26.45361,-11.17867 28.15685,-23.29254 1.95302,-13.89041 -3.92887,-21.60874 -3.92887,-21.60874 l 1.30963,-1.40317 c 0,0 -7.52456,-14.34616 -26.28596,-14.68646 -16.61741,-0.30141 -26.19242,14.12519 -26.19242,14.12519 l 2.05798,1.87089 c 0,0 -5.30014,6.97826 -4.39658,19.73786 0.89016,12.5703 12.47436,25.59818 29.27937,25.25697 z"
         style="fill:#888266;fill-opacity:1;stroke:none;stroke-width:0.26458332px;stroke-linecap:butt;stroke-linejoin:miter;stroke-opacity:1;filter:url(#filter901)" />
      <path
         sodipodi:nodetypes="ssccsccss"
         inkscape:connector-curvature="0"
         id="path846"
         d="m 135.82637,237.13163 c 15.22627,-0.30917 26.45361,-11.17867 28.15685,-23.29254 1.95302,-13.89041 -3.92887,-21.60874 -3.92887,-21.60874 l 1.30963,-1.40317 c 0,0 -7.52456,-14.34616 -26.28596,-14.68646 -16.61741,-0.30141 -26.19242,14.12519 -26.19242,14.12519 l 2.05798,1.87089 c 0,0 -5.30014,6.97826 -4.39658,19.73786 0.89016,12.5703 12.47436,25.59818 29.27937,25.25697 z"
         style="fill:#ffffff;fill-opacity:1;stroke:#988787;stroke-width:0.26458332px;stroke-linecap:butt;stroke-linejoin:miter;stroke-opacity:1" />
      <g
         transform="matrix(1.0871498,0,0,1.0871498,103.02704,-9.1894161)"
         id="g4726">
        <path
           inkscape:connector-curvature="0"
           style="opacity:1;vector-effect:none;fill:#9f98a4;fill-opacity:1;stroke:none;stroke-width:0.31127053;stroke-linecap:square;stroke-linejoin:miter;stroke-miterlimit:4;stroke-dasharray:none;stroke-dashoffset:0;stroke-opacity:1"
           d="M 112.59961,-255.19922 A 79.199855,79.199855 0 0 0 33.400391,-176 a 79.199855,79.199855 0 0 0 22.115234,54.76758 l 1.451172,-1.64063 A 76.954275,76.954275 0 0 1 35.646484,-176 76.954275,76.954275 0 0 1 112.59961,-252.95508 76.954275,76.954275 0 0 1 189.55469,-176 a 76.954275,76.954275 0 0 1 -20.69531,52.36523 l 1.59374,1.63086 A 79.199855,79.199855 0 0 0 191.80078,-176 79.199855,79.199855 0 0 0 112.59961,-255.19922 Z"
           transform="matrix(0.26458333,0,0,0.26458333,0,246.2)"
           id="path958-3" />
        <path
           style="fill:#661399;fill-opacity:1;stroke-width:0.11460204"
           d="m 17.603876,211.45097 c -1.518418,-0.26682 -2.641852,-1.70386 -2.642596,-3.38027 -6.95e-4,-1.78775 1.352517,-3.21801 3.117105,-3.29429 l 0.674868,-0.0292 4.306528,-8.61161 c 4.144957,-8.28857 4.298548,-8.61886 4.094094,-8.80388 -0.720101,-0.65168 -0.966792,-2.49759 -0.471283,-3.52645 1.005309,-2.08734 3.655906,-2.63584 5.332552,-1.1035 1.00973,0.92285 1.399161,2.3383 0.985122,3.58056 l -0.148148,0.44444 3.437154,3.43711 3.437111,3.43712 0.437861,-0.1445 c 1.146186,-0.37829 2.423016,-0.10627 3.311167,0.70548 1.748231,1.59777 1.459457,4.2345 -0.596735,5.4488 l -0.487063,0.28763 v 2.49946 2.49949 l 0.487063,0.28764 c 1.979128,1.1688 2.335992,3.69488 0.750743,5.31432 -1.570123,1.60401 -4.349273,1.19271 -5.375547,-0.79556 L 38.032053,209.274 h -2.516609 -2.516596 l -0.221825,0.42976 c -0.310546,0.60166 -0.998886,1.23247 -1.673775,1.5339 -1.538314,0.68704 -3.528988,-0.0214 -4.309643,-1.5339 L 26.571773,209.274 h -2.516596 -2.516595 l -0.221819,0.42976 c -0.663496,1.28545 -2.207106,2.01183 -3.712887,1.7472 z m 9.189729,-4.89874 c 0.555395,-1.07602 1.748524,-1.78981 2.991716,-1.78981 1.246098,0 2.278921,0.608 2.942993,1.7325 l 0.287656,0.48707 h 2.508038 2.508045 l 0.223154,-0.43743 c 0.12274,-0.24059 0.302023,-0.50288 0.398411,-0.58287 0.152861,-0.12687 -0.374937,-1.24593 -4.131291,-8.75938 l -4.306549,-8.61394 h -0.430457 -0.430465 l -4.306549,8.61394 c -3.75636,7.51345 -4.284151,8.63251 -4.13129,8.75938 0.0964,0.08 0.275671,0.34228 0.398397,0.58287 l 0.223168,0.43743 h 2.516595 2.516596 z m 13.30595,-5.01091 v -1.65878 l -0.372456,-0.18747 c -1.390964,-0.70012 -2.137251,-2.344 -1.750129,-3.85509 l 0.181779,-0.70953 -2.03255,-2.03489 c -1.1179,-1.1192 -2.050665,-2.01677 -2.07284,-1.9946 -0.03914,0.0391 5.958518,12.09915 6.017035,12.09915 0.01599,0 0.02913,-0.74645 0.02913,-1.65879 z"
           id="path4529-1"
           inkscape:connector-curvature="0" />
        <circle
           style="fill:none;fill-opacity:1;stroke:none;stroke-width:0.69513834;stroke-linecap:round;stroke-linejoin:round;stroke-miterlimit:4;stroke-dasharray:none;stroke-opacity:1"
           id="path4597-7"
           cx="-140.37842"
           cy="-145.1039"
           r="22.333387"
           transform="rotate(-144.43404)" />
        <circle
           style="fill:none;fill-opacity:1;stroke:none;stroke-width:0.69513834;stroke-linecap:round;stroke-linejoin:round;stroke-miterlimit:4;stroke-dasharray:none;stroke-opacity:1"
           id="path4597-1-8"
           cx="131.86206"
           cy="152.83353"
           r="22.333387"
           transform="matrix(-0.65243699,0.75784297,0.75784297,0.65243699,0,0)" />
        <g
           aria-label="root access"
           style="font-style:normal;font-variant:normal;font-weight:normal;font-stretch:normal;font-size:10.58333302px;line-height:1.25;font-family:'share tech';-inkscape-font-specification:'share tech';letter-spacing:0px;word-spacing:0px;fill:#000000;fill-opacity:1;stroke:none;stroke-width:0.26458332"
           id="text4601-5"
           transform="matrix(0.69513836,0,0,0.69513836,-15.31508,109.62413)">
          <path
             d="m 33.713962,105.4612 0.71831,-0.87088 0.29392,0.24243 q 0.0024,-0.60166 0.42439,-1.1133 l 0.655458,-0.79467 0.870873,0.71831 -0.745246,0.90353 q -0.296303,0.35924 -0.200475,0.73095 0.09583,0.37171 0.324432,0.56026 l 3.864501,3.1875 -0.763205,0.92531 z"
             style="font-size:14.11111069px"
             id="path4833-7"
             inkscape:connector-curvature="0" />
          <path
             d="m 44.320156,101.68953 q 0.766168,0.90444 0.660551,1.69667 -0.09485,0.78311 -1.031585,1.57664 l -0.139972,0.11858 q -0.936736,0.79353 -1.735553,0.76746 -0.78805,-0.0352 -1.554218,-0.93962 l -1.641789,-1.93807 q -0.766169,-0.90443 -0.671318,-1.68755 0.105617,-0.79223 1.042352,-1.585759 l 0.139972,-0.118574 q 0.936735,-0.793531 1.724785,-0.758346 0.798817,0.02607 1.564986,0.930499 z m -2.739412,-1.37812 q -0.282752,-0.333781 -0.642384,-0.343522 -0.359633,-0.0097 -0.758014,0.327742 l -0.355314,0.30099 q -0.398382,0.33748 -0.447898,0.69382 -0.04952,0.35634 0.233236,0.69012 l 2.006631,2.36876 q 0.282753,0.33378 0.642385,0.34352 0.359632,0.01 0.758014,-0.32774 l 0.355313,-0.301 q 0.398382,-0.33748 0.447899,-0.69382 0.04952,-0.35634 -0.233236,-0.69012 z"
             style="font-size:14.11111069px"
             id="path4835-4"
             inkscape:connector-curvature="0" />
          <path
             d="m 50.784628,97.978866 q 0.552567,1.048658 0.278209,1.799335 -0.261874,0.744099 -1.347985,1.316399 l -0.162292,0.0855 q -1.086111,0.5723 -1.860411,0.37419 -0.761816,-0.20469 -1.314383,-1.25335 l -1.184072,-2.247122 q -0.552568,-1.048659 -0.290693,-1.792757 0.274358,-0.750677 1.360469,-1.322978 l 0.162292,-0.08552 q 1.086111,-0.572301 1.847927,-0.367614 0.7743,0.19811 1.326867,1.246768 z M 48.40785,96.041205 q -0.203924,-0.387005 -0.552949,-0.474248 -0.349026,-0.08724 -0.810935,0.15615 l -0.411973,0.21708 q -0.461909,0.243392 -0.587277,0.580606 -0.125367,0.337214 0.07856,0.724219 l 1.4472,2.746487 q 0.203924,0.387001 0.552949,0.474251 0.349026,0.0872 0.810935,-0.15615 l 0.411973,-0.21708 q 0.461909,-0.243396 0.587277,-0.58061 0.125367,-0.337213 -0.07856,-0.724218 z"
             style="font-size:14.11111069px"
             id="path4837-1"
             inkscape:connector-curvature="0" />
          <path
             d="m 55.323341,98.801742 q -0.68572,0.21842 -1.190079,-0.109648 -0.504359,-0.328067 -0.735628,-1.054124 l -1.306236,-4.100879 -0.873958,0.278379 -0.321206,-1.008413 0.873958,-0.278378 -0.513929,-1.613461 1.142867,-0.364033 0.51393,1.61346 1.559678,-0.496798 0.321206,1.008413 -1.559679,0.496798 1.327651,4.168106 q 0.09422,0.295801 0.280665,0.3697 0.186446,0.0739 0.495692,-0.0246 l 0.954631,-0.304075 0.321206,1.008413 z"
             style="font-size:14.11111069px"
             id="path4839-8"
             inkscape:connector-curvature="0" />
          <path
             d="m 65.856904,97.387875 q -0.183391,0.0044 -0.411825,-0.102989 -0.214327,-0.107752 -0.374268,-0.301507 -0.314253,0.431036 -0.85032,0.443966 l -0.973383,0.02348 q -1.072133,0.02586 -1.576086,-0.385441 -0.490186,-0.425749 -0.515366,-1.469667 l -0.0068,-0.282141 q -0.05274,-2.186586 2.006883,-2.236264 l 1.467129,-0.03539 -0.01701,-0.70535 Q 64.595308,91.899255 64.321492,91.6659 64.047675,91.432546 63.525715,91.445136 l -1.904446,0.04594 -0.02552,-1.058026 1.763376,-0.04253 q 1.227309,-0.0296 1.818627,0.492513 0.605424,0.521775 0.634006,1.706764 l 0.08166,3.385682 q 0.0051,0.211605 0.163003,0.320718 0.171666,0.09467 0.552555,0.08548 l 0.02382,0.98749 z m -1.803002,-1.015153 q 0.42321,-0.01021 0.531302,-0.210428 0.108093,-0.20022 0.100607,-0.510574 l -0.03743,-1.551771 -1.481235,0.03573 q -0.366783,0.0088 -0.600817,0.25445 -0.234035,0.245604 -0.225188,0.612386 l 0.01701,0.705351 q 0.0088,0.366782 0.182214,0.531983 0.173367,0.165201 0.540149,0.156354 z"
             style="font-size:14.11111069px"
             id="path4841-5"
             inkscape:connector-curvature="0" />
          <path
             d="m 70.552243,97.964055 q -1.225011,-0.20337 -1.710247,-0.813184 -0.482925,-0.623734 -0.286487,-1.806984 l 0.415985,-2.505704 q 0.194126,-1.169329 0.852689,-1.603559 0.672483,-0.431919 1.883574,-0.23086 l 1.517343,0.251902 -0.173327,1.044044 -1.656549,-0.275012 q -0.515061,-0.08551 -0.81884,0.107232 -0.303778,0.19274 -0.37542,0.624278 l -0.508426,3.062528 q -0.07164,0.431538 0.153561,0.712098 0.225204,0.280559 0.740266,0.366067 l 1.656549,0.275012 -0.173327,1.044044 z"
             style="font-size:14.11111069px"
             id="path4843-9"
             inkscape:connector-curvature="0" />
          <path
             d="m 75.836384,99.429425 q -1.17215,-0.40997 -1.545892,-1.093814 -0.369083,-0.697165 0.02691,-1.829356 l 0.838575,-2.39758 q 0.391335,-1.118871 1.114483,-1.434018 0.736468,-0.310488 1.895299,0.09482 l 1.451868,0.507804 -0.349407,0.998992 -1.585066,-0.554391 q -0.492836,-0.172374 -0.825113,-0.03445 -0.332277,0.137921 -0.476698,0.550838 l -1.024925,2.930376 q -0.144422,0.412917 0.02946,0.727871 0.173879,0.314954 0.666715,0.487328 l 1.585067,0.554392 -0.349406,0.998991 z"
             style="font-size:14.11111069px"
             id="path4845-7"
             inkscape:connector-curvature="0" />
          <path
             d="m 80.788941,101.78295 q -1.07472,-0.62208 -1.313883,-1.36379 -0.232094,-0.753917 0.368784,-1.791998 l 1.272446,-2.19829 q 0.607947,-1.050294 1.321376,-1.240606 0.71343,-0.190312 1.763724,0.417634 l 0.329743,0.190867 q 0.867104,0.50191 1.023996,1.244908 0.176173,0.737855 -0.361082,1.666022 l -0.918989,1.587653 -3.00433,-1.73901 -0.530186,0.915954 q -0.219144,0.378595 -0.107277,0.720526 0.111866,0.34193 0.563736,0.60349 l 1.697569,0.98261 -0.530186,0.91595 z m 3.002645,-2.990293 0.530186,-0.915954 q 0.183798,-0.317531 0.09636,-0.645323 -0.08744,-0.327791 -0.404971,-0.511589 l -0.464084,-0.268628 q -0.439658,-0.254489 -0.743024,-0.15291 -0.284084,0.09643 -0.510297,0.487242 l -0.494841,0.854891 z"
             style="font-size:14.11111069px"
             id="path4847-5"
             inkscape:connector-curvature="0" />
          <path
             d="m 88.364032,105.26121 q -0.579843,0.67387 -1.282321,0.64651 -0.691782,-0.0182 -1.472618,-0.69004 l -1.379832,-1.1873 0.690289,-0.80223 1.486797,1.27934 q 0.288802,0.2485 0.539793,0.2597 0.260196,4.9e-4 0.462681,-0.23483 l 0.487804,-0.56691 q 0.414174,-0.48133 -0.04577,-0.8771 l -0.181839,-0.15646 q -0.748746,-0.64427 -0.847003,-1.2873 -0.07836,-0.64452 0.529097,-1.35048 l 0.266912,-0.310194 q 0.616658,-0.716657 1.290032,-0.677106 0.682578,0.02886 1.47411,0.70994 l 1.219387,1.04924 -0.690289,0.80223 -1.326351,-1.14128 q -0.267409,-0.2301 -0.538301,-0.2398 -0.261688,-0.0204 -0.464173,0.21493 l -0.331339,0.38506 q -0.211689,0.24602 -0.173878,0.48333 0.04851,0.24652 0.27313,0.4398 l 0.14975,0.12885 q 0.716657,0.61666 0.787303,1.29177 0.07985,0.66442 -0.509197,1.34899 z"
             style="font-size:14.11111069px"
             id="path4849-3"
             inkscape:connector-curvature="0" />
          <path
             d="m 92.152274,109.65231 q -0.687422,0.56371 -1.374642,0.41555 -0.678273,-0.13725 -1.331464,-0.93379 l -1.15427,-1.40758 0.818359,-0.67108 1.243748,1.51669 q 0.241592,0.29461 0.486887,0.34894 0.256207,0.0454 0.496259,-0.15146 l 0.578307,-0.47424 q 0.491015,-0.40265 0.106259,-0.87184 l -0.152113,-0.1855 q -0.626348,-0.7638 -0.612179,-1.41414 0.03403,-0.64837 0.754185,-1.23892 l 0.316432,-0.25949 q 0.731067,-0.59951 1.387517,-0.44436 0.667361,0.1462 1.3295,0.95365 l 1.020053,1.24391 -0.818359,0.67108 -1.109531,-1.35302 q -0.223696,-0.27278 -0.48885,-0.32908 -0.254244,-0.0652 -0.494296,0.13161 l -0.392812,0.32212 q -0.250964,0.2058 -0.254668,0.44607 0.0052,0.25119 0.193148,0.48033 l 0.12527,0.15276 q 0.599505,0.73107 0.552601,1.40825 -0.03599,0.66823 -0.734326,1.24089 z"
             style="font-size:14.11111069px"
             id="path4851-8"
             inkscape:connector-curvature="0" />
        </g>
        <g
           aria-label="fresno, ca"
           style="font-style:normal;font-variant:normal;font-weight:normal;font-stretch:normal;font-size:10.58333302px;line-height:1.25;font-family:'share tech';-inkscape-font-specification:'share tech';letter-spacing:0px;word-spacing:0px;fill:#000000;fill-opacity:1;stroke:none;stroke-width:0.26458332"
           id="text4623-8"
           transform="matrix(0.69513836,0,0,0.69513836,-15.957091,109.62413)">
          <path
             d="m 49.467459,150.05662 q -0.133654,-0.10398 -0.275672,-0.0938 -0.127167,0.008 -0.211646,0.11693 l -0.617346,0.79357 1.010752,0.7863 -0.487378,0.6265 -1.010752,-0.7863 -2.76181,3.55016 -0.710033,-0.55236 2.76181,-3.55016 -0.542966,-0.4224 0.487378,-0.6265 0.542967,0.4224 0.584853,-0.7518 q 0.331418,-0.42602 0.762117,-0.47981 0.437198,-0.0622 0.821451,0.23677 l 0.935572,0.72782 -0.487378,0.6265 z"
             style="letter-spacing:0.8493126px"
             id="path4854-3"
             inkscape:connector-curvature="0" />
          <path
             d="m 50.284358,152.22268 0.729516,0.42971 -0.145026,0.24621 q 0.445952,-0.069 0.874543,0.1835 l 0.665684,0.39211 -0.429709,0.72951 -0.756873,-0.44582 q -0.300926,-0.17726 -0.564999,-0.0626 -0.264074,0.11467 -0.376872,0.30617 l -1.906834,3.23723 -0.775112,-0.45656 z"
             style="letter-spacing:0.8493126px"
             id="path4856-1"
             inkscape:connector-curvature="0" />
          <path
             d="m 52.875154,159.42377 q -0.866372,-0.34173 -1.126339,-0.86522 -0.256084,-0.53333 0.074,-1.37016 l 0.698999,-1.77213 q 0.333966,-0.84668 0.841919,-1.06727 0.507953,-0.22058 1.354635,0.11338 l 0.265819,0.10485 q 0.699005,0.27572 0.898096,0.80932 0.212821,0.52765 -0.08231,1.27588 l -0.504833,1.27987 -2.421903,-0.9553 -0.29125,0.73838 q -0.120383,0.3052 6.58e-4,0.54635 0.121041,0.24115 0.485311,0.38484 l 1.368474,0.53978 -0.291249,0.73838 z m 1.894086,-2.55219 0.291249,-0.73838 q 0.100967,-0.25598 -3.84e-4,-0.48936 -0.101351,-0.23338 -0.357325,-0.33435 l -0.374115,-0.14757 q -0.354425,-0.1398 -0.568118,-0.0307 -0.199965,0.10316 -0.324232,0.4182 l -0.271833,0.68916 z"
             style="letter-spacing:0.8493126px"
             id="path4858-8"
             inkscape:connector-curvature="0" />
          <path
             d="m 59.766399,159.96788 q -0.136331,0.65266 -0.607445,0.88942 -0.460754,0.23892 -1.217014,0.081 l -1.336406,-0.27916 0.1623,-0.77698 1.440003,0.3008 q 0.279713,0.0584 0.448553,-0.0252 0.171004,-0.094 0.218612,-0.32193 l 0.114692,-0.54907 q 0.09738,-0.46618 -0.348089,-0.55924 l -0.176115,-0.0368 q -0.725182,-0.15148 -1.022852,-0.53802 -0.285147,-0.39472 -0.142324,-1.07847 l 0.06276,-0.30043 q 0.144988,-0.6941 0.601414,-0.9123 0.458589,-0.22856 1.225209,-0.0684 l 1.18101,0.24669 -0.1623,0.77698 -1.284607,-0.26833 q -0.258993,-0.0541 -0.440357,0.0377 -0.1792,0.0815 -0.226808,0.30941 l -0.0779,0.37295 q -0.04977,0.23828 0.0611,0.38037 0.121233,0.14425 0.338787,0.18969 l 0.145036,0.0303 q 0.694102,0.14499 0.985281,0.5626 0.293343,0.40725 0.154847,1.07027 z"
             style="letter-spacing:0.8493126px"
             id="path4860-9"
             inkscape:connector-curvature="0" />
          <path
             d="m 61.927689,156.2674 0.846246,0.0267 -0.008,0.25388 q 0.335934,-0.24352 0.854259,-0.22716 l 0.275029,0.009 q 0.856824,0.027 1.25668,0.44203 0.410435,0.41532 0.382388,1.30388 l -0.113524,3.59654 -0.899136,-0.0284 0.120202,-3.8081 q 0.01002,-0.31734 -0.174712,-0.50318 -0.173817,-0.19608 -0.491159,-0.2061 l -0.486591,-0.0154 q -0.349076,-0.011 -0.524335,0.17405 -0.174925,0.17448 -0.181603,0.38604 l -0.123541,3.91389 -0.899135,-0.0284 z"
             style="letter-spacing:0.8493126px"
             id="path4862-6"
             inkscape:connector-curvature="0" />
          <path
             d="m 71.231557,159.26385 q 0.139475,0.87799 -0.236425,1.34491 -0.365447,0.46527 -1.274795,0.60972 l -0.135879,0.0216 q -0.909348,0.14445 -1.411439,-0.183 -0.491639,-0.32911 -0.631113,-1.2071 l -0.298874,-1.88141 q -0.139475,-0.87799 0.225973,-1.34325 0.3759,-0.46692 1.285247,-0.61138 l 0.13588,-0.0216 q 0.909347,-0.14446 1.400986,0.18465 0.502091,0.32745 0.641566,1.20544 z m -1.220525,-1.94932 q -0.05147,-0.32402 -0.278293,-0.47016 -0.22682,-0.14614 -0.613554,-0.0847 l -0.344925,0.0548 q -0.386734,0.0614 -0.5571,0.27067 -0.170366,0.20923 -0.118893,0.53325 l 0.36529,2.2995 q 0.05147,0.32402 0.278293,0.47016 0.22682,0.14615 0.613554,0.0847 l 0.344925,-0.0548 q 0.386734,-0.0614 0.5571,-0.27067 0.170366,-0.20924 0.118894,-0.53326 z"
             style="letter-spacing:0.8493126px"
             id="path4864-4"
             inkscape:connector-curvature="0" />
          <path
             d="m 74.520806,161.61664 -0.787997,0.24599 -0.03742,-1.54051 -0.315371,-1.01025 1.010253,-0.31537 0.315371,1.01025 z"
             style="letter-spacing:0.8493126px"
             id="path4866-3"
             inkscape:connector-curvature="0" />
          <path
             d="m 81.639354,156.74957 q -0.796025,0.48345 -1.37017,0.374 -0.579639,-0.11849 -1.046609,-0.88738 l -0.988878,-1.62824 q -0.461477,-0.75984 -0.299365,-1.32882 0.171158,-0.57448 0.958138,-1.05244 l 0.985986,-0.59882 0.412032,0.67843 -1.076443,0.65376 q -0.334692,0.20327 -0.413167,0.46143 -0.07847,0.25816 0.09183,0.53858 l 1.208629,1.99006 q 0.170306,0.28042 0.43557,0.32982 0.265263,0.0494 0.599955,-0.15388 l 1.076443,-0.65376 0.412033,0.67843 z"
             style="letter-spacing:0.8493126px"
             id="path4868-3"
             inkscape:connector-curvature="0" />
          <path
             d="m 86.783601,152.7883 q -0.103773,0.0903 -0.287085,0.13766 -0.175328,0.0404 -0.36042,0.005 0.02487,0.3993 -0.278471,0.66335 l -0.550795,0.47947 q -0.606674,0.52811 -1.094527,0.53184 -0.48682,-0.0112 -1.001031,-0.60191 l -0.138976,-0.15965 q -1.077065,-1.23729 0.08839,-2.25182 l 0.830185,-0.72267 -0.34744,-0.39913 q -0.215413,-0.24746 -0.485211,-0.25114 -0.269798,-0.004 -0.565152,0.25343 l -1.077644,0.93809 -0.52116,-0.59869 0.997818,-0.8686 q 0.694481,-0.60454 1.28582,-0.58611 0.599322,0.0115 1.183022,0.68202 l 1.667713,1.91581 q 0.104232,0.11974 0.24763,0.10717 0.144433,-0.0275 0.359961,-0.21513 l 0.486417,0.55878 z m -1.526962,0.27686 q 0.239477,-0.20846 0.206054,-0.37581 -0.03342,-0.16735 -0.186297,-0.34296 l -0.764368,-0.87808 -0.838168,0.72962 q -0.207546,0.18067 -0.225119,0.4345 -0.01757,0.25384 0.163095,0.46138 l 0.34744,0.39913 q 0.180669,0.20755 0.359845,0.21995 0.179177,0.0124 0.386723,-0.16826 z"
             style="letter-spacing:0.8493126px"
             id="path4870-3"
             inkscape:connector-curvature="0" />
        </g>
        <path
           style="fill:#9f98a4;fill-opacity:1;stroke:none;stroke-width:0.53975451;stroke-linecap:round;stroke-linejoin:round;stroke-miterlimit:4;stroke-dasharray:none;stroke-opacity:1"
           d="M 9.6570333,185.69163 A 24.524192,24.524192 0 0 0 5.2676795,199.64384 24.524192,24.524192 0 0 0 29.7923,224.168 24.524192,24.524192 0 0 0 54.316573,199.64384 24.524192,24.524192 0 0 0 50.133404,185.95997 l -0.507583,0.42676 A 23.873931,23.873931 0 0 1 53.666375,199.64384 23.873931,23.873931 0 0 1 29.7923,223.51781 23.873931,23.873931 0 0 1 5.9182316,199.64384 23.873931,23.873931 0 0 1 10.159952,186.06882 Z"
           id="path4657-8"
           inkscape:connector-curvature="0" />
        <circle
           style="fill:#f3cdcd;fill-opacity:0;stroke:none;stroke-width:0.53975451;stroke-linecap:round;stroke-linejoin:round;stroke-miterlimit:4;stroke-dasharray:none;stroke-opacity:1"
           id="path4657-1-6"
           cx="29.792126"
           cy="199.64389"
           r="24.524197" />
      </g>
    </g>
  </g>
</svg>
