<?xml version="1.0" encoding="UTF-8" standalone="no"?>
<!-- Created with Inkscape (http://www.inkscape.org/) -->

<svg
   xmlns:dc="http://purl.org/dc/elements/1.1/"
   xmlns:cc="http://creativecommons.org/ns#"
   xmlns:rdf="http://www.w3.org/1999/02/22-rdf-syntax-ns#"
   xmlns:svg="http://www.w3.org/2000/svg"
   xmlns="http://www.w3.org/2000/svg"
   xmlns:sodipodi="http://sodipodi.sourceforge.net/DTD/sodipodi-0.dtd"
   xmlns:inkscape="http://www.inkscape.org/namespaces/inkscape"
   width="3in"
   height="3in"
   viewBox="0 0 76.2 76.2"
   version="1.1"
   id="svg8"
   inkscape:version="0.92.5 (2060ec1f9f, 2020-04-08)"
   sodipodi:docname="women_in_engineering_logo.svg">
  <defs
     id="defs2">
    <circle
       transform="matrix(-0.79691665,0.60408927,0.60408927,0.79691665,0,0)"
       r="49.405731"
       cy="176.09061"
       cx="27.304571"
       id="path1050-0-9"
       style="opacity:1;vector-effect:none;fill:none;fill-opacity:1;stroke:none;stroke-width:0;stroke-linecap:round;stroke-linejoin:round;stroke-miterlimit:4;stroke-dasharray:none;stroke-dashoffset:0;stroke-opacity:1" />
    <circle
       style="opacity:0.925;vector-effect:none;fill:none;fill-opacity:1;stroke:none;stroke-width:0;stroke-linecap:round;stroke-linejoin:round;stroke-miterlimit:4;stroke-dasharray:none;stroke-dashoffset:0;stroke-opacity:1"
       id="path1050-6"
       cx="-93.178818"
       cy="-86.739685"
       r="49.405727"
       transform="rotate(-170.92621)" />
    <circle
       transform="matrix(-0.79691665,0.60408927,0.60408927,0.79691665,0,0)"
       r="49.405731"
       cy="176.09061"
       cx="27.304571"
       id="path1050-0-6"
       style="opacity:1;vector-effect:none;fill:none;fill-opacity:1;stroke:none;stroke-width:0;stroke-linecap:round;stroke-linejoin:round;stroke-miterlimit:4;stroke-dasharray:none;stroke-dashoffset:0;stroke-opacity:1" />
    <circle
       style="opacity:0.925;vector-effect:none;fill:none;fill-opacity:1;stroke:none;stroke-width:0;stroke-linecap:round;stroke-linejoin:round;stroke-miterlimit:4;stroke-dasharray:none;stroke-dashoffset:0;stroke-opacity:1"
       id="path1050-04"
       cx="-93.178818"
       cy="-86.739685"
       r="49.405727"
       transform="rotate(-170.92621)" />
    <circle
       transform="rotate(-170.92621)"
       r="49.405727"
       cy="-86.739685"
       cx="-93.178818"
       id="path1050-4"
       style="opacity:0.925;vector-effect:none;fill:none;fill-opacity:1;stroke:none;stroke-width:0;stroke-linecap:round;stroke-linejoin:round;stroke-miterlimit:4;stroke-dasharray:none;stroke-dashoffset:0;stroke-opacity:1" />
    <circle
       style="opacity:1;vector-effect:none;fill:none;fill-opacity:1;stroke:none;stroke-width:0;stroke-linecap:round;stroke-linejoin:round;stroke-miterlimit:4;stroke-dasharray:none;stroke-dashoffset:0;stroke-opacity:1"
       id="path1050-0-3"
       cx="27.304571"
       cy="176.09061"
       r="49.405731"
       transform="matrix(-0.79691665,0.60408927,0.60408927,0.79691665,0,0)" />
    <filter
       inkscape:collect="always"
       style="color-interpolation-filters:sRGB"
       id="filter981"
       x="-0.012"
       width="1.024"
       y="-0.012"
       height="1.024">
      <feGaussianBlur
         inkscape:collect="always"
         stdDeviation="0.38785379"
         id="feGaussianBlur983" />
    </filter>
  </defs>
  <sodipodi:namedview
     id="base"
     pagecolor="#ffffff"
     bordercolor="#666666"
     borderopacity="1.0"
     inkscape:pageopacity="0.0"
     inkscape:pageshadow="2"
     inkscape:zoom="1.7458333"
     inkscape:cx="206.42499"
     inkscape:cy="185.95306"
     inkscape:document-units="mm"
     inkscape:current-layer="layer1"
     showgrid="false"
     inkscape:window-width="1680"
     inkscape:window-height="1013"
     inkscape:window-x="0"
     inkscape:window-y="30"
     inkscape:window-maximized="1"
     showguides="false"
     inkscape:guide-bbox="true"
     units="in" />
  <metadata
     id="metadata5">
    <rdf:RDF>
      <cc:Work
         rdf:about="">
        <dc:format>image/svg+xml</dc:format>
        <dc:type
           rdf:resource="http://purl.org/dc/dcmitype/StillImage" />
        <dc:title />
      </cc:Work>
    </rdf:RDF>
  </metadata>
  <g
     inkscape:label="Layer 1"
     inkscape:groupmode="layer"
     id="layer1"
     transform="translate(0,-220.79998)">
    <g
       id="g1026"
       transform="matrix(0.9427622,0,0,0.9427622,127.1957,49.999345)">
      <path
         inkscape:connector-curvature="0"
         id="path1050-0-6-3-6-3"
         d="m -94.085227,182.79772 a 38.785527,38.785527 0 0 0 -38.785103,38.78564 38.785527,38.785527 0 0 0 38.785103,38.78512 38.785527,38.785527 0 0 0 38.785652,-38.78512 38.785527,38.785527 0 0 0 -38.785652,-38.78564 z"
         style="opacity:1;vector-effect:none;fill:#888266;fill-opacity:0.99215686;stroke:none;stroke-width:0.55155891;stroke-linecap:round;stroke-linejoin:round;stroke-miterlimit:4;stroke-dasharray:none;stroke-dashoffset:0;stroke-opacity:0.99607843;filter:url(#filter981)" />
      <path
         inkscape:connector-curvature="0"
         id="path1050-0-6-3-6"
         d="m -94.085228,181.73938 a 38.785527,38.785527 0 0 0 -38.785102,38.78564 38.785527,38.785527 0 0 0 38.785102,38.78512 38.785527,38.785527 0 0 0 38.785652,-38.78512 38.785527,38.785527 0 0 0 -38.785652,-38.78564 z"
         style="opacity:1;vector-effect:none;fill:#ffffff;fill-opacity:1;stroke:#988787;stroke-width:0.30000001;stroke-linecap:round;stroke-linejoin:round;stroke-miterlimit:4;stroke-dasharray:none;stroke-dashoffset:0;stroke-opacity:0.99607843" />
      <path
         inkscape:connector-curvature="0"
         id="path1050-0-6-3"
         d="m -94.085246,183.84601 a 36.67878,36.67878 0 0 0 -36.678584,36.6789 36.67878,36.67878 0 0 0 36.678584,36.67858 36.67878,36.67878 0 0 0 36.678895,-36.67858 36.67878,36.67878 0 0 0 -36.678895,-36.6789 z m 0,8.08964 a 28.589224,28.589224 0 0 1 28.589258,28.58926 28.589224,28.589224 0 0 1 -28.589258,28.58895 28.589224,28.589224 0 0 1 -28.589264,-28.58895 28.589224,28.589224 0 0 1 28.589264,-28.58926 z"
         style="opacity:1;vector-effect:none;fill:#d0103a;fill-opacity:1;stroke:none;stroke-width:0.52159941;stroke-linecap:round;stroke-linejoin:round;stroke-miterlimit:4;stroke-dasharray:none;stroke-dashoffset:0;stroke-opacity:1" />
      <path
         sodipodi:nodetypes="cccccccccccccccsccccccccsccssccccccccccscsscccccccccccccccccccsccccccccccccccccccscccs"
         inkscape:connector-curvature="0"
         id="path845"
         d="m -103.93803,197.14522 c -1.07948,-0.009 -2.19835,0.51957 -3.13727,1.08679 -1.75671,1.06124 -2.67895,1.77766 -2.74492,3.16793 -0.0713,1.50306 1.88503,3.65278 2.54269,5.72447 0.29839,1.37525 0.0947,2.87866 -0.45415,4.2515 l 2.93232,1.693 c -0.45787,0.16474 -0.74416,0.67334 -0.97554,1.07566 -0.25009,0.43486 -0.52189,1.00314 -0.43907,1.48829 l -3.03739,-1.75356 c -0.84339,0.97007 -1.87946,1.69675 -2.99635,1.99262 -2.12298,0.46627 -4.9628,-0.15318 -6.22881,0.66009 -1.17104,0.75224 -1.33039,1.90928 -1.3711,3.96127 -0.0277,1.40387 0.14691,3.03111 1.19879,3.96128 1.98104,1.75189 7.39872,-1.60564 10.61233,4.11998 3.16782,5.64417 -1.48645,8.10998 -1.6836,10.79083 -0.12037,1.63682 1.453,2.6009 2.63912,3.34518 1.23448,0.77463 2.92644,1.6471 4.24829,1.0334 1.49793,-0.69545 2.24783,-3.42992 3.579799,-5.00134 1.106503,-1.02423 2.432937,-1.64306 3.786974,-1.90412 v -2.92515 c 0.370606,0.32933 0.964758,0.32367 1.436119,0.32288 0.49427,-0.001 1.111401,-0.0478 1.49175,-0.34982 v 2.93355 c 1.433346,0.26235 2.727964,0.92433 3.620591,1.92266 1.331975,1.57142 2.081623,4.30589 3.579555,5.00134 1.32187,0.6137 3.013825,-0.25877 4.24829,-1.0334 1.186108,-0.74428 2.759497,-1.70836 2.639116,-3.34518 -0.197143,-2.68085 -4.85119,-5.14666 -1.683351,-10.79083 3.213574,-5.72563 8.63104,-2.36809 10.612088,-4.11998 1.051849,-0.93017 1.226879,-2.55741 1.19904,-3.96128 -0.04072,-2.05199 -0.20008,-3.20903 -1.371107,-3.96127 -1.266042,-0.81327 -4.106078,-0.19382 -6.22905,-0.66009 -1.470045,-0.49238 -2.690088,-1.43289 -3.587959,-2.57953 l -2.974104,1.71722 c 0.08404,-0.51275 -0.187163,-1.05612 -0.477146,-1.49694 -0.366474,-0.55702 -0.635896,-0.90128 -1.016828,-1.02153 l 3.094497,-1.78644 c -0.410972,-1.29186 -0.463766,-2.62183 -0.089,-3.76175 0.694909,-1.93923 2.687906,-3.95589 2.541223,-5.60086 -0.129459,-1.45162 -1.731022,-2.48072 -3.019102,-3.16248 -1.237623,-0.65506 -2.859066,-1.53552 -4.216402,-0.61288 -2.223119,1.51117 -2.031348,6.77465 -8.503261,6.85329 -6.565332,0.0798 -6.366642,-6.29072 -8.874342,-7.13042 -0.29127,-0.0975 -0.5905,-0.14196 -0.89273,-0.14438 z m 11.218276,12.87146 c 2.57591,0.33084 4.86284,1.58408 6.518792,3.4186 -1.032136,0.64958 -2.163702,1.40452 -2.622545,1.56988 -0.450262,0.14079 -0.966282,0.11527 -1.468762,-0.0363 l -1.142666,2.1679 c 0.394122,0.3034 0.74247,0.68023 1.023011,1.12562 1.174401,1.86454 0.753186,4.28 -0.900388,5.64809 l 1.253423,1.99015 c 0.524607,-0.20445 1.117752,-0.27921 1.722904,-0.16613 0.552533,0.17431 1.821971,0.85542 2.571376,1.4109 -1.565812,1.97189 -3.81795,3.37285 -6.395185,3.84507 0.130497,-0.78687 0.668215,-4.07569 1.08531,-4.45893 l -1.254414,-1.99187 c -1.935825,0.85776 -4.258792,0.1887 -5.420626,-1.65591 -0.343048,-0.54465 -0.549597,-1.13618 -0.629431,-1.73503 l -2.315745,0.0893 c -0.0607,0.59154 -0.27765,1.18174 -0.67838,1.67173 -0.46398,0.45743 -1.76692,1.13484 -2.53108,1.68311 -0.51429,-1.24697 -0.80026,-2.6122 -0.80026,-4.04485 0,-1.16539 0.18958,-2.28596 0.53647,-3.33505 0.29649,0.1616 0.56735,0.31811 0.75107,0.46207 0.37754,0.31226 2.49455,1.83414 2.63367,2.36988 l 2.411425,-0.093 c 0.176085,-1.21264 0.862169,-2.34328 1.980262,-3.04753 1.218985,-0.76779 2.673367,-0.85338 3.916765,-0.35873 l 1.112753,-2.11104 c -0.48836,-0.35485 -0.885912,-0.82982 -1.082099,-1.36987 -0.196798,-0.75585 -0.21437,-2.37248 -0.27565,-3.04802 z m -3.484868,0.12485 c 0.135378,1.09374 0.70125,3.57976 -1.356023,4.84088 -1.425429,0.87381 -3.363105,-0.12823 -4.874515,-0.99334 1.52779,-1.94236 3.717927,-3.33837 6.230538,-3.84754 z m 11.947336,6.3801 c 0.509385,1.24181 0.791115,2.60095 0.791115,4.02628 0,1.18889 -0.196351,2.33164 -0.556751,3.39885 -1.18385,-0.69717 -3.38317,-1.50349 -3.491289,-3.63668 -0.08496,-1.67646 1.777754,-2.87337 3.256925,-3.78845 z m -14.200781,9.54013 c 0.425364,-0.0101 0.862323,0.0804 1.304105,0.32016 1.393134,0.75614 1.462582,2.87056 1.407198,4.65299 -2.457856,-0.38641 -4.635366,-1.61453 -6.228056,-3.38177 0.90649,-0.49409 2.150865,-1.55909 3.516753,-1.59138 z"
         style="opacity:1;fill:#d0103a;fill-opacity:1;stroke:none;stroke-width:0;stroke-linecap:butt;stroke-linejoin:miter;stroke-miterlimit:4;stroke-dasharray:none;stroke-opacity:1" />
      <g
         transform="matrix(0.61975169,0,0,0.61975169,-142.63238,158.18426)"
         id="text1054"
         style="font-style:normal;font-variant:normal;font-weight:normal;font-stretch:normal;font-size:10.58333302px;line-height:1.25;font-family:FreeMono;-inkscape-font-specification:'FreeMono, Normal';font-variant-ligatures:normal;font-variant-caps:normal;font-variant-numeric:normal;font-feature-settings:normal;text-align:start;letter-spacing:0px;word-spacing:0px;writing-mode:lr-tb;text-anchor:start;opacity:0.925;fill:#ffffff;fill-opacity:1;stroke:#ffffff;stroke-width:0.21166667;stroke-linecap:round;stroke-linejoin:round;stroke-miterlimit:4;stroke-dasharray:none;stroke-opacity:1"
         aria-label="WOMEN IN ENGINEERING">
        <path
           id="path5179"
           style="font-style:normal;font-variant:normal;font-weight:normal;font-stretch:normal;font-size:11.64166641px;line-height:1.25;font-family:FreeMono;-inkscape-font-specification:'FreeMono, Normal';font-variant-ligatures:normal;font-variant-caps:normal;font-variant-numeric:normal;font-feature-settings:normal;text-align:start;writing-mode:lr-tb;text-anchor:start;fill:#ffffff;fill-opacity:1;stroke:#ffffff;stroke-width:0.21166667;stroke-linecap:round;stroke-linejoin:round;stroke-miterlimit:4;stroke-dasharray:none;stroke-opacity:1"
           d="m 29.747413,91.148936 -6.077448,-0.694157 -0.0395,0.170099 q -0.0711,0.306179 -0.309237,0.250881 -0.226799,-0.05267 -0.155701,-0.358844 l 0.392353,-1.689652 q 0.07373,-0.317518 0.30053,-0.264853 0.238139,0.0553 0.164408,0.372816 l -0.244892,1.054615 5.545277,0.618388 -4.150336,-2.302306 0.163261,-0.703077 4.732283,-0.203823 -5.24772,-1.899801 -0.252791,1.088635 q -0.0711,0.306179 -0.309237,0.25088 -0.226799,-0.05266 -0.155701,-0.358843 l 0.394987,-1.700992 q 0.0711,-0.306179 0.297896,-0.253514 0.238139,0.0553 0.167041,0.361477 l -0.0395,0.170099 5.756191,2.07763 -0.168527,0.725757 -4.830903,0.216776 4.233156,2.357392 z"
           inkscape:connector-curvature="0" />
        <path
           id="path5181"
           style="font-style:normal;font-variant:normal;font-weight:normal;font-stretch:normal;font-size:11.64166641px;line-height:1.25;font-family:FreeMono;-inkscape-font-specification:'FreeMono, Normal';font-variant-ligatures:normal;font-variant-caps:normal;font-variant-numeric:normal;font-feature-settings:normal;text-align:start;writing-mode:lr-tb;text-anchor:start;fill:#ffffff;fill-opacity:1;stroke:#ffffff;stroke-width:0.21166667;stroke-linecap:round;stroke-linejoin:round;stroke-miterlimit:4;stroke-dasharray:none;stroke-opacity:1"
           d="m 26.01599,80.038508 q 0.445637,-1.150741 1.688606,-1.555762 1.236317,-0.420081 2.615035,0.113843 1.313582,0.508698 1.940301,1.662744 0.615863,1.149842 0.182838,2.268015 -0.437228,1.129029 -1.677749,1.559966 -1.236317,0.420081 -2.582467,-0.10123 -1.34615,-0.521311 -1.977073,-1.664501 -0.626719,-1.154046 -0.189491,-2.283075 z m 0.445098,0.172369 q -0.361554,0.93362 0.196198,1.911148 0.557752,0.977528 1.697637,1.418961 1.139885,0.441432 2.21054,0.09452 1.070655,-0.34691 1.432209,-1.28053 0.357351,-0.922764 -0.189545,-1.896088 -0.553548,-0.988384 -1.671721,-1.421409 -1.172453,-0.454045 -2.243108,-0.107135 -1.066451,0.336054 -1.43221,1.28053 z"
           inkscape:connector-curvature="0" />
        <path
           id="path5183"
           style="font-style:normal;font-variant:normal;font-weight:normal;font-stretch:normal;font-size:11.64166641px;line-height:1.25;font-family:FreeMono;-inkscape-font-specification:'FreeMono, Normal';font-variant-ligatures:normal;font-variant-caps:normal;font-variant-numeric:normal;font-feature-settings:normal;text-align:start;writing-mode:lr-tb;text-anchor:start;fill:#ffffff;fill-opacity:1;stroke:#ffffff;stroke-width:0.21166667;stroke-linecap:round;stroke-linejoin:round;stroke-miterlimit:4;stroke-dasharray:none;stroke-opacity:1"
           d="m 33.678745,74.920117 -0.262296,0.466882 -4.489444,-0.399053 -0.04562,0.0812 4.88196,2.742709 0.421955,-0.751071 q 0.159659,-0.284189 0.362651,-0.170147 0.213142,0.119744 0.05348,0.403933 l -0.849612,1.512291 Q 33.597862,79.0809 33.38472,78.961156 33.181728,78.847114 33.33568,78.573075 l 0.193871,-0.345087 -4.88196,-2.742709 -0.142552,0.253741 q -0.153957,0.274039 -0.367099,0.154295 -0.202992,-0.114042 -0.04903,-0.388081 l 0.564508,-1.004811 4.427291,0.390842 -2.653939,-3.547369 0.57021,-1.014961 q 0.153956,-0.274039 0.356949,-0.159997 0.213141,0.119744 0.05918,0.393783 l -0.142553,0.25374 4.88196,2.742709 0.193871,-0.345086 q 0.153957,-0.27404 0.356949,-0.159998 0.213142,0.119744 0.05918,0.393784 l -0.849612,1.512291 q -0.153957,0.274039 -0.367099,0.154295 -0.202992,-0.114042 -0.04903,-0.388081 l 0.421955,-0.751071 -4.88196,-2.742709 -0.04562,0.0812 z"
           inkscape:connector-curvature="0" />
        <path
           id="path5185"
           style="font-style:normal;font-variant:normal;font-weight:normal;font-stretch:normal;font-size:11.64166641px;line-height:1.25;font-family:FreeMono;-inkscape-font-specification:'FreeMono, Normal';font-variant-ligatures:normal;font-variant-caps:normal;font-variant-numeric:normal;font-feature-settings:normal;text-align:start;writing-mode:lr-tb;text-anchor:start;fill:#ffffff;fill-opacity:1;stroke:#ffffff;stroke-width:0.21166667;stroke-linecap:round;stroke-linejoin:round;stroke-miterlimit:4;stroke-dasharray:none;stroke-opacity:1"
           d="m 35.618684,69.642449 2.134394,1.635938 2.223743,-2.901298 -1.099536,-0.842756 q -0.249475,-0.191213 -0.100753,-0.385249 0.141639,-0.184796 0.391114,0.0064 l 1.478368,1.133117 -3.186892,4.15791 q -0.191214,0.249475 -0.38525,0.100753 -0.184796,-0.14164 0.0064,-0.391114 l 0.382427,-0.498949 -4.444344,-3.406434 -0.382427,0.498949 q -0.191214,0.249475 -0.38525,0.100753 -0.184796,-0.14164 0.0064,-0.391114 l 3.038171,-3.963875 1.284332,0.984396 q 0.249474,0.191213 0.100753,0.385249 -0.14164,0.184796 -0.391114,-0.0064 l -0.905501,-0.694035 -2.075021,2.707262 1.931118,1.480134 1.026888,-1.339771 -0.415791,-0.318689 q -0.249475,-0.191213 -0.100753,-0.385249 0.14164,-0.184796 0.391114,0.0064 l 1.210414,0.92774 q 0.249475,0.191214 0.107835,0.37601 -0.148722,0.194035 -0.398196,0.0028 l -0.415791,-0.318689 z"
           inkscape:connector-curvature="0" />
        <path
           id="path5187"
           style="font-style:normal;font-variant:normal;font-weight:normal;font-stretch:normal;font-size:11.64166641px;line-height:1.25;font-family:FreeMono;-inkscape-font-specification:'FreeMono, Normal';font-variant-ligatures:normal;font-variant-caps:normal;font-variant-numeric:normal;font-feature-settings:normal;text-align:start;writing-mode:lr-tb;text-anchor:start;fill:#ffffff;fill-opacity:1;stroke:#ffffff;stroke-width:0.21166667;stroke-linecap:round;stroke-linejoin:round;stroke-miterlimit:4;stroke-dasharray:none;stroke-opacity:1"
           d="m 45.385398,63.457813 -0.432251,0.423825 -6.643164,-1.703612 3.773675,3.848697 0.623439,-0.611286 q 0.224438,-0.220063 0.387448,-0.05381 0.17116,0.174563 -0.05328,0.394626 l -1.246878,1.222573 q -0.224438,0.220063 -0.395598,0.0455 -0.16301,-0.16625 0.06143,-0.386313 l 0.282626,-0.277117 -3.920384,-3.998322 -0.448876,0.440126 q -0.224438,0.220063 -0.395598,0.0455 -0.16301,-0.16625 0.06143,-0.386313 l 0.881127,-0.863952 6.643164,1.703612 -3.773675,-3.848696 -0.615127,0.603136 q -0.23275,0.228213 -0.40391,0.05365 -0.16301,-0.16625 0.06974,-0.394464 L 41.0793,58.500748 q 0.224438,-0.220063 0.387448,-0.05381 0.17116,0.174563 -0.05328,0.394626 l -0.282626,0.277117 z"
           inkscape:connector-curvature="0" />
        <path
           id="path5189"
           style="font-style:normal;font-variant:normal;font-weight:normal;font-stretch:normal;font-size:11.64166641px;line-height:1.25;font-family:FreeMono;-inkscape-font-specification:'FreeMono, Normal';font-variant-ligatures:normal;font-variant-caps:normal;font-variant-numeric:normal;font-feature-settings:normal;text-align:start;writing-mode:lr-tb;text-anchor:start;fill:#ffffff;fill-opacity:1;stroke:#ffffff;stroke-width:0.21166667;stroke-linecap:round;stroke-linejoin:round;stroke-miterlimit:4;stroke-dasharray:none;stroke-opacity:1"
           d="m 52.24737,51.377658 2.656426,4.929441 1.424516,-0.767657 q 0.286953,-0.154636 0.397407,0.05033 0.115977,0.215215 -0.170976,0.369851 l -3.269213,1.761746 q -0.276705,0.149113 -0.392682,-0.0661 -0.110454,-0.204966 0.16625,-0.354079 l 1.424517,-0.767658 -2.656426,-4.929441 -1.424516,0.767658 q -0.276705,0.149113 -0.392682,-0.0661 -0.110454,-0.204966 0.166251,-0.354079 l 3.269213,-1.761746 q 0.286953,-0.154636 0.397407,0.05033 0.115977,0.215215 -0.170976,0.369851 z"
           inkscape:connector-curvature="0" />
        <path
           id="path5191"
           style="font-style:normal;font-variant:normal;font-weight:normal;font-stretch:normal;font-size:11.64166641px;line-height:1.25;font-family:FreeMono;-inkscape-font-specification:'FreeMono, Normal';font-variant-ligatures:normal;font-variant-caps:normal;font-variant-numeric:normal;font-feature-settings:normal;text-align:start;writing-mode:lr-tb;text-anchor:start;fill:#ffffff;fill-opacity:1;stroke:#ffffff;stroke-width:0.21166667;stroke-linecap:round;stroke-linejoin:round;stroke-miterlimit:4;stroke-dasharray:none;stroke-opacity:1"
           d="m 63.482736,53.158711 -0.568023,0.209329 -5.360554,-4.27766 1.863832,5.05759 0.819264,-0.301917 q 0.294935,-0.10869 0.375446,0.109781 0.08454,0.229394 -0.210398,0.338084 l -1.638528,0.603833 q -0.294935,0.10869 -0.379472,-0.120704 -0.08051,-0.21847 0.214424,-0.32716 l 0.3714,-0.136869 -1.936292,-5.254214 -0.58987,0.21738 q -0.294935,0.10869 -0.379472,-0.120704 -0.08051,-0.21847 0.214424,-0.32716 l 1.157893,-0.426709 5.360554,4.27766 -1.863832,-5.05759 -0.808341,0.297891 q -0.305858,0.112716 -0.390395,-0.116678 -0.08051,-0.218471 0.225347,-0.331186 L 61.587748,46.8719 q 0.294935,-0.10869 0.375446,0.109781 0.08454,0.229394 -0.210398,0.338084 l -0.3714,0.136868 z"
           inkscape:connector-curvature="0" />
        <path
           id="path5193"
           style="font-style:normal;font-variant:normal;font-weight:normal;font-stretch:normal;font-size:11.64166641px;line-height:1.25;font-family:FreeMono;-inkscape-font-specification:'FreeMono, Normal';font-variant-ligatures:normal;font-variant-caps:normal;font-variant-numeric:normal;font-feature-settings:normal;text-align:start;writing-mode:lr-tb;text-anchor:start;fill:#ffffff;fill-opacity:1;stroke:#ffffff;stroke-width:0.21166667;stroke-linecap:round;stroke-linejoin:round;stroke-miterlimit:4;stroke-dasharray:none;stroke-opacity:1"
           d="m 73.116105,48.000495 0.184498,2.682889 3.64687,-0.250789 -0.09504,-1.382095 q -0.02156,-0.313584 0.222334,-0.330356 0.232285,-0.01597 0.253849,0.29761 L 77.456407,50.876032 72.23,51.235443 q -0.313584,0.02157 -0.330357,-0.222334 -0.01597,-0.232285 0.297611,-0.25385 l 0.627169,-0.04313 -0.384171,-5.586448 -0.627168,0.04313 q -0.313585,0.02156 -0.330357,-0.222334 -0.01597,-0.232285 0.29761,-0.253849 l 4.982508,-0.342639 0.111018,1.614379 q 0.02156,0.313585 -0.222334,0.330357 -0.232285,0.01597 -0.25385,-0.29761 l -0.07827,-1.138196 -3.402971,0.234017 0.166927,2.427375 1.684064,-0.11581 -0.03594,-0.522641 q -0.02156,-0.313584 0.222334,-0.330356 0.232285,-0.01597 0.253849,0.29761 l 0.104629,1.521465 q 0.02157,0.313584 -0.21072,0.329558 -0.243899,0.01677 -0.265464,-0.296812 l -0.03594,-0.52264 z"
           inkscape:connector-curvature="0" />
        <path
           id="path5195"
           style="font-style:normal;font-variant:normal;font-weight:normal;font-stretch:normal;font-size:11.64166641px;line-height:1.25;font-family:FreeMono;-inkscape-font-specification:'FreeMono, Normal';font-variant-ligatures:normal;font-variant-caps:normal;font-variant-numeric:normal;font-feature-settings:normal;text-align:start;writing-mode:lr-tb;text-anchor:start;fill:#ffffff;fill-opacity:1;stroke:#ffffff;stroke-width:0.21166667;stroke-linecap:round;stroke-linejoin:round;stroke-miterlimit:4;stroke-dasharray:none;stroke-opacity:1"
           d="m 84.214072,51.238314 -0.603761,-0.04407 -3.114155,-6.110315 -0.392385,5.37579 0.870808,0.06356 q 0.313491,0.02288 0.296541,0.255097 -0.0178,0.243827 -0.331288,0.220945 l -1.741616,-0.127123 q -0.313491,-0.02288 -0.295694,-0.266708 0.01695,-0.232216 0.33044,-0.209334 l 0.394767,0.02882 0.40764,-5.584785 -0.626982,-0.04576 q -0.313491,-0.02288 -0.295694,-0.266708 0.01695,-0.232216 0.330441,-0.209334 l 1.230742,0.08983 3.114155,6.110315 0.392386,-5.375791 -0.859198,-0.06271 q -0.325101,-0.02373 -0.307304,-0.267556 0.01695,-0.232216 0.342051,-0.208486 l 1.730006,0.126275 q 0.313491,0.02288 0.296541,0.255098 -0.0178,0.243826 -0.331288,0.220944 l -0.394766,-0.02882 z"
           inkscape:connector-curvature="0" />
        <path
           id="path5197"
           style="font-style:normal;font-variant:normal;font-weight:normal;font-stretch:normal;font-size:11.64166641px;line-height:1.25;font-family:FreeMono;-inkscape-font-specification:'FreeMono, Normal';font-variant-ligatures:normal;font-variant-caps:normal;font-variant-numeric:normal;font-feature-settings:normal;text-align:start;writing-mode:lr-tb;text-anchor:start;fill:#ffffff;fill-opacity:1;stroke:#ffffff;stroke-width:0.21166667;stroke-linecap:round;stroke-linejoin:round;stroke-miterlimit:4;stroke-dasharray:none;stroke-opacity:1"
           d="m 90.273245,46.009697 q -0.705548,-0.152226 -1.283932,0.04454 -0.578383,0.196769 -0.913114,0.589021 -0.323351,0.394708 -0.504337,0.736765 -0.180986,0.342057 -0.235002,0.592412 l -0.179233,0.830727 q -0.250435,1.160741 0.310253,1.984375 0.563144,0.812255 1.792164,1.077422 0.796587,0.171867 1.710792,-0.03581 l 0.368287,-1.706972 -1.581794,-0.34128 q -0.307255,-0.06629 -0.255694,-0.305268 0.04911,-0.227596 0.356359,-0.161304 l 2.207684,0.476318 q 0.318635,0.06875 0.26953,0.296343 -0.05156,0.238976 -0.370195,0.170229 l -0.159317,-0.03437 -0.424758,1.968708 q -1.151857,0.370777 -2.255698,0.132618 -1.399717,-0.301995 -2.067501,-1.29165 -0.656404,-0.9872 -0.366684,-2.330018 l 0.181688,-0.842107 q 0.257801,-1.19488 1.240987,-1.887878 0.997021,-0.701923 2.237421,-0.434301 1.126601,0.243069 1.756465,1.022081 l 0.03437,-0.159317 q 0.06629,-0.307255 0.305268,-0.255695 0.227596,0.0491 0.161304,0.35636 l -0.223428,1.035563 q -0.06629,0.307255 -0.293888,0.25815 -0.216216,-0.04665 -0.166215,-0.3336 0.05916,-0.439799 -0.420779,-0.864906 -0.479939,-0.425107 -1.231007,-0.587153 z"
           inkscape:connector-curvature="0" />
        <path
           id="path5199"
           style="font-style:normal;font-variant:normal;font-weight:normal;font-stretch:normal;font-size:11.64166641px;line-height:1.25;font-family:FreeMono;-inkscape-font-specification:'FreeMono, Normal';font-variant-ligatures:normal;font-variant-caps:normal;font-variant-numeric:normal;font-feature-settings:normal;text-align:start;writing-mode:lr-tb;text-anchor:start;fill:#ffffff;fill-opacity:1;stroke:#ffffff;stroke-width:0.21166667;stroke-linecap:round;stroke-linejoin:round;stroke-miterlimit:4;stroke-dasharray:none;stroke-opacity:1"
           d="m 97.813635,48.387863 -1.938875,5.253261 1.518095,0.560299 q 0.305803,0.112865 0.225184,0.331296 -0.08465,0.229353 -0.390452,0.116487 l -3.483972,-1.285865 q -0.294881,-0.108835 -0.210232,-0.338188 0.08062,-0.21843 0.3755,-0.109595 l 1.518094,0.560298 1.938875,-5.253261 -1.518094,-0.560298 q -0.294882,-0.108835 -0.210232,-0.338188 0.08062,-0.21843 0.3755,-0.109596 l 3.483971,1.285865 q 0.305803,0.112866 0.225185,0.331297 -0.08465,0.229353 -0.390453,0.116487 z"
           inkscape:connector-curvature="0" />
        <path
           id="path5201"
           style="font-style:normal;font-variant:normal;font-weight:normal;font-stretch:normal;font-size:11.64166641px;line-height:1.25;font-family:FreeMono;-inkscape-font-specification:'FreeMono, Normal';font-variant-ligatures:normal;font-variant-caps:normal;font-variant-numeric:normal;font-feature-settings:normal;text-align:start;writing-mode:lr-tb;text-anchor:start;fill:#ffffff;fill-opacity:1;stroke:#ffffff;stroke-width:0.21166667;stroke-linecap:round;stroke-linejoin:round;stroke-miterlimit:4;stroke-dasharray:none;stroke-opacity:1"
           d="m 103.90816,57.997401 -0.53244,-0.288058 -0.33102,-6.850134 -2.56482,4.740757 0.76794,0.415468 q 0.27646,0.149569 0.16567,0.354353 -0.11633,0.215023 -0.39279,0.06546 l -1.535881,-0.830935 q -0.276459,-0.149569 -0.160128,-0.364592 0.110791,-0.204785 0.38725,-0.05522 l 0.348129,0.188345 2.66454,-4.925063 -0.55292,-0.299137 q -0.27646,-0.149568 -0.16013,-0.364592 0.11079,-0.204784 0.38725,-0.05522 l 1.08536,0.587194 0.33102,6.850134 2.56482,-4.740757 -0.7577,-0.409928 q -0.2867,-0.155108 -0.17037,-0.370132 0.11079,-0.204784 0.39749,-0.04968 l 1.52564,0.825396 q 0.27646,0.149568 0.16567,0.354352 -0.11633,0.215024 -0.39279,0.06546 l -0.34813,-0.188346 z"
           inkscape:connector-curvature="0" />
        <path
           id="path5203"
           style="font-style:normal;font-variant:normal;font-weight:normal;font-stretch:normal;font-size:11.64166641px;line-height:1.25;font-family:FreeMono;-inkscape-font-specification:'FreeMono, Normal';font-variant-ligatures:normal;font-variant-caps:normal;font-variant-numeric:normal;font-feature-settings:normal;text-align:start;writing-mode:lr-tb;text-anchor:start;fill:#ffffff;fill-opacity:1;stroke:#ffffff;stroke-width:0.21166667;stroke-linecap:round;stroke-linejoin:round;stroke-miterlimit:4;stroke-dasharray:none;stroke-opacity:1"
           d="m 108.3606,57.153349 -1.60187,2.160083 2.93622,2.177426 0.8252,-1.11277 q 0.18724,-0.252478 0.38361,-0.106854 0.18702,0.13869 -2.1e-4,0.391167 l -1.10952,1.496162 -4.20796,-3.120514 q -0.25247,-0.187231 -0.10685,-0.383603 0.13869,-0.18702 0.39117,2.11e-4 l 0.50495,0.374462 3.33549,-4.497837 -0.50496,-0.374462 q -0.25248,-0.187231 -0.10685,-0.383602 0.13869,-0.18702 0.39116,2.11e-4 l 4.01159,2.97489 -0.96389,1.299791 q -0.18723,0.252477 -0.38361,0.106853 -0.18702,-0.138689 2.2e-4,-0.391167 l 0.67957,-0.916399 -2.73984,-2.031801 -1.44931,1.954361 1.3559,1.005499 0.31205,-0.420795 q 0.18723,-0.252478 0.3836,-0.106854 0.18702,0.13869 -2.1e-4,0.391167 l -0.90842,1.224983 q -0.18723,0.252477 -0.37425,0.113788 -0.19637,-0.145624 -0.009,-0.398102 l 0.31205,-0.420795 z"
           inkscape:connector-curvature="0" />
        <path
           id="path5205"
           style="font-style:normal;font-variant:normal;font-weight:normal;font-stretch:normal;font-size:11.64166641px;line-height:1.25;font-family:FreeMono;-inkscape-font-specification:'FreeMono, Normal';font-variant-ligatures:normal;font-variant-caps:normal;font-variant-numeric:normal;font-feature-settings:normal;text-align:start;writing-mode:lr-tb;text-anchor:start;fill:#ffffff;fill-opacity:1;stroke:#ffffff;stroke-width:0.21166667;stroke-linecap:round;stroke-linejoin:round;stroke-miterlimit:4;stroke-dasharray:none;stroke-opacity:1"
           d="m 114.1425,61.819292 -1.89025,1.912821 2.60011,2.569431 0.97376,-0.985392 q 0.22094,-0.223577 0.39483,-0.05174 0.16562,0.163658 -0.0553,0.387235 l -1.30927,1.324897 -3.72627,-3.682306 q -0.22358,-0.220938 -0.0517,-0.394831 0.16366,-0.165612 0.38724,0.05533 l 0.44715,0.441877 3.93598,-3.982974 -0.44716,-0.441876 q -0.22357,-0.220939 -0.0517,-0.394832 0.16366,-0.165612 0.38723,0.05533 l 3.55238,3.510464 -1.13742,1.151005 q -0.22094,0.223577 -0.39483,0.05174 -0.16561,-0.163658 0.0553,-0.387235 l 0.80192,-0.811499 -2.42622,-2.397591 -1.71023,1.730648 1.20069,1.186521 0.36823,-0.372628 q 0.22094,-0.223576 0.39483,-0.05174 0.16562,0.163658 -0.0553,0.387234 l -1.07196,1.08476 q -0.22094,0.223577 -0.38655,0.05992 -0.17389,-0.171841 0.047,-0.395418 l 0.36823,-0.372627 z"
           inkscape:connector-curvature="0" />
        <path
           id="path5207"
           style="font-style:normal;font-variant:normal;font-weight:normal;font-stretch:normal;font-size:11.64166641px;line-height:1.25;font-family:FreeMono;-inkscape-font-specification:'FreeMono, Normal';font-variant-ligatures:normal;font-variant-caps:normal;font-variant-numeric:normal;font-feature-settings:normal;text-align:start;writing-mode:lr-tb;text-anchor:start;fill:#ffffff;fill-opacity:1;stroke:#ffffff;stroke-width:0.21166667;stroke-linecap:round;stroke-linejoin:round;stroke-miterlimit:4;stroke-dasharray:none;stroke-opacity:1"
           d="m 119.01468,67.398687 -1.9453,1.480752 0.52884,0.694748 q 0.19038,0.25011 0.005,0.391134 -0.19453,0.148075 -0.38491,-0.102035 l -1.19871,-1.574763 q -0.19038,-0.25011 0.004,-0.398185 0.18527,-0.141024 0.37565,0.109086 l 0.38076,0.500219 4.45566,-3.391627 -0.38077,-0.500219 q -0.19038,-0.250109 0.004,-0.398185 0.18527,-0.141024 0.37565,0.109086 l 1.7487,2.297302 q 0.51473,0.676222 0.45307,1.498584 -0.0453,0.824574 -0.62894,1.268799 -0.89854,0.683967 -2.32329,-0.265176 0.035,0.661014 -0.11918,1.246539 -0.15416,0.585525 -0.71521,1.905066 l 0.21859,0.287162 q 0.19038,0.25011 0.005,0.391134 -0.19453,0.148075 -0.38491,-0.102035 l -0.40192,-0.528008 q 0.66475,-1.471625 0.83398,-2.229559 0.18554,-0.755722 0.0245,-1.467062 z m 0.37979,-0.289099 0.80384,1.056017 q 0.52179,0.685486 1.2034,0.927437 0.68162,0.241952 1.12626,-0.09651 0.41685,-0.317304 0.4286,-0.955367 0.0281,-0.635851 -0.3527,-1.13607 l -1.07883,-1.417287 z"
           inkscape:connector-curvature="0" />
        <path
           id="path5209"
           style="font-style:normal;font-variant:normal;font-weight:normal;font-stretch:normal;font-size:11.64166641px;line-height:1.25;font-family:FreeMono;-inkscape-font-specification:'FreeMono, Normal';font-variant-ligatures:normal;font-variant-caps:normal;font-variant-numeric:normal;font-feature-settings:normal;text-align:start;writing-mode:lr-tb;text-anchor:start;fill:#ffffff;fill-opacity:1;stroke:#ffffff;stroke-width:0.21166667;stroke-linecap:round;stroke-linejoin:round;stroke-miterlimit:4;stroke-dasharray:none;stroke-opacity:1"
           d="m 126.88559,73.492001 -4.88696,2.733786 0.79001,1.412241 q 0.15914,0.28448 -0.0441,0.398151 -0.21336,0.119354 -0.3725,-0.165126 l -1.81305,-3.241041 q -0.15345,-0.27432 0.0599,-0.393675 0.2032,-0.113671 0.35665,0.160649 l 0.79002,1.412241 4.88696,-2.733786 -0.79001,-1.412241 q -0.15346,-0.27432 0.0599,-0.393675 0.2032,-0.113671 0.35666,0.16065 l 1.81305,3.241041 q 0.15914,0.28448 -0.0441,0.398151 -0.21336,0.119354 -0.3725,-0.165126 z"
           inkscape:connector-curvature="0" />
        <path
           id="path5211"
           style="font-style:normal;font-variant:normal;font-weight:normal;font-stretch:normal;font-size:11.64166641px;line-height:1.25;font-family:FreeMono;-inkscape-font-specification:'FreeMono, Normal';font-variant-ligatures:normal;font-variant-caps:normal;font-variant-numeric:normal;font-feature-settings:normal;text-align:start;writing-mode:lr-tb;text-anchor:start;fill:#ffffff;fill-opacity:1;stroke:#ffffff;stroke-width:0.21166667;stroke-linecap:round;stroke-linejoin:round;stroke-miterlimit:4;stroke-dasharray:none;stroke-opacity:1"
           d="m 125.28226,84.753834 -0.2183,-0.564635 4.19217,-5.427667 -5.02742,1.943744 0.31486,0.814377 q 0.11335,0.293176 -0.10381,0.377139 -0.22803,0.08816 -0.34138,-0.205015 l -0.62972,-1.628753 q -0.11335,-0.293176 0.11467,-0.381337 0.21717,-0.08396 0.33052,0.209212 l 0.14274,0.369185 5.22287,-2.019312 -0.2267,-0.586351 q -0.11335,-0.293175 0.11467,-0.381337 0.21717,-0.08396 0.33052,0.209213 l 0.445,1.150986 -4.19217,5.427667 5.02742,-1.943744 -0.31067,-0.803519 q -0.11754,-0.304034 0.11048,-0.392195 0.21717,-0.08396 0.33472,0.220071 l 0.62552,1.617895 q 0.11335,0.293176 -0.10382,0.377139 -0.22802,0.08816 -0.34137,-0.205014 l -0.14274,-0.369184 z"
           inkscape:connector-curvature="0" />
        <path
           id="path5213"
           style="font-style:normal;font-variant:normal;font-weight:normal;font-stretch:normal;font-size:11.64166641px;line-height:1.25;font-family:FreeMono;-inkscape-font-specification:'FreeMono, Normal';font-variant-ligatures:normal;font-variant-caps:normal;font-variant-numeric:normal;font-feature-settings:normal;text-align:start;writing-mode:lr-tb;text-anchor:start;fill:#ffffff;fill-opacity:1;stroke:#ffffff;stroke-width:0.21166667;stroke-linecap:round;stroke-linejoin:round;stroke-miterlimit:4;stroke-dasharray:none;stroke-opacity:1"
           d="m 132.5958,88.011192 q -0.16244,-0.703267 -0.5866,-1.142964 -0.42416,-0.439696 -0.92156,-0.575721 -0.49478,-0.124681 -0.88133,-0.142929 -0.38656,-0.01825 -0.63611,0.03939 l -0.82804,0.191258 q -1.15699,0.267238 -1.66378,1.125084 -0.49546,0.855226 -0.2125,2.080272 0.18339,0.794011 0.76032,1.532973 l 1.70145,-0.392997 -0.36418,-1.57668 q -0.0707,-0.306261 0.16747,-0.361281 0.22686,-0.0524 0.2976,0.253862 l 0.50827,2.200546 q 0.0734,0.317605 -0.1535,0.370004 -0.2382,0.05502 -0.31156,-0.262585 l -0.0367,-0.158802 -1.96234,0.453256 q -0.82564,-0.884633 -1.07978,-1.984906 -0.32225,-1.395192 0.28922,-2.420593 0.6141,-1.014059 1.95257,-1.323217 l 0.83939,-0.193878 q 1.19101,-0.275098 2.23648,0.319796 1.05943,0.603616 1.34501,1.840005 0.25938,1.122959 -0.17761,2.02442 l 0.15881,-0.03668 q 0.30626,-0.07074 0.36128,0.167464 0.0524,0.22686 -0.25386,0.297599 l -1.03222,0.238418 q -0.30626,0.07074 -0.35866,-0.156121 -0.0498,-0.215517 0.23118,-0.29236 0.42317,-0.133588 0.60367,-0.748792 0.18051,-0.615205 0.008,-1.363844 z"
           inkscape:connector-curvature="0" />
      </g>
      <g
         transform="matrix(0.69013218,0.0058681,-0.0058681,0.69013218,-151.56858,111.82822)"
         aria-label="FRESNO CITY COLLEGE"
         style="font-style:normal;font-variant:normal;font-weight:normal;font-stretch:normal;font-size:10.58333302px;line-height:1.25;font-family:FreeMono;-inkscape-font-specification:'FreeMono, Normal';font-variant-ligatures:normal;font-variant-caps:normal;font-variant-numeric:normal;font-feature-settings:normal;text-align:start;letter-spacing:0px;word-spacing:0px;writing-mode:lr-tb;text-anchor:start;fill:#ffffff;fill-opacity:1;stroke:#ffffff;stroke-width:0.18715745;stroke-miterlimit:4;stroke-dasharray:none;stroke-opacity:1"
         id="text1087">
        <path
           d="m 47.653332,186.33325 -1.383269,1.15394 0.689366,0.82637 q 0.139871,0.16766 0.02011,0.26757 -0.125752,0.10491 -0.265623,-0.0628 l -1.16393,-1.39525 q -0.134876,-0.16168 -0.0091,-0.26658 0.119764,-0.0999 0.25464,0.0618 l 0.269751,0.32336 2.880314,-2.40279 -0.269752,-0.32336 q -0.134876,-0.16168 -0.0091,-0.26658 0.119764,-0.0999 0.25464,0.0618 l 2.247932,2.69468 -0.832357,0.69436 q -0.161681,0.13488 -0.266584,0.009 -0.09991,-0.11976 0.06177,-0.25464 l 0.586841,-0.48955 -1.568557,-1.88028 -1.251529,1.04404 0.724333,0.86828 0.269468,-0.22479 q 0.161681,-0.13488 0.261589,-0.0151 0.104904,0.12575 -0.05678,0.26062 l -0.784451,0.6544 q -0.161681,0.13488 -0.266585,0.009 -0.09991,-0.11977 0.06177,-0.25464 l 0.269468,-0.2248 z"
           style="font-style:normal;font-variant:normal;font-weight:normal;font-stretch:normal;font-size:7.79822731px;font-family:FreeMono;-inkscape-font-specification:'FreeMono, Normal';font-variant-ligatures:normal;font-variant-caps:normal;font-variant-numeric:normal;font-feature-settings:normal;text-align:start;letter-spacing:0.142875px;writing-mode:lr-tb;text-anchor:start;fill:#ffffff;fill-opacity:1;stroke:#ffffff;stroke-width:0.18715745;stroke-miterlimit:4;stroke-dasharray:none;stroke-opacity:1"
           id="path5217"
           inkscape:connector-curvature="0" />
        <path
           d="m 50.586719,189.91501 -1.149899,1.166 0.416429,0.41068 q 0.149914,0.14784 0.0404,0.25889 -0.11499,0.1166 -0.264904,-0.0312 l -0.943905,-0.93087 q -0.149914,-0.14785 -0.03493,-0.26445 0.109515,-0.11105 0.259429,0.0368 l 0.299829,0.29569 2.633816,-2.6707 -0.299829,-0.29569 q -0.149914,-0.14784 -0.03492,-0.26444 0.109514,-0.11105 0.259428,0.0368 l 1.376991,1.35798 q 0.405324,0.39973 0.442242,0.9509 0.04795,0.5511 -0.297024,0.9009 -0.531143,0.53858 -1.565759,0.044 0.08574,0.43504 0.03891,0.83791 -0.04683,0.40287 -0.294034,1.33099 l 0.172124,0.16975 q 0.149915,0.14784 0.0404,0.25889 -0.11499,0.1166 -0.264904,-0.0312 l -0.316486,-0.31212 q 0.30158,-1.03879 0.342088,-1.55741 0.05154,-0.51871 -0.12258,-0.97519 z m 0.224504,-0.22765 0.632972,0.62423 q 0.410876,0.40521 0.885774,0.50116 0.474898,0.096 0.737732,-0.17056 0.246407,-0.24985 0.193829,-0.67409 -0.04155,-0.42431 -0.341379,-0.72 l -0.849514,-0.83778 z"
           style="font-style:normal;font-variant:normal;font-weight:normal;font-stretch:normal;font-size:7.79822731px;font-family:FreeMono;-inkscape-font-specification:'FreeMono, Normal';font-variant-ligatures:normal;font-variant-caps:normal;font-variant-numeric:normal;font-feature-settings:normal;text-align:start;letter-spacing:0.142875px;writing-mode:lr-tb;text-anchor:start;fill:#ffffff;fill-opacity:1;stroke:#ffffff;stroke-width:0.18715745;stroke-miterlimit:4;stroke-dasharray:none;stroke-opacity:1"
           id="path5219"
           inkscape:connector-curvature="0" />
        <path
           d="m 54.071205,192.94921 -1.133291,1.40024 1.903352,1.54049 0.583816,-0.72134 q 0.132462,-0.16366 0.259756,-0.0606 0.121233,0.0981 -0.01123,0.26178 l -0.784962,0.96986 -2.727733,-2.20771 q -0.163664,-0.13246 -0.06064,-0.25975 0.09812,-0.12124 0.261785,0.0112 l 0.327328,0.26492 2.359794,-2.91564 -0.327328,-0.26493 q -0.163664,-0.13246 -0.06064,-0.25975 0.09812,-0.12124 0.261784,0.0112 l 2.600439,2.10468 -0.681937,0.84257 q -0.132462,0.16366 -0.259757,0.0606 -0.121232,-0.0981 0.01123,-0.26178 l 0.48079,-0.59404 -1.776057,-1.43746 -1.025358,1.26688 0.878936,0.71137 0.220771,-0.27277 q 0.132463,-0.16367 0.259757,-0.0606 0.121232,0.0981 -0.01123,0.26178 l -0.642688,0.79408 q -0.132463,0.16366 -0.253696,0.0655 -0.127294,-0.10303 0.0052,-0.26669 l 0.220771,-0.27277 z"
           style="font-style:normal;font-variant:normal;font-weight:normal;font-stretch:normal;font-size:7.79822731px;font-family:FreeMono;-inkscape-font-specification:'FreeMono, Normal';font-variant-ligatures:normal;font-variant-caps:normal;font-variant-numeric:normal;font-feature-settings:normal;text-align:start;letter-spacing:0.142875px;writing-mode:lr-tb;text-anchor:start;fill:#ffffff;fill-opacity:1;stroke:#ffffff;stroke-width:0.18715745;stroke-miterlimit:4;stroke-dasharray:none;stroke-opacity:1"
           id="path5221"
           inkscape:connector-curvature="0" />
        <path
           d="m 59.170322,197.81122 q 0.180061,-0.27358 0.122163,-0.55441 -0.0579,-0.28084 -0.277647,-0.50015 -0.208948,-0.22154 -0.465721,-0.48389 -0.245972,-0.26457 -0.45286,-0.50343 -0.196086,-0.24108 -0.232548,-0.55448 -0.03218,-0.31992 0.182184,-0.64562 0.282954,-0.42992 0.810319,-0.49361 0.538166,-0.0659 1.052773,0.27278 0.560206,0.3687 0.698104,1.01026 l 0.08146,-0.12377 q 0.115754,-0.17588 0.252548,-0.0859 0.130281,0.0858 0.01453,0.26162 l -0.44158,0.67095 q -0.115754,0.17588 -0.246034,0.0901 -0.13028,-0.0857 -0.0339,-0.24636 0.173381,-0.306 0.03492,-0.67719 -0.13846,-0.3712 -0.516273,-0.61985 -0.403869,-0.26581 -0.812421,-0.22662 -0.402037,0.0435 -0.612109,0.36266 -0.1672,0.25405 -0.100728,0.52185 0.06647,0.26781 0.27542,0.48934 0.21975,0.21932 0.461434,0.49041 0.252486,0.26886 0.448573,0.50994 0.2026,0.24537 0.226201,0.57831 0.02789,0.32643 -0.190759,0.65865 -0.312964,0.47552 -0.892274,0.53302 -0.579311,0.0575 -1.165573,-0.32834 -0.690486,-0.45444 -0.792192,-1.19354 l -0.124328,0.18891 q -0.115754,0.17587 -0.252548,0.0858 -0.130281,-0.0857 -0.01453,-0.26162 l 0.480164,-0.72957 q 0.115754,-0.17588 0.252548,-0.0858 0.123767,0.0815 0.02739,0.24208 -0.197043,0.32776 -0.02362,0.75931 0.173422,0.43155 0.616376,0.72308 0.455981,0.3001 0.909964,0.26281 0.464785,-0.0395 0.70058,-0.3978 z"
           style="font-style:normal;font-variant:normal;font-weight:normal;font-stretch:normal;font-size:7.79822731px;font-family:FreeMono;-inkscape-font-specification:'FreeMono, Normal';font-variant-ligatures:normal;font-variant-caps:normal;font-variant-numeric:normal;font-feature-settings:normal;text-align:start;letter-spacing:0.142875px;writing-mode:lr-tb;text-anchor:start;fill:#ffffff;fill-opacity:1;stroke:#ffffff;stroke-width:0.18715745;stroke-miterlimit:4;stroke-dasharray:none;stroke-opacity:1"
           id="path5223"
           inkscape:connector-curvature="0" />
        <path
           d="m 62.985041,201.28278 -0.358957,-0.18865 -0.277033,-4.58559 -1.679651,3.1961 0.517727,0.27209 q 0.186381,0.0979 0.113826,0.23601 -0.07618,0.14496 -0.262564,0.047 l -1.035454,-0.54416 q -0.186381,-0.0979 -0.110199,-0.24292 0.07256,-0.13806 0.258937,-0.0401 l 0.234703,0.12335 1.744951,-3.32036 -0.372764,-0.1959 q -0.186381,-0.0979 -0.110198,-0.24291 0.07256,-0.13806 0.258936,-0.0401 l 0.731721,0.38454 0.277033,4.58559 1.679651,-3.1961 -0.510824,-0.26845 q -0.193284,-0.10158 -0.117101,-0.24654 0.07255,-0.13806 0.265839,-0.0365 l 1.028551,0.54054 q 0.186382,0.0979 0.113826,0.23601 -0.07618,0.14496 -0.262564,0.047 L 64.87873,197.6794 Z"
           style="font-style:normal;font-variant:normal;font-weight:normal;font-stretch:normal;font-size:7.79822731px;font-family:FreeMono;-inkscape-font-specification:'FreeMono, Normal';font-variant-ligatures:normal;font-variant-caps:normal;font-variant-numeric:normal;font-feature-settings:normal;text-align:start;letter-spacing:0.142875px;writing-mode:lr-tb;text-anchor:start;fill:#ffffff;fill-opacity:1;stroke:#ffffff;stroke-width:0.18715745;stroke-miterlimit:4;stroke-dasharray:none;stroke-opacity:1"
           id="path5225"
           inkscape:connector-curvature="0" />
        <path
           d="m 67.659906,198.42297 q 0.765791,0.31121 1.023298,1.14819 0.267667,0.83269 -0.105199,1.7502 -0.355251,0.87415 -1.135127,1.28113 -0.776941,0.39975 -1.521058,0.0974 -0.751341,-0.30534 -1.026233,-1.14097 -0.267667,-0.83269 0.09639,-1.72852 0.364059,-0.89583 1.136711,-1.30574 0.779876,-0.40698 1.531217,-0.10164 z m -0.120374,0.2962 q -0.621301,-0.25249 -1.282189,0.11025 -0.660887,0.36274 -0.969163,1.12131 -0.308275,0.75856 -0.08778,1.47949 0.220494,0.72092 0.841795,0.97342 0.614078,0.24955 1.272029,-0.10596 0.668112,-0.35981 0.970516,-1.10392 0.317083,-0.78024 0.09659,-1.50117 -0.21327,-0.71799 -0.841796,-0.97342 z"
           style="font-style:normal;font-variant:normal;font-weight:normal;font-stretch:normal;font-size:7.79822731px;font-family:FreeMono;-inkscape-font-specification:'FreeMono, Normal';font-variant-ligatures:normal;font-variant-caps:normal;font-variant-numeric:normal;font-feature-settings:normal;text-align:start;letter-spacing:0.142875px;writing-mode:lr-tb;text-anchor:start;fill:#ffffff;fill-opacity:1;stroke:#ffffff;stroke-width:0.18715745;stroke-miterlimit:4;stroke-dasharray:none;stroke-opacity:1"
           id="path5227"
           inkscape:connector-curvature="0" />
        <path
           d="m 73.866813,202.48481 q 0.02819,-0.14546 0.106528,-0.34475 0.08748,-0.20546 0.272521,-0.4635 0.185044,-0.25804 0.420949,-0.45062 0.235905,-0.19258 0.611572,-0.28659 0.377152,-0.10166 0.813531,-0.0171 0.773235,0.14985 1.222078,0.78492 l 0.04303,-0.22202 q 0.04006,-0.2067 0.20083,-0.17555 0.153116,0.0297 0.113057,0.23638 l -0.166171,0.85745 q -0.04006,0.20671 -0.200831,0.17555 -0.137804,-0.0267 -0.117507,-0.21341 0.04528,-0.35662 -0.302375,-0.69407 -0.34,-0.33596 -0.852938,-0.43537 -0.63543,-0.12314 -1.182077,0.27929 -0.545162,0.39478 -0.677209,1.07615 l -0.10534,0.54356 q -0.133531,0.68902 0.26469,1.29839 0.399703,0.60172 1.073413,0.73229 0.398101,0.0772 0.743145,-0.0228 0.345044,-0.0999 0.722492,-0.40807 0.08374,-0.0632 0.152641,-0.0499 0.153116,0.0297 0.124926,0.17514 -0.01335,0.0689 -0.164036,0.19062 -0.150682,0.12172 -0.382373,0.25157 -0.230208,0.1222 -0.575489,0.18238 -0.345282,0.0602 -0.682137,-0.005 -0.78089,-0.15134 -1.269971,-0.8657 -0.479941,-0.72053 -0.330091,-1.49377 z"
           style="font-style:normal;font-variant:normal;font-weight:normal;font-stretch:normal;font-size:7.79822731px;font-family:FreeMono;-inkscape-font-specification:'FreeMono, Normal';font-variant-ligatures:normal;font-variant-caps:normal;font-variant-numeric:normal;font-feature-settings:normal;text-align:start;letter-spacing:0.142875px;writing-mode:lr-tb;text-anchor:start;fill:#ffffff;fill-opacity:1;stroke:#ffffff;stroke-width:0.18715745;stroke-miterlimit:4;stroke-dasharray:none;stroke-opacity:1"
           id="path5229"
           inkscape:connector-curvature="0" />
        <path
           d="m 80.50887,201.97325 -0.353631,3.73424 1.079125,0.10219 q 0.217378,0.0206 0.202674,0.17586 -0.01544,0.16303 -0.232817,0.14244 l -2.476554,-0.23452 q -0.209615,-0.0199 -0.194175,-0.18289 0.0147,-0.15527 0.224318,-0.13542 l 1.079125,0.10219 0.353631,-3.73424 -1.079125,-0.10219 q -0.209615,-0.0199 -0.194175,-0.18288 0.0147,-0.15527 0.224318,-0.13542 l 2.476554,0.23453 q 0.217378,0.0206 0.202674,0.17585 -0.01544,0.16304 -0.232817,0.14245 z"
           style="font-style:normal;font-variant:normal;font-weight:normal;font-stretch:normal;font-size:7.79822731px;font-family:FreeMono;-inkscape-font-specification:'FreeMono, Normal';font-variant-ligatures:normal;font-variant-caps:normal;font-variant-numeric:normal;font-feature-settings:normal;text-align:start;letter-spacing:0.142875px;writing-mode:lr-tb;text-anchor:start;fill:#ffffff;fill-opacity:1;stroke:#ffffff;stroke-width:0.18715745;stroke-miterlimit:4;stroke-dasharray:none;stroke-opacity:1"
           id="path5231"
           inkscape:connector-curvature="0" />
        <path
           d="m 84.947569,205.91204 0.818811,-0.002 q 0.210551,-5.6e-4 0.21097,0.1554 4.4e-4,0.16376 -0.210111,0.16433 l -1.957348,0.005 q -0.210552,5.6e-4 -0.210992,-0.1632 -4.19e-4,-0.15596 0.210133,-0.15653 l 0.81881,-0.002 -0.01008,-3.75093 -1.302299,0.004 0.0015,0.56927 q 5.66e-4,0.21055 -0.163196,0.21099 -0.155964,4.2e-4 -0.15653,-0.21013 l -0.0024,-0.889 3.555979,-0.01 0.0024,0.88899 q 5.66e-4,0.21055 -0.155398,0.21097 -0.07018,1.9e-4 -0.11712,-0.0543 -0.04696,-0.0623 -0.04721,-0.15584 l -0.0015,-0.56927 -1.294501,0.003 z"
           style="font-style:normal;font-variant:normal;font-weight:normal;font-stretch:normal;font-size:7.79822731px;font-family:FreeMono;-inkscape-font-specification:'FreeMono, Normal';font-variant-ligatures:normal;font-variant-caps:normal;font-variant-numeric:normal;font-feature-settings:normal;text-align:start;letter-spacing:0.142875px;writing-mode:lr-tb;text-anchor:start;fill:#ffffff;fill-opacity:1;stroke:#ffffff;stroke-width:0.18715745;stroke-miterlimit:4;stroke-dasharray:none;stroke-opacity:1"
           id="path5233"
           inkscape:connector-curvature="0" />
        <path
           d="m 89.571016,203.99687 0.165969,1.65271 0.814716,-0.0818 q 0.209499,-0.021 0.225083,0.13414 0.01636,0.16295 -0.193136,0.18399 l -1.947559,0.19557 q -0.209498,0.021 -0.225862,-0.1419 -0.01558,-0.15519 0.193915,-0.17622 l 0.814716,-0.0818 -0.165969,-1.65271 -1.597722,-1.93999 -0.186221,0.0187 q -0.209498,0.021 -0.225862,-0.1419 -0.01558,-0.15519 0.193915,-0.17622 l 0.861271,-0.0865 q 0.209499,-0.021 0.225083,0.13415 0.01636,0.16294 -0.193136,0.18398 l -0.294849,0.0296 1.356276,1.6429 0.979243,-1.87744 -0.310368,0.0312 q -0.217258,0.0218 -0.233621,-0.14113 -0.01558,-0.15518 0.201674,-0.177 l 0.853512,-0.0857 q 0.209498,-0.021 0.225082,0.13415 0.01636,0.16294 -0.193135,0.18398 l -0.186221,0.0187 z"
           style="font-style:normal;font-variant:normal;font-weight:normal;font-stretch:normal;font-size:7.79822731px;font-family:FreeMono;-inkscape-font-specification:'FreeMono, Normal';font-variant-ligatures:normal;font-variant-caps:normal;font-variant-numeric:normal;font-feature-settings:normal;text-align:start;letter-spacing:0.142875px;writing-mode:lr-tb;text-anchor:start;fill:#ffffff;fill-opacity:1;stroke:#ffffff;stroke-width:0.18715745;stroke-miterlimit:4;stroke-dasharray:none;stroke-opacity:1"
           id="path5235"
           inkscape:connector-curvature="0" />
        <path
           d="m 96.531216,202.20653 q -0.04323,-0.14172 -0.06737,-0.35449 -0.01895,-0.2225 0.02366,-0.53716 0.04262,-0.31466 0.160832,-0.59531 0.118215,-0.28065 0.406086,-0.53967 0.285596,-0.26649 0.710754,-0.39618 0.753351,-0.2298 1.447387,0.12105 l -0.06598,-0.21631 q -0.06143,-0.20139 0.09521,-0.24917 0.149179,-0.0455 0.210611,0.15588 l 0.25483,0.8354 q 0.06143,0.20139 -0.09521,0.24917 -0.134261,0.041 -0.203785,-0.13351 -0.127039,-0.33628 -0.592262,-0.47157 -0.457764,-0.13756 -0.957512,0.0149 -0.61909,0.18885 -0.91355,0.80046 -0.296734,0.60415 -0.09423,1.26799 l 0.161544,0.52959 q 0.204774,0.6713 0.842046,1.02316 0.634998,0.34439 1.291383,0.14417 0.387864,-0.11832 0.645899,-0.36824 0.258031,-0.24992 0.447181,-0.69896 0.0444,-0.0951 0.1115,-0.11555 0.14918,-0.0455 0.19241,0.0962 0.0205,0.0671 -0.0556,0.24525 -0.0761,0.17813 -0.21999,0.40138 -0.14615,0.21579 -0.423021,0.4307 -0.27687,0.2149 -0.605063,0.31501 -0.76081,0.23208 -1.527536,-0.16997 -0.761542,-0.41178 -0.991344,-1.16513 z"
           style="font-style:normal;font-variant:normal;font-weight:normal;font-stretch:normal;font-size:7.79822731px;font-family:FreeMono;-inkscape-font-specification:'FreeMono, Normal';font-variant-ligatures:normal;font-variant-caps:normal;font-variant-numeric:normal;font-feature-settings:normal;text-align:start;letter-spacing:0.142875px;writing-mode:lr-tb;text-anchor:start;fill:#ffffff;fill-opacity:1;stroke:#ffffff;stroke-width:0.18715745;stroke-miterlimit:4;stroke-dasharray:none;stroke-opacity:1"
           id="path5237"
           inkscape:connector-curvature="0" />
        <path
           d="m 101.84783,198.31336 q 0.76314,-0.31764 1.53501,0.096 0.77607,0.4034 1.15665,1.31774 0.36259,0.87113 0.0947,1.70904 -0.27085,0.83071 -1.0124,1.13937 -0.74875,0.31165 -1.53202,-0.0888 -0.77607,-0.40339 -1.14765,-1.29613 -0.37159,-0.89274 -0.11093,-1.72765 0.26785,-0.83791 1.0166,-1.14956 z m 0.12286,0.29518 q -0.61916,0.25771 -0.83358,0.98047 -0.21442,0.72275 0.10023,1.4787 0.31464,0.75594 0.97856,1.11311 0.66391,0.35717 1.28307,0.0995 0.61195,-0.25472 0.82937,-0.97027 0.22162,-0.72576 -0.087,-1.4673 -0.32364,-0.77755 -0.98755,-1.13471 -0.65672,-0.36017 -1.28307,-0.0995 z"
           style="font-style:normal;font-variant:normal;font-weight:normal;font-stretch:normal;font-size:7.79822731px;font-family:FreeMono;-inkscape-font-specification:'FreeMono, Normal';font-variant-ligatures:normal;font-variant-caps:normal;font-variant-numeric:normal;font-feature-settings:normal;text-align:start;letter-spacing:0.142875px;writing-mode:lr-tb;text-anchor:start;fill:#ffffff;fill-opacity:1;stroke:#ffffff;stroke-width:0.18715745;stroke-miterlimit:4;stroke-dasharray:none;stroke-opacity:1"
           id="path5239"
           inkscape:connector-curvature="0" />
        <path
           d="m 105.50096,197.07425 1.77361,3.30514 1.87589,-1.00664 -0.58998,-1.09943 q -0.0996,-0.18552 0.0447,-0.26296 0.13743,-0.0737 0.23699,0.11178 l 0.74115,1.38115 -3.09899,1.66299 q -0.18553,0.0996 -0.26296,-0.0447 -0.0738,-0.13743 0.11178,-0.23699 l 0.65965,-0.35398 -1.77361,-3.30514 -0.65965,0.35399 q -0.18553,0.0995 -0.26296,-0.0447 -0.0738,-0.13742 0.11178,-0.23698 l 1.60103,-0.85915 q 0.18553,-0.0996 0.25928,0.0379 0.0774,0.1443 -0.1081,0.24386 z"
           style="font-style:normal;font-variant:normal;font-weight:normal;font-stretch:normal;font-size:7.79822731px;font-family:FreeMono;-inkscape-font-specification:'FreeMono, Normal';font-variant-ligatures:normal;font-variant-caps:normal;font-variant-numeric:normal;font-feature-settings:normal;text-align:start;letter-spacing:0.142875px;writing-mode:lr-tb;text-anchor:start;fill:#ffffff;fill-opacity:1;stroke:#ffffff;stroke-width:0.18715745;stroke-miterlimit:4;stroke-dasharray:none;stroke-opacity:1"
           id="path5241"
           inkscape:connector-curvature="0" />
        <path
           d="m 109.32116,194.84214 2.08615,3.11731 1.76928,-1.18404 -0.69394,-1.03694 q -0.1171,-0.17498 0.019,-0.26606 0.12961,-0.0867 0.24671,0.0882 l 0.87176,1.30266 -2.92287,1.95604 q -0.17499,0.1171 -0.26607,-0.019 -0.0867,-0.12962 0.0883,-0.24672 l 0.62216,-0.41636 -2.08615,-3.11731 -0.62217,0.41637 q -0.17498,0.1171 -0.26606,-0.019 -0.0867,-0.12962 0.0882,-0.24672 l 1.51005,-1.01055 q 0.17498,-0.1171 0.26172,0.0125 0.0911,0.1361 -0.0839,0.2532 z"
           style="font-style:normal;font-variant:normal;font-weight:normal;font-stretch:normal;font-size:7.79822731px;font-family:FreeMono;-inkscape-font-specification:'FreeMono, Normal';font-variant-ligatures:normal;font-variant-caps:normal;font-variant-numeric:normal;font-feature-settings:normal;text-align:start;letter-spacing:0.142875px;writing-mode:lr-tb;text-anchor:start;fill:#ffffff;fill-opacity:1;stroke:#ffffff;stroke-width:0.18715745;stroke-miterlimit:4;stroke-dasharray:none;stroke-opacity:1"
           id="path5243"
           inkscape:connector-curvature="0" />
        <path
           d="m 113.77246,194.0635 1.14095,1.39399 1.89487,-1.55091 -0.58776,-0.71812 q -0.13336,-0.16293 -0.007,-0.26665 0.1207,-0.0988 0.25405,0.0642 l 0.79028,0.96553 -2.71558,2.22265 q -0.16293,0.13336 -0.26666,0.007 -0.0988,-0.12069 0.0641,-0.25405 l 0.32587,-0.26672 -2.37576,-2.90265 -0.32587,0.26672 q -0.16293,0.13336 -0.26665,0.007 -0.0988,-0.12069 0.0641,-0.25405 l 2.58885,-2.11892 0.68655,0.83881 q 0.13336,0.16294 0.007,0.26666 -0.12069,0.0988 -0.25405,-0.0642 l -0.48404,-0.59139 -1.76815,1.44718 1.0323,1.26124 0.87502,-0.71619 -0.22227,-0.27155 q -0.13336,-0.16294 -0.007,-0.26666 0.12069,-0.0988 0.25405,0.0642 l 0.64704,0.79053 q 0.13336,0.16294 0.0127,0.26172 -0.12672,0.10372 -0.26008,-0.0592 l -0.22227,-0.27156 z"
           style="font-style:normal;font-variant:normal;font-weight:normal;font-stretch:normal;font-size:7.79822731px;font-family:FreeMono;-inkscape-font-specification:'FreeMono, Normal';font-variant-ligatures:normal;font-variant-caps:normal;font-variant-numeric:normal;font-feature-settings:normal;text-align:start;letter-spacing:0.142875px;writing-mode:lr-tb;text-anchor:start;fill:#ffffff;fill-opacity:1;stroke:#ffffff;stroke-width:0.18715745;stroke-miterlimit:4;stroke-dasharray:none;stroke-opacity:1"
           id="path5245"
           inkscape:connector-curvature="0" />
        <path
           d="m 116.64905,188.76861 q -0.34274,0.34102 -0.443,0.73779 -0.10025,0.39677 -0.002,0.72787 0.10395,0.3256 0.2302,0.552 0.12626,0.2264 0.24726,0.34801 l 0.40152,0.40355 q 0.56103,0.56387 1.22828,0.54901 0.66176,-0.0204 1.25879,-0.61442 0.38696,-0.38501 0.6035,-0.97449 l -0.82503,-0.82921 -0.76841,0.76454 q -0.14925,0.1485 -0.26476,0.0324 -0.11,-0.11056 0.0393,-0.25906 l 1.07245,-1.06705 q 0.15479,-0.15401 0.26479,-0.0434 0.11551,0.11609 -0.0393,0.2701 l -0.0774,0.077 0.95154,0.95636 q -0.21151,0.78248 -0.74774,1.31601 -0.67995,0.67653 -1.47954,0.69105 -0.79407,0.009 -1.4431,-0.64329 l -0.40702,-0.40907 q -0.57753,-0.58045 -0.60858,-1.3856 -0.031,-0.81618 0.57153,-1.41571 0.54728,-0.54452 1.21468,-0.61452 l -0.077,-0.0774 q -0.1485,-0.14926 -0.0324,-0.26476 0.11056,-0.11001 0.25906,0.0392 l 0.50053,0.50306 q 0.1485,0.14925 0.0379,0.25926 -0.10503,0.1045 -0.24806,-0.0282 -0.2256,-0.19356 -0.63945,-0.0788 -0.41386,0.11476 -0.77871,0.47777 z"
           style="font-style:normal;font-variant:normal;font-weight:normal;font-stretch:normal;font-size:7.79822731px;font-family:FreeMono;-inkscape-font-specification:'FreeMono, Normal';font-variant-ligatures:normal;font-variant-caps:normal;font-variant-numeric:normal;font-feature-settings:normal;text-align:start;letter-spacing:0.142875px;writing-mode:lr-tb;text-anchor:start;fill:#ffffff;fill-opacity:1;stroke:#ffffff;stroke-width:0.18715745;stroke-miterlimit:4;stroke-dasharray:none;stroke-opacity:1"
           id="path5247"
           inkscape:connector-curvature="0" />
        <path
           d="m 120.44919,187.70799 1.38936,1.14659 1.55857,-1.88858 -0.71573,-0.59066 q -0.1624,-0.13402 -0.0582,-0.26033 0.0993,-0.12029 0.26166,0.0137 l 0.96234,0.79417 -2.23362,2.70656 q -0.13402,0.16239 -0.26032,0.0582 -0.12029,-0.0993 0.0137,-0.26167 l 0.26804,-0.32478 -2.89301,-2.38749 -0.26804,0.32479 q -0.13401,0.16239 -0.26032,0.0582 -0.12029,-0.0993 0.0137,-0.26166 l 2.12938,-2.58025 0.83602,0.68994 q 0.1624,0.13401 0.0582,0.26032 -0.0993,0.12029 -0.26167,-0.0137 l -0.58942,-0.48643 -1.45434,1.76227 1.25705,1.03739 0.71972,-0.87211 -0.27066,-0.22336 q -0.16239,-0.13402 -0.0581,-0.26033 0.0993,-0.12029 0.26166,0.0137 l 0.78791,0.65023 q 0.16239,0.13402 0.0631,0.25431 -0.10423,0.1263 -0.26663,-0.008 l -0.27065,-0.22336 z"
           style="font-style:normal;font-variant:normal;font-weight:normal;font-stretch:normal;font-size:7.79822731px;font-family:FreeMono;-inkscape-font-specification:'FreeMono, Normal';font-variant-ligatures:normal;font-variant-caps:normal;font-variant-numeric:normal;font-feature-settings:normal;text-align:start;letter-spacing:0.142875px;writing-mode:lr-tb;text-anchor:start;fill:#ffffff;fill-opacity:1;stroke:#ffffff;stroke-width:0.18715745;stroke-miterlimit:4;stroke-dasharray:none;stroke-opacity:1"
           id="path5249"
           inkscape:connector-curvature="0" />
      </g>
    </g>
  </g>
</svg>
