<?xml version="1.0" encoding="UTF-8" standalone="no"?>
<!-- Created with Inkscape (http://www.inkscape.org/) -->

<svg
   xmlns:dc="http://purl.org/dc/elements/1.1/"
   xmlns:cc="http://creativecommons.org/ns#"
   xmlns:rdf="http://www.w3.org/1999/02/22-rdf-syntax-ns#"
   xmlns:svg="http://www.w3.org/2000/svg"
   xmlns="http://www.w3.org/2000/svg"
   xmlns:sodipodi="http://sodipodi.sourceforge.net/DTD/sodipodi-0.dtd"
   xmlns:inkscape="http://www.inkscape.org/namespaces/inkscape"
   width="45"
   height="45"
   viewBox="0 0 11.906247 11.906257"
   version="1.1"
   id="svg1107"
   inkscape:version="0.92.5 (2060ec1f9f, 2020-04-08)"
   sodipodi:docname="github_logo.svg">
  <defs
     id="defs1101" />
  <sodipodi:namedview
     id="base"
     pagecolor="#ffffff"
     bordercolor="#666666"
     borderopacity="1.0"
     inkscape:pageopacity="0.0"
     inkscape:pageshadow="2"
     inkscape:zoom="2.8"
     inkscape:cx="-23.975881"
     inkscape:cy="88.129123"
     inkscape:document-units="mm"
     inkscape:current-layer="layer1"
     showgrid="false"
     units="px"
     inkscape:window-width="1680"
     inkscape:window-height="1013"
     inkscape:window-x="0"
     inkscape:window-y="30"
     inkscape:window-maximized="1" />
  <metadata
     id="metadata1104">
    <rdf:RDF>
      <cc:Work
         rdf:about="">
        <dc:format>image/svg+xml</dc:format>
        <dc:type
           rdf:resource="http://purl.org/dc/dcmitype/StillImage" />
        <dc:title></dc:title>
      </cc:Work>
    </rdf:RDF>
  </metadata>
  <g
     inkscape:label="Layer 1"
     inkscape:groupmode="layer"
     id="layer1"
     transform="translate(0,-285.09348)">
    <path
       inkscape:connector-curvature="0"
       id="path106"
       style="fill:#ffffff;fill-opacity:1;fill-rule:evenodd;stroke:none;stroke-width:0.03527778"
       d="m 6.0319148,285.45994 c -3.17289,0 -5.74604996,2.57281 -5.74604996,5.74675 0,2.53894 1.64641996,4.69265 3.92994996,5.45253 0.28751,0.0529 0.39229,-0.12453 0.39229,-0.27693 0,-0.13652 -0.005,-0.49777 -0.008,-0.97719 -1.59844,0.34713 -1.93569,-0.77047 -1.93569,-0.77047 -0.26141,-0.66393 -0.63818,-0.84067 -0.63818,-0.84067 -0.52176,-0.35631 0.0395,-0.34925 0.0395,-0.34925 0.57679,0.0406 0.88018,0.59231 0.88018,0.59231 0.51259,0.87807 1.34514,0.62442 1.67252,0.47731 0.0522,-0.37112 0.20073,-0.62441 0.36477,-0.76799 -1.27599,-0.145 -2.61761,-0.63818 -2.61761,-2.84022 0,-0.62724 0.22402,-1.14053 0.59161,-1.54199 -0.0593,-0.14534 -0.25647,-0.7299 0.0564,-1.52083 0,0 0.48225,-0.15451 1.5801,0.58914 0.45826,-0.1277 0.95003,-0.1912 1.43863,-0.19367 0.48824,0.002 0.97966,0.066 1.43862,0.19367 1.09714,-0.74365 1.57868,-0.58914 1.57868,-0.58914 0.31362,0.79093 0.11642,1.37549 0.0575,1.52083 0.3683,0.40146 0.59055,0.91475 0.59055,1.54199 0,2.20768 -1.34373,2.69346 -2.62361,2.83563 0.20602,0.17745 0.38982,0.52811 0.38982,1.06398 0,0.76835 -0.007,1.38818 -0.007,1.57656 0,0.15381 0.10371,0.33267 0.39511,0.27658 2.2817702,-0.76165 3.9267702,-2.91395 3.9267702,-5.45218 0,-3.17394 -2.5731602,-5.74675 -5.7471002,-5.74675" />
  </g>
</svg>
