<?xml version="1.0" encoding="UTF-8" standalone="no"?>
<!-- Created with Inkscape (http://www.inkscape.org/) -->

<svg
   xmlns:dc="http://purl.org/dc/elements/1.1/"
   xmlns:cc="http://creativecommons.org/ns#"
   xmlns:rdf="http://www.w3.org/1999/02/22-rdf-syntax-ns#"
   xmlns:svg="http://www.w3.org/2000/svg"
   xmlns="http://www.w3.org/2000/svg"
   xmlns:sodipodi="http://sodipodi.sourceforge.net/DTD/sodipodi-0.dtd"
   xmlns:inkscape="http://www.inkscape.org/namespaces/inkscape"
   width="53"
   height="45"
   viewBox="0 0 14.022911 11.906257"
   version="1.1"
   id="svg1107"
   inkscape:version="0.92.5 (2060ec1f9f, 2020-04-08)"
   sodipodi:docname="linkedin_logo.svg">
  <defs
     id="defs1101" />
  <sodipodi:namedview
     id="base"
     pagecolor="#ffffff"
     bordercolor="#666666"
     borderopacity="1.0"
     inkscape:pageopacity="0.0"
     inkscape:pageshadow="2"
     inkscape:zoom="7.9195959"
     inkscape:cx="48.06842"
     inkscape:cy="31.151048"
     inkscape:document-units="mm"
     inkscape:current-layer="layer1"
     showgrid="false"
     units="px"
     inkscape:window-width="1680"
     inkscape:window-height="1013"
     inkscape:window-x="0"
     inkscape:window-y="30"
     inkscape:window-maximized="1" />
  <metadata
     id="metadata1104">
    <rdf:RDF>
      <cc:Work
         rdf:about="">
        <dc:format>image/svg+xml</dc:format>
        <dc:type
           rdf:resource="http://purl.org/dc/dcmitype/StillImage" />
        <dc:title></dc:title>
      </cc:Work>
    </rdf:RDF>
  </metadata>
  <g
     inkscape:label="Layer 1"
     inkscape:groupmode="layer"
     id="layer1"
     transform="translate(0,-285.09346)">
    <g
       id="g5145"
       transform="matrix(0.25299043,0,0,0.25299043,4.0455742,219.99634)"
       style="stroke:none">
      <path
         inkscape:connector-curvature="0"
         id="path4528"
         d="m -12.865849,303.49414 c -0.525454,-0.12651 -1.333424,-0.66039 -1.709446,-1.12955 -0.210137,-0.26218 -0.445232,-0.71791 -0.55697,-1.07967 -0.190538,-0.61689 -0.193351,-0.91249 -0.193351,-20.3175 0,-19.40501 0.0028,-19.70061 0.193351,-20.3175 0.255803,-0.8282 0.760927,-1.44534 1.550208,-1.89401 l 0.629619,-0.3579 H 7.2922241 27.536884 l 0.645964,0.36358 c 0.69868,0.39325 1.123657,0.85522 1.462876,1.59022 l 0.215906,0.46781 v 20.1478 20.14779 l -0.211418,0.45767 c -0.331462,0.71753 -0.797238,1.22307 -1.482019,1.60856 l -0.631309,0.35538 -20.0509319,0.0149 c -11.028013,0.008 -20.1863231,-0.0177 -20.3518011,-0.0576 z m 10.9805891,-17.36869 0.02464,-10.8246 h -3.43911 -3.4391061 v 10.78424 c 0,5.93133 0.029615,10.81385 0.065812,10.85005 0.036196,0.0362 1.572708,0.0543 3.4144701,0.0404 l 3.348659,-0.0255 z m 10.980853,4.47998 c 0.03667,-3.8901 0.100034,-6.54163 0.163785,-6.85386 0.151423,-0.74161 0.662851,-1.71128 1.1293809,-2.14131 1.087454,-1.00238 3.413543,-1.18165 4.636733,-0.35734 0.490072,0.33026 1.001374,1.15373 1.196007,1.92621 0.157316,0.62438 0.179837,1.35196 0.223877,7.23257 l 0.04897,6.53835 h 3.390252 3.390255 v -7.16797 c 0,-7.63272 -0.0083,-7.79598 -0.491189,-9.70806 -0.480226,-1.90137 -1.34145,-3.22425 -2.698676,-4.14529 -0.542179,-0.36793 -0.855649,-0.51183 -1.673058,-0.76803 -1.203679,-0.37726 -1.94202,-0.46582 -3.494722,-0.41915 -1.318784,0.0396 -1.491015,0.0669 -2.297438,0.36435 -1.448184,0.53406 -2.7789399,1.52852 -3.4954139,2.61207 l -0.282298,0.42693 -0.0268,-1.42202 -0.02681,-1.42203 h -3.2908 -3.290801 v 10.78424 c 0,5.93133 0.02962,10.81385 0.06581,10.85005 0.0362,0.0362 1.572708,0.0543 3.41447,0.0404 l 3.348659,-0.0255 z m -12.665738,-18.63027 c 0.824967,-0.40772 1.457135,-1.03677 1.851066,-1.84193 0.302876,-0.61906 0.415117,-1.7755 0.255116,-2.6285 -0.154847,-0.82552 -0.794057,-1.75772 -1.563614,-2.28032 -0.874209,-0.59366 -1.282164,-0.70373 -2.4470641,-0.66021 -0.9251024,0.0346 -1.0278931,0.0594 -1.6175001,0.39129 -1.2992592,0.73129 -2.0370625,1.89066 -2.1117107,3.31829 -0.03633,0.69481 -0.00827,0.86334 0.2588117,1.55423 0.3558463,0.92052 1.0485218,1.69524 1.9016202,2.12687 0.7379158,0.37336 1.0375511,0.4354 1.955253,0.40489 0.68986,-0.0229 0.887581,-0.073 1.518022,-0.38461 z"
         style="opacity:1;vector-effect:none;fill:#ffffff;fill-opacity:1;stroke:none;stroke-width:0.25187796;stroke-linecap:round;stroke-linejoin:round;stroke-miterlimit:4;stroke-dasharray:none;stroke-dashoffset:0;stroke-opacity:1" />
      <path
         inkscape:connector-curvature="0"
         id="path4530"
         d="m 34.105327,303.69381 c -0.68071,-0.25302 -1.181828,-0.67681 -1.583397,-1.33906 -0.301842,-0.49778 -0.338889,-0.63713 -0.368736,-1.38698 -0.04073,-1.02308 0.163036,-1.5384 0.902044,-2.28131 0.587631,-0.59072 1.167519,-0.8162 2.099125,-0.8162 1.259268,0 2.221346,0.60167 2.76203,1.72733 0.70748,1.47291 0.006,3.34453 -1.504559,4.01429 -0.641122,0.28427 -1.664395,0.32062 -2.306507,0.0819 z m 2.041458,-0.27489 c 0.591858,-0.18581 1.160029,-0.69143 1.493298,-1.32891 0.209852,-0.40141 0.256855,-0.62239 0.258853,-1.21696 0.0021,-0.61776 -0.04046,-0.80985 -0.284216,-1.28353 -0.290531,-0.56459 -0.696465,-0.9628 -1.311608,-1.28664 -0.501817,-0.26418 -1.846644,-0.25041 -2.373178,0.0243 -0.519451,0.27102 -1.026398,0.79486 -1.313447,1.35724 -0.324458,0.63566 -0.331777,1.72626 -0.01561,2.3241 0.468574,0.88601 1.135041,1.39043 2.068287,1.5654 0.481904,0.0904 0.803561,0.0566 1.477608,-0.155 z"
         style="opacity:1;vector-effect:none;fill:#ffffff;fill-opacity:1;stroke:none;stroke-width:0.25187796;stroke-linecap:round;stroke-linejoin:round;stroke-miterlimit:4;stroke-dasharray:none;stroke-dashoffset:0;stroke-opacity:1" />
      <path
         inkscape:connector-curvature="0"
         id="path4532"
         d="m 34.097048,300.84884 0.02662,-1.57405 0.774914,0.002 c 0.426204,7.9e-4 0.889267,0.033 1.029031,0.0714 0.320201,0.0881 0.516469,0.53339 0.432453,0.98123 -0.0707,0.37688 -0.188169,0.5004 -0.566031,0.59524 -0.146208,0.0367 -0.265834,0.0978 -0.265834,0.13587 0,0.038 0.195132,0.34933 0.433631,0.69177 0.40283,0.57839 0.433083,0.76417 0.10387,0.63784 -0.07379,-0.0283 -0.317056,-0.35934 -0.540597,-0.73562 -0.375994,-0.63289 -0.431012,-0.68414 -0.734428,-0.68414 h -0.327985 v 0.72648 c 0,0.66487 -0.01664,0.72649 -0.196128,0.72649 -0.189973,0 -0.195294,-0.0494 -0.169513,-1.57405 z m 1.784477,-0.27825 c 0.07205,-0.0598 0.130995,-0.25347 0.130995,-0.43039 0,-0.4453 -0.282723,-0.62325 -0.990198,-0.62325 h -0.559633 v 0.56504 c 0,0.31078 0.03269,0.59869 0.07265,0.63982 0.100767,0.10371 1.185889,-0.0182 1.346187,-0.15122 z"
         style="opacity:1;vector-effect:none;fill:#ffffff;fill-opacity:1;stroke:none;stroke-width:0.25187796;stroke-linecap:round;stroke-linejoin:round;stroke-miterlimit:4;stroke-dasharray:none;stroke-dashoffset:0;stroke-opacity:1" />
    </g>
  </g>
</svg>
